SplineFontDB: 1.0
FontName: DejaVuSansCondensed-Bold
FullName: DejaVu Sans Condensed Bold
FamilyName: DejaVu Sans Condensed
Weight: Bold
Copyright: Copyright (c) 2003 by Bitstream, Inc. All Rights Reserved.\nDejaVu changes are in public domain\n
Version: 1.13
ItalicAngle: 0
UnderlinePosition: -227
UnderlineWidth: 258
Ascent: 1556
Descent: 492
Order2: 1
NeedsXUIDChange: 1
FSType: 0
PfmFamily: 17
TTFWeight: 700
TTFWidth: 5
Panose: 2 11 8 6 3 6 4 2 2 4
LineGap: 410
VLineGap: 0
OS2TypoAscent: 1556
OS2TypoDescent: -492
OS2TypoLinegap: 0
OS2WinAscent: 1901
OS2WinAOffset: 0
OS2WinDescent: 483
OS2WinDOffset: 0
HheadAscent: 1901
HheadAOffset: 0
HheadDescent: -483
HheadDOffset: 0
ScriptLang: 2
 1 latn 1 dflt 
 1 DFLT 1 dflt 
TtfTable: prep 1959
6%f;i!@@gG!!<6J!"f25!@.[h!'1)`!@.[A!!<6H!#>P:!?qOf!'1)`!?qOC!!<6F!'1)^!?_C=
!!<6D!4r45!?M5O!!<6B!<)s#!?;(W!!<6@!$2+B!?(t;!!<6>!<)s#!>kh9!!<6<!<)s#!>Y\7
!!<6:!>GMD!!NB<!<)s#!>GMD!!<68!<)s#!>5D3!!<64!=f*X!!NB6!<)s#!=f*X!!<62!=Sse
!!NB4!<)s#!=]%E!!E<2!=Jm1!!NB3!/pm[!=SsY!!E<1!=AfR!!NB2!*K:(!=Jlm!!E<0!%%[J
!=8c*!!<6-!<)s#!=&T5!!<6,!.Y%P!=#ir/d4NS!<rQ#!!<6*!;ZZt!<`E%!!<6(!#Yb=!<N8t
!!<6&!;ZZt!<>CbI09L5"9/9%r;/#Kr;Hfq/-GbJ"8V^^"o3QKpdYG\q?-Hj"82Wqo_nsa]*%X'
"7c?mnGWOY*Wtj0"7>F^"mu9klj<j]5QpE<$3f`N"6p3ql1tMGOVS,arWD?["6TF^jcL;^jo,AC
rWD3["60:^iVir;rWD'W"5`kVh:rhNh.-WC(^&Nc*X1;/"5;ES"kreTfd-aQd3StKq?,@#'F!)(
"4l!6"kF@ieIVi4dgH?/+9U(#"4GRC"k*5Ld?,1Jd3SnAPRI`B,6Q9;'Euf0"4#.("jReabn:-&
OVS,E*<XJ!"3S`t"j6fHaiI`kah%YsJ-<qYs2QDhaB\nh5Qo+R"31<B`FK(hO:VT6rWC%X"2b$>
_>XPP^H)P6q?+L7)[3u;"2;Ge"hl_o]t=p\]c%!c]+5(X&HfYV$jF6R"1emC\WIX2\c)]@rWBVE
"1AgE[Jg98rWBM+"0r^FYo*YJ('CbB)[3GA"0SaF"g7\(XcXA&XW%ADOVS,%I06PL"0*[MWW!!u
rWB(t"/c&"V$[=#rWApi%L&X,"/68-U-JjTTH491q?*CQ('U?P".t\k"eYVnSs0WeSf@j'rWA[[
]*4`(".P`b"e3++Rt(X1O!Osu>m$N\"I]5kR$TE/R/R2S/d%E%('U!F5lUqOPRI_\+9Ri:"-\i_
"d;R]P*$L`P5YQGO:VSX('BX0"-4`1NrB-?rWA,Y",m-\MZ*^7rW@t3,mB,(",A0)LAh:/rW@g/
"+umAK)Pk'rW@Zg"+LX[If9FtrW@QI"+0kHHMR_hrW@@fV?M2C"*UODF`\Q+Fnu2^)Zt0X"*/el

StartChar: .notdef
Encoding: 0 -1 0
AltUni: 0
Width: 1167
Flags: W
Fore
153.2 -362 m 1,0,-1
 153.2 1444 l 1,1,-1
 1074.8 1444 l 1,2,-1
 1074.8 -362 l 1,3,-1
 153.2 -362 l 1,0,-1
256.7 -248 m 1,4,-1
 972.2 -248 l 1,5,-1
 972.2 1329 l 1,6,-1
 256.7 1329 l 1,7,-1
 256.7 -248 l 1,4,-1
EndSplineSet
EndChar
StartChar: exclam
Encoding: 33 33 33
Width: 887
Flags: W
Fore
305 1493 m 1,0,-1
 629 1493 l 1,1,-1
 629 920 l 1,2,-1
 583.1 502 l 1,3,-1
 350.9 502 l 1,4,-1
 305 920 l 1,5,-1
 305 1493 l 1,0,-1
305 356 m 1,6,-1
 629 356 l 1,7,-1
 629 0 l 1,8,-1
 305 0 l 1,9,-1
 305 356 l 1,6,-1
EndSplineSet
EndChar
StartChar: quotedbl
Encoding: 34 34 34
Width: 1013
Flags: W
Fore
838.15 1493 m 1,0,-1
 838.15 938 l 1,1,-1
 624.85 938 l 1,2,-1
 624.85 1493 l 1,3,-1
 838.15 1493 l 1,0,-1
442.15 1493 m 1,4,-1
 442.15 938 l 1,5,-1
 228.85 938 l 1,6,-1
 228.85 1493 l 1,7,-1
 442.15 1493 l 1,4,-1
EndSplineSet
EndChar
StartChar: numbersign
Encoding: 35 35 35
Width: 1630
Flags: W
Fore
905.7 1470 m 1,0,-1
 819.3 1085 l 1,1,-1
 1056.9 1085 l 1,2,-1
 1144.2 1470 l 1,3,-1
 1343.1 1470 l 1,4,-1
 1255.8 1085 l 1,5,-1
 1505.1 1085 l 1,6,-1
 1505.1 872 l 1,7,-1
 1208.1 872 l 1,8,-1
 1146 598 l 1,9,-1
 1401.6 598 l 1,10,-1
 1401.6 383 l 1,11,-1
 1099.2 383 l 1,12,-1
 1012.8 0 l 1,13,-1
 813.9 0 l 1,14,-1
 900.3 383 l 1,15,-1
 662.7 383 l 1,16,-1
 576.3 0 l 1,17,-1
 375.6 0 l 1,18,-1
 462 383 l 1,19,-1
 210.9 383 l 1,20,-1
 210.9 598 l 1,21,-1
 506.1 598 l 1,22,-1
 569.1 872 l 1,23,-1
 314.4 872 l 1,24,-1
 314.4 1085 l 1,25,-1
 618.6 1085 l 1,26,-1
 705 1470 l 1,27,-1
 905.7 1470 l 1,0,-1
1007.4 872 m 1,28,-1
 769.8 872 l 1,29,-1
 706.8 598 l 1,30,-1
 944.4 598 l 1,31,-1
 1007.4 872 l 1,28,-1
EndSplineSet
EndChar
StartChar: dollar
Encoding: 36 36 36
Width: 1354
Flags: W
Fore
787.8 -301 m 1,0,-1
 642 -301 l 1,1,-1
 641.1 0 l 1,2,3
 528.6 5 528.6 5 423.3 28 c 128,-1,4
 318 51 318 51 218.1 92 c 1,5,-1
 218.1 354 l 1,6,7
 321.6 295 321.6 295 427.35 263.5 c 128,-1,8
 533.1 232 533.1 232 642 228 c 1,9,-1
 642 539 l 1,10,-1
 612.3 545 l 2,11,12
 397.2 587 397.2 587 306.75 677 c 128,-1,13
 216.3 767 216.3 767 216.3 936 c 0,14,15
 216.3 1115 216.3 1115 326.55 1215.5 c 128,-1,16
 436.8 1316 436.8 1316 641.1 1325 c 1,17,-1
 642 1556 l 1,18,-1
 787.8 1556 l 1,19,-1
 787.8 1329 l 1,20,21
 877.8 1321 877.8 1321 967.8 1304 c 128,-1,22
 1057.8 1287 1057.8 1287 1148.7 1260 c 1,23,-1
 1148.7 1006 l 1,24,25
 1058.7 1048 1058.7 1048 968.7 1071.5 c 128,-1,26
 878.7 1095 878.7 1095 787.8 1100 c 1,27,-1
 787.8 813 l 1,28,-1
 816.6 807 l 2,29,30
 1045.2 767 1045.2 767 1137.45 673.5 c 128,-1,31
 1229.7 580 1229.7 580 1229.7 397 c 0,32,33
 1229.7 213 1229.7 213 1119.9 114.5 c 128,-1,34
 1010.1 16 1010.1 16 787.8 2 c 1,35,-1
 787.8 -301 l 1,0,-1
642 836 m 1,36,-1
 642 1097 l 1,37,38
 578.1 1093 578.1 1093 539.85 1058.5 c 128,-1,39
 501.6 1024 501.6 1024 501.6 971 c 0,40,41
 501.6 912 501.6 912 536.7 878.5 c 128,-1,42
 571.8 845 571.8 845 642 836 c 1,36,-1
787.8 510 m 1,43,-1
 787.8 232 l 1,44,45
 866.1 233 866.1 233 905.25 266 c 128,-1,46
 944.4 299 944.4 299 944.4 365 c 0,47,48
 944.4 433 944.4 433 908.4 466.5 c 128,-1,49
 872.4 500 872.4 500 787.8 510 c 1,43,-1
EndSplineSet
EndChar
StartChar: percent
Encoding: 37 37 37
Width: 1949
Flags: W
Fore
1530.95 616 m 0,0,1
 1467.05 616 1467.05 616 1431.95 554.5 c 128,-1,2
 1396.85 493 1396.85 493 1396.85 379 c 0,3,4
 1396.85 264 1396.85 264 1431.5 202.5 c 128,-1,5
 1466.15 141 1466.15 141 1530.95 141 c 0,6,7
 1595.75 141 1595.75 141 1629.95 202.5 c 128,-1,8
 1664.15 264 1664.15 264 1664.15 379 c 0,9,10
 1664.15 493 1664.15 493 1629.5 554.5 c 128,-1,11
 1594.85 616 1594.85 616 1530.95 616 c 0,0,1
1530.95 784 m 0,12,13
 1698.35 784 1698.35 784 1794.65 676 c 128,-1,14
 1890.95 568 1890.95 568 1890.95 379 c 0,15,16
 1890.95 190 1890.95 190 1794.65 80.5 c 128,-1,17
 1698.35 -29 1698.35 -29 1530.95 -29 c 0,18,19
 1363.55 -29 1363.55 -29 1266.8 80.5 c 128,-1,20
 1170.05 190 1170.05 190 1170.05 379 c 0,21,22
 1170.05 567 1170.05 567 1266.8 675.5 c 128,-1,23
 1363.55 784 1363.55 784 1530.95 784 c 0,12,13
705.65 -29 m 1,24,-1
 506.75 -29 l 1,25,-1
 1346.45 1520 l 1,26,-1
 1546.25 1520 l 1,27,-1
 705.65 -29 l 1,24,-1
521.15 1520 m 0,28,29
 688.55 1520 688.55 1520 784.4 1411.5 c 128,-1,30
 880.25 1303 880.25 1303 880.25 1114 c 0,31,32
 880.25 925 880.25 925 784.4 816 c 128,-1,33
 688.55 707 688.55 707 521.15 707 c 0,34,35
 353.75 707 353.75 707 257.9 816 c 128,-1,36
 162.05 925 162.05 925 162.05 1114 c 0,37,38
 162.05 1303 162.05 1303 257.9 1411.5 c 128,-1,39
 353.75 1520 353.75 1520 521.15 1520 c 0,28,29
521.15 1352 m 0,40,41
 456.35 1352 456.35 1352 421.25 1290 c 128,-1,42
 386.15 1228 386.15 1228 386.15 1114 c 0,43,44
 386.15 999 386.15 999 421.25 936.5 c 128,-1,45
 456.35 874 456.35 874 521.15 874 c 0,46,47
 585.95 874 585.95 874 620.6 936.5 c 128,-1,48
 655.25 999 655.25 999 655.25 1114 c 0,49,50
 655.25 1228 655.25 1228 620.15 1290 c 128,-1,51
 585.05 1352 585.05 1352 521.15 1352 c 0,40,41
EndSplineSet
EndChar
StartChar: ampersand
Encoding: 38 38 38
Width: 1698
Flags: W
Fore
810.25 991 m 2,0,-1
 1178.35 541 l 1,1,2
 1226.05 611 1226.05 611 1250.8 698 c 128,-1,3
 1275.55 785 1275.55 785 1280.05 895 c 1,4,-1
 1559.95 895 l 1,5,6
 1546.45 713 1546.45 713 1496.5 571 c 128,-1,7
 1446.55 429 1446.55 429 1357.45 322 c 1,8,-1
 1621.15 0 l 1,9,-1
 1239.55 0 l 1,10,-1
 1151.35 109 l 1,11,12
 1056.85 39 1056.85 39 952.45 5 c 128,-1,13
 848.05 -29 848.05 -29 731.05 -29 c 0,14,15
 494.35 -29 494.35 -29 348.1 109.5 c 128,-1,16
 201.85 248 201.85 248 201.85 467 c 0,17,18
 201.85 613 201.85 613 266.2 725.5 c 128,-1,19
 330.55 838 330.55 838 476.35 944 c 1,20,21
 438.55 997 438.55 997 420.55 1050 c 128,-1,22
 402.55 1103 402.55 1103 402.55 1161 c 0,23,24
 402.55 1324 402.55 1324 516.85 1422 c 128,-1,25
 631.15 1520 631.15 1520 821.05 1520 c 0,26,27
 902.95 1520 902.95 1520 991.6 1505.5 c 128,-1,28
 1080.25 1491 1080.25 1491 1176.55 1462 c 1,29,-1
 1176.55 1184 l 1,30,31
 1091.95 1232 1091.95 1232 1016.35 1255 c 128,-1,32
 940.75 1278 940.75 1278 868.75 1278 c 0,33,34
 799.45 1278 799.45 1278 761.2 1248.5 c 128,-1,35
 722.95 1219 722.95 1219 722.95 1165 c 0,36,37
 722.95 1131 722.95 1131 745 1087.5 c 128,-1,38
 767.05 1044 767.05 1044 810.25 991 c 2,0,-1
631.15 743 m 1,39,40
 572.65 696 572.65 696 542.95 636.5 c 128,-1,41
 513.25 577 513.25 577 513.25 506 c 0,42,43
 513.25 391 513.25 391 589.75 310 c 128,-1,44
 666.25 229 666.25 229 773.35 229 c 0,45,46
 833.65 229 833.65 229 885.85 249.5 c 128,-1,47
 938.05 270 938.05 270 983.05 311 c 1,48,-1
 631.15 743 l 1,39,40
EndSplineSet
EndChar
StartChar: quotesingle
Encoding: 39 39 39
Width: 595
Flags: W
Fore
420.15 1493 m 1,0,-1
 420.15 938 l 1,1,-1
 206.85 938 l 1,2,-1
 206.85 1493 l 1,3,-1
 420.15 1493 l 1,0,-1
EndSplineSet
EndChar
StartChar: parenleft
Encoding: 40 40 40
Width: 889
Flags: W
Fore
742.2 -270 m 1,0,-1
 474.9 -270 l 1,1,2
 337.2 -23 337.2 -23 271.5 199.5 c 128,-1,3
 205.8 422 205.8 422 205.8 641 c 0,4,5
 205.8 860 205.8 860 271.95 1084.5 c 128,-1,6
 338.1 1309 338.1 1309 474.9 1554 c 1,7,-1
 742.2 1554 l 1,8,9
 627 1317 627 1317 569.4 1090.5 c 128,-1,10
 511.8 864 511.8 864 511.8 643 c 0,11,12
 511.8 422 511.8 422 568.95 195 c 128,-1,13
 626.1 -32 626.1 -32 742.2 -270 c 1,0,-1
EndSplineSet
EndChar
StartChar: parenright
Encoding: 41 41 41
Width: 888
Flags: W
Fore
193.8 -270 m 1,0,1
 309 -32 309 -32 366.6 195 c 128,-1,2
 424.2 422 424.2 422 424.2 643 c 0,3,4
 424.2 864 424.2 864 366.6 1090.5 c 128,-1,5
 309 1317 309 1317 193.8 1554 c 1,6,-1
 461.1 1554 l 1,7,8
 597.9 1309 597.9 1309 664.05 1084.5 c 128,-1,9
 730.2 860 730.2 860 730.2 641 c 0,10,11
 730.2 422 730.2 422 664.5 199.5 c 128,-1,12
 598.8 -23 598.8 -23 461.1 -270 c 1,13,-1
 193.8 -270 l 1,0,1
EndSplineSet
EndChar
StartChar: asterisk
Encoding: 42 42 42
Width: 1017
Flags: W
Fore
980.55 1217 m 1,0,-1
 683.55 1044 l 1,1,-1
 980.55 870 l 1,2,-1
 912.15 729 l 1,3,-1
 612.45 913 l 1,4,-1
 612.45 569 l 1,5,-1
 459.45 569 l 1,6,-1
 459.45 913 l 1,7,-1
 158.85 729 l 1,8,-1
 90.4502 870 l 1,9,-1
 391.05 1044 l 1,10,-1
 90.4502 1217 l 1,11,-1
 158.85 1358 l 1,12,-1
 459.45 1176 l 1,13,-1
 459.45 1520 l 1,14,-1
 612.45 1520 l 1,15,-1
 612.45 1176 l 1,16,-1
 912.15 1358 l 1,17,-1
 980.55 1217 l 1,0,-1
EndSplineSet
EndChar
StartChar: plus
Encoding: 43 43 43
Width: 1630
Flags: W
Fore
965.1 1284 m 1,0,-1
 965.1 760 l 1,1,-1
 1434.9 760 l 1,2,-1
 1434.9 524 l 1,3,-1
 965.1 524 l 1,4,-1
 965.1 0 l 1,5,-1
 750.9 0 l 1,6,-1
 750.9 524 l 1,7,-1
 281.1 524 l 1,8,-1
 281.1 760 l 1,9,-1
 750.9 760 l 1,10,-1
 750.9 1284 l 1,11,-1
 965.1 1284 l 1,0,-1
EndSplineSet
EndChar
StartChar: comma
Encoding: 44 44 44
Width: 734
Flags: W
Fore
222 387 m 1,0,-1
 546 387 l 1,1,-1
 546 82 l 1,2,-1
 323.7 -291 l 1,3,-1
 132 -291 l 1,4,-1
 222 82 l 1,5,-1
 222 387 l 1,0,-1
EndSplineSet
EndChar
StartChar: hyphen
Encoding: 45 45 45
Width: 807
Flags: W
Fore
142.4 735 m 1,0,-1
 707.6 735 l 1,1,-1
 707.6 444 l 1,2,-1
 142.4 444 l 1,3,-1
 142.4 735 l 1,0,-1
EndSplineSet
KernsSLIFO: 356 -301 0 0 221 -301 0 0 376 -301 0 0 89 -301 0 0 88 -167 0 0 87 -92 0 0 86 -149 0 0 84 -301 0 0
EndChar
StartChar: period
Encoding: 46 46 46
Width: 739
Flags: W
Fore
227 387 m 1,0,-1
 551 387 l 1,1,-1
 551 0 l 1,2,-1
 227 0 l 1,3,-1
 227 387 l 1,0,-1
EndSplineSet
EndChar
StartChar: slash
Encoding: 47 47 47
Width: 710
Flags: W
Fore
510.8 1493 m 1,0,-1
 710.6 1493 l 1,1,-1
 236.3 -190 l 1,2,-1
 37.4004 -190 l 1,3,-1
 510.8 1493 l 1,0,-1
EndSplineSet
EndChar
StartChar: zero
Encoding: 48 48 48
Width: 1353
Flags: W
Fore
919.05 748 m 0,0,1
 919.05 1028 919.05 1028 871.8 1142.5 c 128,-1,2
 824.55 1257 824.55 1257 712.95 1257 c 0,3,4
 601.35 1257 601.35 1257 553.65 1142.5 c 128,-1,5
 505.95 1028 505.95 1028 505.95 748 c 0,6,7
 505.95 465 505.95 465 553.65 349 c 128,-1,8
 601.35 233 601.35 233 712.95 233 c 0,9,10
 823.65 233 823.65 233 871.35 349 c 128,-1,11
 919.05 465 919.05 465 919.05 748 c 0,0,1
1265.55 745 m 0,12,13
 1265.55 374 1265.55 374 1121.55 172.5 c 128,-1,14
 977.55 -29 977.55 -29 712.95 -29 c 0,15,16
 447.45 -29 447.45 -29 303.45 172.5 c 128,-1,17
 159.45 374 159.45 374 159.45 745 c 0,18,19
 159.45 1117 159.45 1117 303.45 1318.5 c 128,-1,20
 447.45 1520 447.45 1520 712.95 1520 c 0,21,22
 977.55 1520 977.55 1520 1121.55 1318.5 c 128,-1,23
 1265.55 1117 1265.55 1117 1265.55 745 c 0,12,13
EndSplineSet
EndChar
StartChar: one
Encoding: 49 49 49
Width: 1358
Flags: W
Fore
291.75 266 m 1,0,-1
 597.75 266 l 1,1,-1
 597.75 1231 l 1,2,-1
 283.65 1159 l 1,3,-1
 283.65 1421 l 1,4,-1
 595.95 1493 l 1,5,-1
 925.35 1493 l 1,6,-1
 925.35 266 l 1,7,-1
 1231.35 266 l 1,8,-1
 1231.35 0 l 1,9,-1
 291.75 0 l 1,10,-1
 291.75 266 l 1,0,-1
EndSplineSet
EndChar
StartChar: two
Encoding: 50 50 50
Width: 1352
Flags: W
Fore
601.45 283 m 1,0,-1
 1192.75 283 l 1,1,-1
 1192.75 0 l 1,2,-1
 216.25 0 l 1,3,-1
 216.25 283 l 1,4,-1
 706.75 764 l 1,5,6
 772.45 830 772.45 830 803.95 893 c 128,-1,7
 835.45 956 835.45 956 835.45 1024 c 0,8,9
 835.45 1129 835.45 1129 772 1193 c 128,-1,10
 708.55 1257 708.55 1257 603.25 1257 c 0,11,12
 522.25 1257 522.25 1257 425.95 1218.5 c 128,-1,13
 329.65 1180 329.65 1180 219.85 1104 c 1,14,-1
 219.85 1432 l 1,15,16
 336.85 1475 336.85 1475 451.15 1497.5 c 128,-1,17
 565.45 1520 565.45 1520 675.25 1520 c 0,18,19
 916.45 1520 916.45 1520 1050.1 1402 c 128,-1,20
 1183.75 1284 1183.75 1284 1183.75 1073 c 0,21,22
 1183.75 951 1183.75 951 1127.05 845.5 c 128,-1,23
 1070.35 740 1070.35 740 888.55 563 c 2,24,-1
 601.45 283 l 1,0,-1
EndSplineSet
EndChar
StartChar: three
Encoding: 51 51 51
Width: 1352
Flags: W
Fore
928.55 805 m 1,0,1
 1064.45 766 1064.45 766 1135.1 669.5 c 128,-1,2
 1205.75 573 1205.75 573 1205.75 424 c 0,3,4
 1205.75 202 1205.75 202 1052.75 86.5 c 128,-1,5
 899.75 -29 899.75 -29 606.35 -29 c 0,6,7
 502.85 -29 502.85 -29 398.9 -10.5 c 128,-1,8
 294.95 8 294.95 8 193.25 45 c 1,9,-1
 193.25 342 l 1,10,11
 290.45 288 290.45 288 386.3 260.5 c 128,-1,12
 482.15 233 482.15 233 574.85 233 c 0,13,14
 712.55 233 712.55 233 785.9 286 c 128,-1,15
 859.25 339 859.25 339 859.25 438 c 0,16,17
 859.25 540 859.25 540 784.1 592.5 c 128,-1,18
 708.95 645 708.95 645 562.25 645 c 2,19,-1
 423.65 645 l 1,20,-1
 423.65 893 l 1,21,-1
 569.45 893 l 2,22,23
 699.95 893 699.95 893 763.85 938.5 c 128,-1,24
 827.75 984 827.75 984 827.75 1077 c 0,25,26
 827.75 1163 827.75 1163 765.65 1210 c 128,-1,27
 703.55 1257 703.55 1257 590.15 1257 c 0,28,29
 506.45 1257 506.45 1257 420.95 1236 c 128,-1,30
 335.45 1215 335.45 1215 250.85 1174 c 1,31,-1
 250.85 1456 l 1,32,33
 353.45 1488 353.45 1488 454.25 1504 c 128,-1,34
 555.05 1520 555.05 1520 652.25 1520 c 0,35,36
 914.15 1520 914.15 1520 1044.2 1424.5 c 128,-1,37
 1174.25 1329 1174.25 1329 1174.25 1137 c 0,38,39
 1174.25 1006 1174.25 1006 1112.15 922.5 c 128,-1,40
 1050.05 839 1050.05 839 928.55 805 c 1,0,1
EndSplineSet
EndChar
StartChar: four
Encoding: 52 52 52
Width: 1353
Flags: W
Fore
749.75 1176 m 1,0,-1
 369.95 551 l 1,1,-1
 749.75 551 l 1,2,-1
 749.75 1176 l 1,0,-1
692.15 1493 m 1,3,-1
 1077.35 1493 l 1,4,-1
 1077.35 551 l 1,5,-1
 1269.05 551 l 1,6,-1
 1269.05 272 l 1,7,-1
 1077.35 272 l 1,8,-1
 1077.35 0 l 1,9,-1
 749.75 0 l 1,10,-1
 749.75 272 l 1,11,-1
 153.95 272 l 1,12,-1
 153.95 602 l 1,13,-1
 692.15 1493 l 1,3,-1
EndSplineSet
EndChar
StartChar: five
Encoding: 53 53 53
Width: 1354
Flags: W
Fore
267.3 1493 m 1,0,-1
 1128.6 1493 l 1,1,-1
 1128.6 1210 l 1,2,-1
 543.6 1210 l 1,3,-1
 543.6 979 l 1,4,5
 583.2 991 583.2 991 623.25 997.5 c 128,-1,6
 663.3 1004 663.3 1004 706.5 1004 c 0,7,8
 952.2 1004 952.2 1004 1089 867.5 c 128,-1,9
 1225.8 731 1225.8 731 1225.8 487 c 0,10,11
 1225.8 245 1225.8 245 1076.85 108 c 128,-1,12
 927.9 -29 927.9 -29 663.3 -29 c 0,13,14
 549 -29 549 -29 436.95 -4.5 c 128,-1,15
 324.9 20 324.9 20 214.2 70 c 1,16,-1
 214.2 373 l 1,17,18
 324 303 324 303 422.55 268 c 128,-1,19
 521.1 233 521.1 233 608.4 233 c 0,20,21
 734.4 233 734.4 233 806.85 301.5 c 128,-1,22
 879.3 370 879.3 370 879.3 487 c 0,23,24
 879.3 605 879.3 605 806.85 673 c 128,-1,25
 734.4 741 734.4 741 608.4 741 c 0,26,27
 533.7 741 533.7 741 449.1 719.5 c 128,-1,28
 364.5 698 364.5 698 267.3 653 c 1,29,-1
 267.3 1493 l 1,0,-1
EndSplineSet
EndChar
StartChar: six
Encoding: 54 54 54
Width: 1354
Flags: W
Fore
739 737 m 0,0,1
 648.1 737 648.1 737 602.65 671.5 c 128,-1,2
 557.2 606 557.2 606 557.2 475 c 0,3,4
 557.2 344 557.2 344 602.65 278.5 c 128,-1,5
 648.1 213 648.1 213 739 213 c 0,6,7
 830.8 213 830.8 213 876.25 278.5 c 128,-1,8
 921.7 344 921.7 344 921.7 475 c 0,9,10
 921.7 606 921.7 606 876.25 671.5 c 128,-1,11
 830.8 737 830.8 737 739 737 c 0,0,1
1167.4 1454 m 1,12,-1
 1167.4 1178 l 1,13,14
 1081.9 1223 1081.9 1223 1006.3 1244.5 c 128,-1,15
 930.7 1266 930.7 1266 858.7 1266 c 0,16,17
 703.9 1266 703.9 1266 617.5 1170.5 c 128,-1,18
 531.1 1075 531.1 1075 516.7 887 c 1,19,20
 576.1 936 576.1 936 645.4 960.5 c 128,-1,21
 714.7 985 714.7 985 796.6 985 c 0,22,23
 1002.7 985 1002.7 985 1129.15 851 c 128,-1,24
 1255.6 717 1255.6 717 1255.6 500 c 0,25,26
 1255.6 260 1255.6 260 1114.3 115.5 c 128,-1,27
 973 -29 973 -29 735.4 -29 c 0,28,29
 473.5 -29 473.5 -29 329.95 167.5 c 128,-1,30
 186.4 364 186.4 364 186.4 725 c 0,31,32
 186.4 1095 186.4 1095 354.25 1306.5 c 128,-1,33
 522.1 1518 522.1 1518 814.6 1518 c 0,34,35
 907.3 1518 907.3 1518 994.6 1502 c 128,-1,36
 1081.9 1486 1081.9 1486 1167.4 1454 c 1,12,-1
EndSplineSet
EndChar
StartChar: seven
Encoding: 55 55 55
Width: 1352
Flags: W
Fore
193.25 1493 m 1,0,-1
 1205.75 1493 l 1,1,-1
 1205.75 1276 l 1,2,-1
 681.95 0 l 1,3,-1
 344.45 0 l 1,4,-1
 840.35 1210 l 1,5,-1
 193.25 1210 l 1,6,-1
 193.25 1493 l 1,0,-1
EndSplineSet
EndChar
StartChar: eight
Encoding: 56 56 56
Width: 1353
Flags: W
Fore
712.85 668 m 0,0,1
 615.65 668 615.65 668 563.45 609 c 128,-1,2
 511.25 550 511.25 550 511.25 440 c 0,3,4
 511.25 330 511.25 330 563.45 271.5 c 128,-1,5
 615.65 213 615.65 213 712.85 213 c 0,6,7
 809.15 213 809.15 213 860.45 271.5 c 128,-1,8
 911.75 330 911.75 330 911.75 440 c 0,9,10
 911.75 551 911.75 551 860.45 609.5 c 128,-1,11
 809.15 668 809.15 668 712.85 668 c 0,0,1
459.95 795 m 1,12,13
 337.55 836 337.55 836 275.45 921 c 128,-1,14
 213.35 1006 213.35 1006 213.35 1133 c 0,15,16
 213.35 1322 213.35 1322 340.25 1421 c 128,-1,17
 467.15 1520 467.15 1520 712.85 1520 c 0,18,19
 956.75 1520 956.75 1520 1083.65 1421.5 c 128,-1,20
 1210.55 1323 1210.55 1323 1210.55 1133 c 0,21,22
 1210.55 1006 1210.55 1006 1148 921 c 128,-1,23
 1085.45 836 1085.45 836 963.05 795 c 1,24,25
 1099.85 753 1099.85 753 1169.6 658.5 c 128,-1,26
 1239.35 564 1239.35 564 1239.35 420 c 0,27,28
 1239.35 198 1239.35 198 1106.6 84.5 c 128,-1,29
 973.85 -29 973.85 -29 712.85 -29 c 0,30,31
 450.95 -29 450.95 -29 317.3 84.5 c 128,-1,32
 183.65 198 183.65 198 183.65 420 c 0,33,34
 183.65 564 183.65 564 253.4 658.5 c 128,-1,35
 323.15 753 323.15 753 459.95 795 c 1,12,13
540.95 1094 m 0,36,37
 540.95 1005 540.95 1005 585.5 957 c 128,-1,38
 630.05 909 630.05 909 712.85 909 c 0,39,40
 793.85 909 793.85 909 837.95 957 c 128,-1,41
 882.05 1005 882.05 1005 882.05 1094 c 0,42,43
 882.05 1183 882.05 1183 837.95 1230.5 c 128,-1,44
 793.85 1278 793.85 1278 712.85 1278 c 0,45,46
 630.05 1278 630.05 1278 585.5 1230 c 128,-1,47
 540.95 1182 540.95 1182 540.95 1094 c 0,36,37
EndSplineSet
EndChar
StartChar: nine
Encoding: 57 57 57
Width: 1352
Flags: W
Fore
254.5 33 m 1,0,-1
 254.5 309 l 1,1,2
 337.3 266 337.3 266 412.9 244.5 c 128,-1,3
 488.5 223 488.5 223 562.3 223 c 0,4,5
 717.1 223 717.1 223 803.5 318.5 c 128,-1,6
 889.9 414 889.9 414 905.2 602 c 1,7,8
 844 552 844 552 774.7 527 c 128,-1,9
 705.4 502 705.4 502 624.4 502 c 0,10,11
 418.3 502 418.3 502 291.85 635.5 c 128,-1,12
 165.4 769 165.4 769 165.4 987 c 0,13,14
 165.4 1228 165.4 1228 306.25 1373 c 128,-1,15
 447.1 1518 447.1 1518 683.8 1518 c 0,16,17
 946.6 1518 946.6 1518 1090.6 1321 c 128,-1,18
 1234.6 1124 1234.6 1124 1234.6 764 c 0,19,20
 1234.6 394 1234.6 394 1066.3 182.5 c 128,-1,21
 898 -29 898 -29 604.6 -29 c 0,22,23
 510.1 -29 510.1 -29 423.7 -13.5 c 128,-1,24
 337.3 2 337.3 2 254.5 33 c 1,0,-1
682 752 m 0,25,26
 772.9 752 772.9 752 818.8 817.5 c 128,-1,27
 864.7 883 864.7 883 864.7 1014 c 0,28,29
 864.7 1144 864.7 1144 818.8 1210 c 128,-1,30
 772.9 1276 772.9 1276 682 1276 c 0,31,32
 591.1 1276 591.1 1276 545.2 1210 c 128,-1,33
 499.3 1144 499.3 1144 499.3 1014 c 0,34,35
 499.3 883 499.3 883 545.2 817.5 c 128,-1,36
 591.1 752 591.1 752 682 752 c 0,25,26
EndSplineSet
EndChar
StartChar: colon
Encoding: 58 58 58
Width: 778
Flags: W
Fore
247.05 1120 m 1,0,-1
 571.95 1120 l 1,1,-1
 571.95 733 l 1,2,-1
 247.05 733 l 1,3,-1
 247.05 1120 l 1,0,-1
247.05 387 m 1,4,-1
 571.95 387 l 1,5,-1
 571.95 0 l 1,6,-1
 247.05 0 l 1,7,-1
 247.05 387 l 1,4,-1
EndSplineSet
EndChar
StartChar: semicolon
Encoding: 59 59 59
Width: 773
Flags: W
Fore
242.05 387 m 1,0,-1
 566.95 387 l 1,1,-1
 566.95 82 l 1,2,-1
 343.75 -291 l 1,3,-1
 152.05 -291 l 1,4,-1
 242.05 82 l 1,5,-1
 242.05 387 l 1,0,-1
242.05 1120 m 1,6,-1
 566.95 1120 l 1,7,-1
 566.95 733 l 1,8,-1
 242.05 733 l 1,9,-1
 242.05 1120 l 1,6,-1
EndSplineSet
EndChar
StartChar: less
Encoding: 60 60 60
Width: 1630
Flags: W
Fore
1434.9 973 m 1,0,-1
 567.3 641 l 1,1,-1
 1434.9 311 l 1,2,-1
 1434.9 61 l 1,3,-1
 281.1 524 l 1,4,-1
 281.1 760 l 1,5,-1
 1434.9 1223 l 1,6,-1
 1434.9 973 l 1,0,-1
EndSplineSet
EndChar
StartChar: equal
Encoding: 61 61 61
Width: 1630
Flags: W
Fore
281.1 987 m 1,0,-1
 1434.9 987 l 1,1,-1
 1434.9 752 l 1,2,-1
 281.1 752 l 1,3,-1
 281.1 987 l 1,0,-1
281.1 532 m 1,4,-1
 1434.9 532 l 1,5,-1
 1434.9 295 l 1,6,-1
 281.1 295 l 1,7,-1
 281.1 532 l 1,4,-1
EndSplineSet
EndChar
StartChar: greater
Encoding: 62 62 62
Width: 1630
Flags: W
Fore
281.1 973 m 1,0,-1
 281.1 1223 l 1,1,-1
 1434.9 760 l 1,2,-1
 1434.9 524 l 1,3,-1
 281.1 61 l 1,4,-1
 281.1 311 l 1,5,-1
 1149.6 641 l 1,6,-1
 281.1 973 l 1,0,-1
EndSplineSet
EndChar
StartChar: question
Encoding: 63 63 63
Width: 1129
Flags: W
Fore
697.9 504 m 1,0,-1
 373 504 l 1,1,-1
 373 553 l 2,2,3
 373 635 373 635 402.7 698.5 c 128,-1,4
 432.4 762 432.4 762 527.8 860 c 2,5,-1
 585.4 918 l 2,6,7
 636.7 970 636.7 970 660.55 1016 c 128,-1,8
 684.4 1062 684.4 1062 684.4 1108 c 0,9,10
 684.4 1178 684.4 1178 641.2 1217.5 c 128,-1,11
 598 1257 598 1257 520.6 1257 c 0,12,13
 447.7 1257 447.7 1257 363.1 1223.5 c 128,-1,14
 278.5 1190 278.5 1190 186.7 1124 c 1,15,-1
 186.7 1438 l 1,16,17
 295.6 1480 295.6 1480 385.6 1500 c 128,-1,18
 475.6 1520 475.6 1520 559.3 1520 c 0,19,20
 778.9 1520 778.9 1520 894.1 1420.5 c 128,-1,21
 1009.3 1321 1009.3 1321 1009.3 1130 c 0,22,23
 1009.3 1032 1009.3 1032 974.2 954.5 c 128,-1,24
 939.1 877 939.1 877 854.5 788 c 1,25,-1
 796.9 731 l 2,26,27
 735.7 669 735.7 669 716.8 631.5 c 128,-1,28
 697.9 594 697.9 594 697.9 549 c 2,29,-1
 697.9 504 l 1,0,-1
373 356 m 1,30,-1
 697.9 356 l 1,31,-1
 697.9 0 l 1,32,-1
 373 0 l 1,33,-1
 373 356 l 1,30,-1
EndSplineSet
EndChar
StartChar: at
Encoding: 64 64 64
Width: 1945
Flags: W
Fore
849.8 539 m 0,0,1
 849.8 416 849.8 416 897.05 345 c 128,-1,2
 944.3 274 944.3 274 1025.3 274 c 0,3,4
 1105.4 274 1105.4 274 1153.1 345.5 c 128,-1,5
 1200.8 417 1200.8 417 1200.8 539 c 0,6,7
 1200.8 660 1200.8 660 1152.65 730.5 c 128,-1,8
 1104.5 801 1104.5 801 1023.5 801 c 0,9,10
 944.3 801 944.3 801 897.05 730.5 c 128,-1,11
 849.8 660 849.8 660 849.8 539 c 0,0,1
1218.8 238 m 1,12,13
 1191.8 167 1191.8 167 1131.95 127.5 c 128,-1,14
 1072.1 88 1072.1 88 992 88 c 0,15,16
 837.2 88 837.2 88 740.45 212.5 c 128,-1,17
 643.7 337 643.7 337 643.7 537 c 0,18,19
 643.7 737 643.7 737 740.9 862 c 128,-1,20
 838.1 987 838.1 987 992 987 c 0,21,22
 1072.1 987 1072.1 987 1131.95 947 c 128,-1,23
 1191.8 907 1191.8 907 1218.8 836 c 1,24,-1
 1218.8 967 l 1,25,-1
 1406.9 967 l 1,26,-1
 1406.9 274 l 1,27,28
 1518.5 293 1518.5 293 1582.4 393.5 c 128,-1,29
 1646.3 494 1646.3 494 1646.3 651 c 0,30,31
 1646.3 751 1646.3 751 1620.2 838.5 c 128,-1,32
 1594.1 926 1594.1 926 1541 999 c 1,33,34
 1455.5 1121 1455.5 1121 1327.25 1187 c 128,-1,35
 1199 1253 1199 1253 1049.6 1253 c 0,36,37
 945.2 1253 945.2 1253 849.8 1222.5 c 128,-1,38
 754.4 1192 754.4 1192 673.4 1133 c 0,39,40
 540.2 1035 540.2 1035 465.95 879.5 c 128,-1,41
 391.7 724 391.7 724 391.7 543 c 0,42,43
 391.7 394 391.7 394 439.85 263.5 c 128,-1,44
 488 133 488 133 578.9 33 c 0,45,46
 668.9 -65 668.9 -65 785.45 -116.5 c 128,-1,47
 902 -168 902 -168 1034.3 -168 c 0,48,49
 1147.7 -168 1147.7 -168 1261.1 -121 c 128,-1,50
 1374.5 -74 1374.5 -74 1454.6 6 c 1,51,-1
 1550.9 -156 l 1,52,53
 1438.4 -253 1438.4 -253 1305.65 -304.5 c 128,-1,54
 1172.9 -356 1172.9 -356 1036.1 -356 c 0,55,56
 869.6 -356 869.6 -356 722 -290.5 c 128,-1,57
 574.4 -225 574.4 -225 459.2 -100 c 0,58,59
 344 25 344 25 283.7 189.5 c 128,-1,60
 223.4 354 223.4 354 223.4 543 c 0,61,62
 223.4 725 223.4 725 284.6 890 c 128,-1,63
 345.8 1055 345.8 1055 459.2 1180 c 0,64,65
 572.6 1304 572.6 1304 723.35 1372 c 128,-1,66
 874.1 1440 874.1 1440 1036.1 1440 c 0,67,68
 1237.7 1440 1237.7 1440 1402.4 1354.5 c 128,-1,69
 1567.1 1269 1567.1 1269 1677.8 1108 c 0,70,71
 1745.3 1010 1745.3 1010 1779.95 895.5 c 128,-1,72
 1814.6 781 1814.6 781 1814.6 655 c 0,73,74
 1814.6 384 1814.6 384 1667.9 234 c 128,-1,75
 1521.2 84 1521.2 84 1253.9 84 c 2,76,-1
 1218.8 84 l 1,77,-1
 1218.8 238 l 1,12,13
EndSplineSet
EndChar
StartChar: A
Encoding: 65 65 65
Width: 1505
Flags: W
Fore
1063.85 272 m 1,0,-1
 522.05 272 l 1,1,-1
 436.55 0 l 1,2,-1
 88.25 0 l 1,3,-1
 585.95 1493 l 1,4,-1
 999.05 1493 l 1,5,-1
 1496.75 0 l 1,6,-1
 1148.45 0 l 1,7,-1
 1063.85 272 l 1,0,-1
608.45 549 m 1,8,-1
 976.55 549 l 1,9,-1
 792.95 1143 l 1,10,-1
 608.45 549 l 1,8,-1
EndSplineSet
KernsSLIFO: 563 -73 0 0 375 -73 0 0 7922 -196 0 0 562 -196 0 0 374 -196 0 0 368 -63 0 0 364 -63 0 0 362 -63 0 0 360 -63 0 0 7812 -92 0 0 7810 -92 0 0 7808 -92 0 0 372 -92 0 0 538 -159 0 0 354 -159 0 0 366 -63 0 0 356 -159 0 0 253 -73 0 0 221 -196 0 0 217 -63 0 0 219 -63 0 0 218 -63 0 0 8222 114 0 0 8218 114 0 0 376 -196 0 0 255 -73 0 0 8217 -188 0 0 8221 -188 0 0 220 -63 0 0 121 -73 0 0 118 -73 0 0 89 -196 0 0 87 -92 0 0 86 -139 0 0 85 -63 0 0 84 -159 0 0 59 38 0 0 58 38 0 0 46 38 0 0 44 38 0 0
EndChar
StartChar: B
Encoding: 66 66 66
Width: 1485
Flags: W
Fore
787.65 915 m 2,0,1
 869.55 915 869.55 915 911.85 955 c 128,-1,2
 954.15 995 954.15 995 954.15 1073 c 0,3,4
 954.15 1150 954.15 1150 911.85 1190.5 c 128,-1,5
 869.55 1231 869.55 1231 787.65 1231 c 2,6,-1
 595.95 1231 l 1,7,-1
 595.95 915 l 1,8,-1
 787.65 915 l 2,0,1
799.35 262 m 2,9,10
 903.75 262 903.75 262 956.4 311 c 128,-1,11
 1009.05 360 1009.05 360 1009.05 459 c 0,12,13
 1009.05 556 1009.05 556 956.85 604.5 c 128,-1,14
 904.65 653 904.65 653 799.35 653 c 2,15,-1
 595.95 653 l 1,16,-1
 595.95 262 l 1,17,-1
 799.35 262 l 2,9,10
1121.55 799 m 1,18,19
 1233.15 763 1233.15 763 1294.35 666 c 128,-1,20
 1355.55 569 1355.55 569 1355.55 428 c 0,21,22
 1355.55 212 1355.55 212 1224.15 106 c 128,-1,23
 1092.75 0 1092.75 0 824.55 0 c 2,24,-1
 249.45 0 l 1,25,-1
 249.45 1493 l 1,26,-1
 769.65 1493 l 2,27,28
 1049.55 1493 1049.55 1493 1175.1 1399 c 128,-1,29
 1300.65 1305 1300.65 1305 1300.65 1098 c 0,30,31
 1300.65 989 1300.65 989 1254.75 912.5 c 128,-1,32
 1208.85 836 1208.85 836 1121.55 799 c 1,18,19
EndSplineSet
KernsSLIFO: 7922 -112 0 0 562 -112 0 0 374 -112 0 0 7812 -112 0 0 7810 -112 0 0 7808 -112 0 0 372 -112 0 0 221 -112 0 0 376 -112 0 0 89 -112 0 0 87 -112 0 0 86 -83 0 0
EndChar
StartChar: C
Encoding: 67 67 67
Width: 1426
Flags: W
Fore
1308.5 82 m 1,0,1
 1213.1 27 1213.1 27 1109.6 -1 c 128,-1,2
 1006.1 -29 1006.1 -29 893.6 -29 c 0,3,4
 557.9 -29 557.9 -29 361.7 179.5 c 128,-1,5
 165.5 388 165.5 388 165.5 745 c 0,6,7
 165.5 1103 165.5 1103 361.7 1311.5 c 128,-1,8
 557.9 1520 557.9 1520 893.6 1520 c 0,9,10
 1006.1 1520 1006.1 1520 1109.6 1492 c 128,-1,11
 1213.1 1464 1213.1 1464 1308.5 1409 c 1,12,-1
 1308.5 1100 l 1,13,14
 1212.2 1173 1212.2 1173 1118.6 1207 c 128,-1,15
 1025 1241 1025 1241 921.5 1241 c 0,16,17
 736.1 1241 736.1 1241 629.9 1109 c 128,-1,18
 523.7 977 523.7 977 523.7 745 c 0,19,20
 523.7 514 523.7 514 629.9 382 c 128,-1,21
 736.1 250 736.1 250 921.5 250 c 0,22,23
 1025 250 1025 250 1118.6 284 c 128,-1,24
 1212.2 318 1212.2 318 1308.5 391 c 1,25,-1
 1308.5 82 l 1,0,1
EndSplineSet
KernsSLIFO: 536 38 0 0 348 38 0 0 346 38 0 0 350 38 0 0 352 38 0 0 8217 75 0 0 8221 75 0 0 83 38 0 0 45 47 0 0
EndChar
StartChar: D
Encoding: 68 68 68
Width: 1619
Flags: W
Fore
604.75 1202 m 1,0,-1
 604.75 291 l 1,1,-1
 728.95 291 l 2,2,3
 941.35 291 941.35 291 1053.4 408 c 128,-1,4
 1165.45 525 1165.45 525 1165.45 748 c 0,5,6
 1165.45 970 1165.45 970 1053.85 1086 c 128,-1,7
 942.25 1202 942.25 1202 728.95 1202 c 2,8,-1
 604.75 1202 l 1,0,-1
258.25 1493 m 1,9,-1
 623.65 1493 l 2,10,11
 929.65 1493 929.65 1493 1079.5 1444.5 c 128,-1,12
 1229.35 1396 1229.35 1396 1336.45 1280 c 0,13,14
 1430.95 1179 1430.95 1179 1476.85 1047 c 128,-1,15
 1522.75 915 1522.75 915 1522.75 748 c 0,16,17
 1522.75 579 1522.75 579 1476.85 446.5 c 128,-1,18
 1430.95 314 1430.95 314 1336.45 213 c 0,19,20
 1228.45 97 1228.45 97 1077.25 48.5 c 128,-1,21
 926.05 0 926.05 0 623.65 0 c 2,22,-1
 258.25 0 l 1,23,-1
 258.25 1493 l 1,9,-1
EndSplineSet
KernsSLIFO: 7922 -149 0 0 562 -149 0 0 374 -149 0 0 221 -149 0 0 8222 -36 0 0 8218 -36 0 0 376 -149 0 0 89 -149 0 0 45 38 0 0
EndChar
StartChar: E
Encoding: 69 69 69
Width: 1330
Flags: W
Fore
241.05 1493 m 1,0,-1
 1176.15 1493 l 1,1,-1
 1176.15 1202 l 1,2,-1
 587.55 1202 l 1,3,-1
 587.55 924 l 1,4,-1
 1141.05 924 l 1,5,-1
 1141.05 633 l 1,6,-1
 587.55 633 l 1,7,-1
 587.55 291 l 1,8,-1
 1195.95 291 l 1,9,-1
 1195.95 0 l 1,10,-1
 241.05 0 l 1,11,-1
 241.05 1493 l 1,0,-1
EndSplineSet
EndChar
StartChar: F
Encoding: 70 70 70
Width: 1329
Flags: W
Fore
239.95 1493 m 1,0,-1
 1175.05 1493 l 1,1,-1
 1175.05 1202 l 1,2,-1
 586.45 1202 l 1,3,-1
 586.45 924 l 1,4,-1
 1139.95 924 l 1,5,-1
 1139.95 633 l 1,6,-1
 586.45 633 l 1,7,-1
 586.45 0 l 1,8,-1
 239.95 0 l 1,9,-1
 239.95 1493 l 1,0,-1
EndSplineSet
KernsSLIFO: 252 -102 0 0 229 -120 0 0 230 -120 0 0 59 -112 0 0 242 -83 0 0 45 -63 0 0 8222 -339 0 0 367 -102 0 0 245 -83 0 0 235 -83 0 0 249 -102 0 0 44 -329 0 0 224 -120 0 0 195 -235 0 0 234 -83 0 0 341 -131 0 0 232 -83 0 0 196 -235 0 0 193 -235 0 0 8217 38 0 0 251 -102 0 0 253 -112 0 0 8218 -339 0 0 227 -120 0 0 194 -235 0 0 248 -83 0 0 244 -83 0 0 65 -235 0 0 97 -120 0 0 228 -120 0 0 246 -83 0 0 250 -102 0 0 225 -120 0 0 345 -131 0 0 46 -301 0 0 226 -120 0 0 233 -83 0 0 283 -83 0 0 101 -83 0 0 339 -83 0 0 255 -112 0 0 111 -83 0 0 114 -131 0 0 117 -102 0 0 192 -235 0 0 121 -112 0 0 58 -112 0 0 243 -83 0 0
EndChar
StartChar: G
Encoding: 71 71 71
Width: 1594
Flags: W
Fore
1458.6 111 m 1,0,1
 1329 41 1329 41 1189.5 6 c 128,-1,2
 1050 -29 1050 -29 901.5 -29 c 0,3,4
 565.8 -29 565.8 -29 369.6 179.5 c 128,-1,5
 173.4 388 173.4 388 173.4 745 c 0,6,7
 173.4 1106 173.4 1106 373.2 1313 c 128,-1,8
 573 1520 573 1520 920.4 1520 c 0,9,10
 1054.5 1520 1054.5 1520 1177.35 1492 c 128,-1,11
 1300.2 1464 1300.2 1464 1409.1 1409 c 1,12,-1
 1409.1 1100 l 1,13,14
 1296.6 1171 1296.6 1171 1185.45 1206 c 128,-1,15
 1074.3 1241 1074.3 1241 962.7 1241 c 0,16,17
 755.7 1241 755.7 1241 643.65 1112.5 c 128,-1,18
 531.6 984 531.6 984 531.6 745 c 0,19,20
 531.6 508 531.6 508 639.6 379 c 128,-1,21
 747.6 250 747.6 250 946.5 250 c 0,22,23
 1000.5 250 1000.5 250 1046.85 257.5 c 128,-1,24
 1093.2 265 1093.2 265 1130.1 281 c 1,25,-1
 1130.1 571 l 1,26,-1
 918.6 571 l 1,27,-1
 918.6 829 l 1,28,-1
 1458.6 829 l 1,29,-1
 1458.6 111 l 1,0,1
EndSplineSet
KernsSLIFO: 356 -36 0 0 221 -45 0 0 376 -45 0 0 89 -45 0 0 84 -36 0 0
EndChar
StartChar: H
Encoding: 72 72 72
Width: 1628
Flags: W
Fore
254.9 1493 m 1,0,-1
 601.4 1493 l 1,1,-1
 601.4 924 l 1,2,-1
 1112.6 924 l 1,3,-1
 1112.6 1493 l 1,4,-1
 1459.1 1493 l 1,5,-1
 1459.1 0 l 1,6,-1
 1112.6 0 l 1,7,-1
 1112.6 633 l 1,8,-1
 601.4 633 l 1,9,-1
 601.4 0 l 1,10,-1
 254.9 0 l 1,11,-1
 254.9 1493 l 1,0,-1
EndSplineSet
EndChar
StartChar: I
Encoding: 73 73 73
Width: 723
Flags: W
Fore
207.25 1493 m 1,0,-1
 553.75 1493 l 1,1,-1
 553.75 0 l 1,2,-1
 207.25 0 l 1,3,-1
 207.25 1493 l 1,0,-1
EndSplineSet
EndChar
StartChar: J
Encoding: 74 74 74
Width: 708
Flags: W
Fore
192.1 1493 m 1,0,-1
 538.6 1493 l 1,1,-1
 538.6 145 l 2,2,3
 538.6 -134 538.6 -134 402.25 -272 c 128,-1,4
 265.9 -410 265.9 -410 -10.4004 -410 c 2,5,-1
 -80.5996 -410 l 1,6,-1
 -80.5996 -119 l 1,7,-1
 -26.5996 -119 l 2,8,9
 81.4004 -119 81.4004 -119 136.75 -52 c 128,-1,10
 192.1 15 192.1 15 192.1 145 c 2,11,-1
 192.1 1493 l 1,0,-1
EndSplineSet
EndChar
StartChar: K
Encoding: 75 75 75
Width: 1520
Flags: W
Fore
261.05 1493 m 1,0,-1
 607.55 1493 l 1,1,-1
 607.55 948 l 1,2,-1
 1107.05 1493 l 1,3,-1
 1509.35 1493 l 1,4,-1
 862.25 786 l 1,5,-1
 1575.95 0 l 1,6,-1
 1142.15 0 l 1,7,-1
 607.55 588 l 1,8,-1
 607.55 0 l 1,9,-1
 261.05 0 l 1,10,-1
 261.05 1493 l 1,0,-1
EndSplineSet
KernsSLIFO: 367 -36 0 0 366 -36 0 0 283 -36 0 0 268 -92 0 0 262 -92 0 0 253 -131 0 0 217 -36 0 0 219 -36 0 0 218 -36 0 0 210 -92 0 0 212 -92 0 0 211 -92 0 0 8222 38 0 0 8218 38 0 0 255 -131 0 0 339 -36 0 0 338 -102 0 0 213 -92 0 0 248 -36 0 0 216 -55 0 0 252 -36 0 0 251 -36 0 0 249 -36 0 0 250 -36 0 0 245 -36 0 0 246 -36 0 0 244 -36 0 0 242 -36 0 0 243 -36 0 0 235 -36 0 0 234 -36 0 0 232 -36 0 0 233 -36 0 0 220 -36 0 0 214 -92 0 0 199 -92 0 0 121 -131 0 0 117 -36 0 0 111 -36 0 0 101 -36 0 0 85 -36 0 0 79 -92 0 0 67 -92 0 0 45 -178 0 0
EndChar
StartChar: L
Encoding: 76 76 76
Width: 1246
Flags: W
Fore
241.05 1493 m 1,0,-1
 587.55 1493 l 1,1,-1
 587.55 291 l 1,2,-1
 1195.95 291 l 1,3,-1
 1195.95 0 l 1,4,-1
 241.05 0 l 1,5,-1
 241.05 1493 l 1,0,-1
EndSplineSet
KernsSLIFO: 366 -73 0 0 356 -339 0 0 253 -139 0 0 221 -319 0 0 217 -73 0 0 219 -73 0 0 218 -73 0 0 210 -73 0 0 212 -73 0 0 211 -73 0 0 376 -319 0 0 255 -139 0 0 8217 -471 0 0 8221 -491 0 0 338 -73 0 0 213 -73 0 0 216 -73 0 0 220 -73 0 0 214 -73 0 0 121 -139 0 0 89 -319 0 0 87 -159 0 0 86 -282 0 0 85 -73 0 0 84 -339 0 0 79 -73 0 0
EndChar
StartChar: M
Encoding: 77 77 77
Width: 1936
Flags: W
Fore
271.05 1493 m 1,0,-1
 712.05 1493 l 1,1,-1
 1018.05 694 l 1,2,-1
 1325.85 1493 l 1,3,-1
 1765.95 1493 l 1,4,-1
 1765.95 0 l 1,5,-1
 1438.35 0 l 1,6,-1
 1438.35 1092 l 1,7,-1
 1128.75 287 l 1,8,-1
 909.15 287 l 1,9,-1
 599.55 1092 l 1,10,-1
 599.55 0 l 1,11,-1
 271.05 0 l 1,12,-1
 271.05 1493 l 1,0,-1
EndSplineSet
EndChar
StartChar: N
Encoding: 78 78 78
Width: 1628
Flags: W
Fore
254.9 1493 m 1,0,-1
 641.9 1493 l 1,1,-1
 1130.6 469 l 1,2,-1
 1130.6 1493 l 1,3,-1
 1459.1 1493 l 1,4,-1
 1459.1 0 l 1,5,-1
 1072.1 0 l 1,6,-1
 583.4 1024 l 1,7,-1
 583.4 0 l 1,8,-1
 254.9 0 l 1,9,-1
 254.9 1493 l 1,0,-1
EndSplineSet
EndChar
StartChar: O
Encoding: 79 79 79
Width: 1653
Flags: W
Fore
870 1241 m 0,0,1
 711.6 1241 711.6 1241 624.3 1111 c 128,-1,2
 537 981 537 981 537 745 c 0,3,4
 537 510 537 510 624.3 380 c 128,-1,5
 711.6 250 711.6 250 870 250 c 0,6,7
 1029.3 250 1029.3 250 1116.6 380 c 128,-1,8
 1203.9 510 1203.9 510 1203.9 745 c 0,9,10
 1203.9 981 1203.9 981 1116.6 1111 c 128,-1,11
 1029.3 1241 1029.3 1241 870 1241 c 0,0,1
870 1520 m 0,12,13
 1194 1520 1194 1520 1377.6 1314 c 128,-1,14
 1561.2 1108 1561.2 1108 1561.2 745 c 0,15,16
 1561.2 383 1561.2 383 1377.6 177 c 128,-1,17
 1194 -29 1194 -29 870 -29 c 0,18,19
 546.9 -29 546.9 -29 362.85 177 c 128,-1,20
 178.8 383 178.8 383 178.8 745 c 0,21,22
 178.8 1108 178.8 1108 362.85 1314 c 128,-1,23
 546.9 1520 546.9 1520 870 1520 c 0,12,13
EndSplineSet
KernsSLIFO: 221 -73 0 0 193 -55 0 0 194 -55 0 0 376 -73 0 0 195 -55 0 0 192 -55 0 0 196 -55 0 0 89 -73 0 0 88 -73 0 0 86 -55 0 0 65 -55 0 0 46 -45 0 0 45 38 0 0 44 -45 0 0
EndChar
StartChar: P
Encoding: 80 80 80
Width: 1431
Flags: W
Fore
249.45 1493 m 1,0,-1
 824.55 1493 l 2,1,2
 1081.05 1493 1081.05 1493 1218.3 1366.5 c 128,-1,3
 1355.55 1240 1355.55 1240 1355.55 1006 c 0,4,5
 1355.55 771 1355.55 771 1218.3 644.5 c 128,-1,6
 1081.05 518 1081.05 518 824.55 518 c 2,7,-1
 595.95 518 l 1,8,-1
 595.95 0 l 1,9,-1
 249.45 0 l 1,10,-1
 249.45 1493 l 1,0,-1
595.95 1214 m 1,11,-1
 595.95 797 l 1,12,-1
 787.65 797 l 2,13,14
 888.45 797 888.45 797 943.35 851.5 c 128,-1,15
 998.25 906 998.25 906 998.25 1006 c 0,16,17
 998.25 1106 998.25 1106 943.35 1160 c 128,-1,18
 888.45 1214 888.45 1214 787.65 1214 c 2,19,-1
 595.95 1214 l 1,11,-1
EndSplineSet
KernsSLIFO: 351 -36 0 0 253 38 0 0 353 -36 0 0 193 -188 0 0 194 -188 0 0 8222 -415 0 0 8218 -415 0 0 255 38 0 0 8217 57 0 0 8221 38 0 0 195 -188 0 0 192 -188 0 0 230 -55 0 0 229 -55 0 0 227 -55 0 0 228 -55 0 0 226 -55 0 0 224 -55 0 0 225 -55 0 0 196 -188 0 0 121 38 0 0 115 -36 0 0 97 -55 0 0 65 -188 0 0 46 -376 0 0 45 -36 0 0 44 -376 0 0
EndChar
StartChar: Q
Encoding: 81 81 81
Width: 1653
Flags: W
Fore
906.9 -27 m 1,0,-1
 879.9 -27 l 2,1,2
 547.8 -27 547.8 -27 363.3 177 c 128,-1,3
 178.8 381 178.8 381 178.8 745 c 0,4,5
 178.8 1108 178.8 1108 362.85 1314 c 128,-1,6
 546.9 1520 546.9 1520 870 1520 c 0,7,8
 1196.7 1520 1196.7 1520 1378.95 1316 c 128,-1,9
 1561.2 1112 1561.2 1112 1561.2 745 c 0,10,11
 1561.2 493 1561.2 493 1464.45 311 c 128,-1,12
 1367.7 129 1367.7 129 1185.9 37 c 1,13,-1
 1456.8 -299 l 1,14,-1
 1126.5 -299 l 1,15,-1
 906.9 -27 l 1,0,-1
870 1241 m 0,16,17
 711.6 1241 711.6 1241 624.3 1111 c 128,-1,18
 537 981 537 981 537 745 c 0,19,20
 537 505 537 505 622.5 377.5 c 128,-1,21
 708 250 708 250 870 250 c 0,22,23
 1029.3 250 1029.3 250 1116.6 380 c 128,-1,24
 1203.9 510 1203.9 510 1203.9 745 c 0,25,26
 1203.9 981 1203.9 981 1116.6 1111 c 128,-1,27
 1029.3 1241 1029.3 1241 870 1241 c 0,16,17
EndSplineSet
KernsSLIFO: 45 38 0 0
EndChar
StartChar: R
Encoding: 82 82 82
Width: 1505
Flags: W
Fore
747.7 831 m 2,0,1
 856.6 831 856.6 831 903.85 876 c 128,-1,2
 951.1 921 951.1 921 951.1 1024 c 0,3,4
 951.1 1126 951.1 1126 903.85 1170 c 128,-1,5
 856.6 1214 856.6 1214 747.7 1214 c 2,6,-1
 601.9 1214 l 1,7,-1
 601.9 831 l 1,8,-1
 747.7 831 l 2,0,1
601.9 565 m 1,9,-1
 601.9 0 l 1,10,-1
 255.4 0 l 1,11,-1
 255.4 1493 l 1,12,-1
 784.6 1493 l 2,13,14
 1050.1 1493 1050.1 1493 1173.85 1394 c 128,-1,15
 1297.6 1295 1297.6 1295 1297.6 1081 c 0,16,17
 1297.6 933 1297.6 933 1233.25 838 c 128,-1,18
 1168.9 743 1168.9 743 1039.3 698 c 1,19,20
 1110.4 680 1110.4 680 1166.65 616.5 c 128,-1,21
 1222.9 553 1222.9 553 1280.5 424 c 2,22,-1
 1468.6 0 l 1,23,-1
 1099.6 0 l 1,24,-1
 935.8 371 l 2,25,26
 886.3 483 886.3 483 835.45 524 c 128,-1,27
 784.6 565 784.6 565 700 565 c 2,28,-1
 601.9 565 l 1,9,-1
EndSplineSet
KernsSLIFO: 356 -92 0 0 253 -92 0 0 221 -112 0 0 376 -112 0 0 255 -92 0 0 121 -92 0 0 89 -112 0 0 84 -92 0 0 46 38 0 0 44 38 0 0
EndChar
StartChar: S
Encoding: 83 83 83
Width: 1401
Flags: W
Fore
1177.9 1446 m 1,0,-1
 1177.9 1130 l 1,1,2
 1067.2 1185 1067.2 1185 961.9 1213 c 128,-1,3
 856.6 1241 856.6 1241 763 1241 c 0,4,5
 638.8 1241 638.8 1241 579.4 1203 c 128,-1,6
 520 1165 520 1165 520 1085 c 0,7,8
 520 1025 520 1025 560.05 991.5 c 128,-1,9
 600.1 958 600.1 958 705.4 934 c 2,10,-1
 853 901 l 2,11,12
 1077.1 851 1077.1 851 1171.6 749 c 128,-1,13
 1266.1 647 1266.1 647 1266.1 459 c 0,14,15
 1266.1 212 1266.1 212 1134.25 91.5 c 128,-1,16
 1002.4 -29 1002.4 -29 731.5 -29 c 0,17,18
 603.7 -29 603.7 -29 475 -2 c 128,-1,19
 346.3 25 346.3 25 217.6 78 c 1,20,-1
 217.6 403 l 1,21,22
 346.3 327 346.3 327 466.45 288.5 c 128,-1,23
 586.6 250 586.6 250 698.2 250 c 0,24,25
 811.6 250 811.6 250 871.9 292 c 128,-1,26
 932.2 334 932.2 334 932.2 412 c 0,27,28
 932.2 482 932.2 482 891.25 520 c 128,-1,29
 850.3 558 850.3 558 727.9 588 c 2,30,-1
 593.8 621 l 2,31,32
 392.2 669 392.2 669 299.05 774 c 128,-1,33
 205.9 879 205.9 879 205.9 1057 c 0,34,35
 205.9 1280 205.9 1280 335.5 1400 c 128,-1,36
 465.1 1520 465.1 1520 708.1 1520 c 0,37,38
 818.8 1520 818.8 1520 935.8 1501.5 c 128,-1,39
 1052.8 1483 1052.8 1483 1177.9 1446 c 1,0,-1
EndSplineSet
KernsSLIFO: 350 -92 0 0 352 -92 0 0 83 -92 0 0
EndChar
StartChar: T
Encoding: 84 84 84
Width: 1327
Flags: W
Fore
78.7998 1493 m 1,0,-1
 1317.2 1493 l 1,1,-1
 1317.2 1202 l 1,2,-1
 871.7 1202 l 1,3,-1
 871.7 0 l 1,4,-1
 525.2 0 l 1,5,-1
 525.2 1202 l 1,6,-1
 78.7998 1202 l 1,7,-1
 78.7998 1493 l 1,0,-1
EndSplineSet
KernsSLIFO: 252 -225 0 0 229 -264 0 0 230 -196 0 0 59 -112 0 0 242 -272 0 0 45 -301 0 0 8222 -264 0 0 367 -225 0 0 245 -272 0 0 235 -272 0 0 249 -225 0 0 58 -112 0 0 224 -264 0 0 195 -159 0 0 234 -272 0 0 231 -272 0 0 341 -225 0 0 232 -272 0 0 196 -159 0 0 193 -159 0 0 269 -272 0 0 345 -225 0 0 251 -225 0 0 253 -243 0 0 8218 -264 0 0 227 -264 0 0 194 -159 0 0 248 -159 0 0 244 -272 0 0 353 -272 0 0 65 -159 0 0 283 -272 0 0 351 -272 0 0 228 -264 0 0 119 -225 0 0 246 -272 0 0 250 -225 0 0 263 -272 0 0 225 -264 0 0 46 -311 0 0 84 47 0 0 226 -264 0 0 233 -272 0 0 97 -264 0 0 99 -272 0 0 101 -272 0 0 339 -159 0 0 255 -243 0 0 111 -272 0 0 115 -272 0 0 114 -225 0 0 117 -225 0 0 192 -159 0 0 121 -243 0 0 44 -292 0 0 243 -272 0 0
EndChar
StartChar: U
Encoding: 85 85 85
Width: 1579
Flags: W
Fore
252.35 1493 m 1,0,-1
 598.85 1493 l 1,1,-1
 598.85 598 l 2,2,3
 598.85 413 598.85 413 653.3 333.5 c 128,-1,4
 707.75 254 707.75 254 831.05 254 c 0,5,6
 955.25 254 955.25 254 1009.7 333.5 c 128,-1,7
 1064.15 413 1064.15 413 1064.15 598 c 2,8,-1
 1064.15 1493 l 1,9,-1
 1410.65 1493 l 1,10,-1
 1410.65 598 l 2,11,12
 1410.65 281 1410.65 281 1267.55 126 c 128,-1,13
 1124.45 -29 1124.45 -29 831.05 -29 c 0,14,15
 538.55 -29 538.55 -29 395.45 126 c 128,-1,16
 252.35 281 252.35 281 252.35 598 c 2,17,-1
 252.35 1493 l 1,0,-1
EndSplineSet
KernsSLIFO: 193 -63 0 0 194 -63 0 0 195 -63 0 0 192 -63 0 0 196 -63 0 0 65 -63 0 0
EndChar
StartChar: V
Encoding: 86 86 86
Width: 1505
Flags: W
Fore
88.25 1493 m 1,0,-1
 436.55 1493 l 1,1,-1
 792.95 391 l 1,2,-1
 1148.45 1493 l 1,3,-1
 1496.75 1493 l 1,4,-1
 999.05 0 l 1,5,-1
 585.95 0 l 1,6,-1
 88.25 1493 l 1,0,-1
EndSplineSet
KernsSLIFO: 367 -73 0 0 283 -112 0 0 210 -36 0 0 212 -36 0 0 211 -36 0 0 193 -139 0 0 194 -139 0 0 8222 -188 0 0 8218 -225 0 0 339 -112 0 0 338 -36 0 0 213 -36 0 0 195 -139 0 0 192 -139 0 0 248 -112 0 0 230 -112 0 0 216 -36 0 0 252 -73 0 0 251 -73 0 0 249 -73 0 0 250 -73 0 0 245 -112 0 0 246 -112 0 0 244 -112 0 0 242 -112 0 0 243 -112 0 0 235 -112 0 0 234 -112 0 0 232 -112 0 0 233 -112 0 0 229 -112 0 0 227 -112 0 0 228 -112 0 0 226 -112 0 0 224 -112 0 0 225 -112 0 0 214 -36 0 0 196 -139 0 0 117 -73 0 0 111 -112 0 0 105 -36 0 0 101 -112 0 0 97 -112 0 0 79 -36 0 0 65 -139 0 0 59 -92 0 0 58 -92 0 0 46 -264 0 0 45 -149 0 0 44 -264 0 0
EndChar
StartChar: W
Encoding: 87 87 87
Width: 2145
Flags: W
Fore
167.7 1493 m 1,0,-1
 499.8 1493 l 1,1,-1
 732 408 l 1,2,-1
 962.4 1493 l 1,3,-1
 1296.3 1493 l 1,4,-1
 1526.7 408 l 1,5,-1
 1758.9 1493 l 1,6,-1
 2088.3 1493 l 1,7,-1
 1771.5 0 l 1,8,-1
 1371.9 0 l 1,9,-1
 1128 1135 l 1,10,-1
 886.8 0 l 1,11,-1
 487.2 0 l 1,12,-1
 167.7 1493 l 1,0,-1
EndSplineSet
KernsSLIFO: 229 -73 0 0 230 -73 0 0 59 -63 0 0 242 -73 0 0 45 -92 0 0 46 -167 0 0 245 -73 0 0 235 -73 0 0 44 -167 0 0 224 -73 0 0 195 -92 0 0 234 -73 0 0 341 -36 0 0 232 -73 0 0 196 -92 0 0 193 -92 0 0 227 -73 0 0 194 -92 0 0 248 -73 0 0 244 -73 0 0 65 -92 0 0 97 -73 0 0 228 -73 0 0 246 -73 0 0 225 -73 0 0 345 -36 0 0 226 -73 0 0 233 -73 0 0 283 -73 0 0 101 -73 0 0 339 -73 0 0 111 -73 0 0 114 -36 0 0 192 -92 0 0 58 -63 0 0 243 -73 0 0
EndChar
StartChar: X
Encoding: 88 88 88
Width: 1499
Flags: W
Fore
996.85 762 m 1,0,-1
 1463.05 0 l 1,1,-1
 1102.15 0 l 1,2,-1
 788.05 510 l 1,3,-1
 476.65 0 l 1,4,-1
 113.95 0 l 1,5,-1
 580.15 762 l 1,6,-1
 131.95 1493 l 1,7,-1
 493.75 1493 l 1,8,-1
 788.05 1012 l 1,9,-1
 1081.45 1493 l 1,10,-1
 1445.05 1493 l 1,11,-1
 996.85 762 l 1,0,-1
EndSplineSet
KernsSLIFO: 283 -55 0 0 268 -73 0 0 262 -73 0 0 210 -73 0 0 212 -73 0 0 211 -73 0 0 8222 38 0 0 8218 38 0 0 338 -73 0 0 213 -73 0 0 216 -73 0 0 235 -55 0 0 234 -55 0 0 232 -55 0 0 233 -55 0 0 214 -73 0 0 199 -73 0 0 101 -55 0 0 79 -73 0 0 67 -73 0 0 45 -167 0 0
EndChar
StartChar: Y
Encoding: 89 89 89
Width: 1408
Flags: W
Fore
56.1504 1493 m 1,0,-1
 435.05 1493 l 1,1,-1
 741.05 961 l 1,2,-1
 1047.05 1493 l 1,3,-1
 1426.85 1493 l 1,4,-1
 914.75 629 l 1,5,-1
 914.75 0 l 1,6,-1
 568.25 0 l 1,7,-1
 568.25 629 l 1,8,-1
 56.1504 1493 l 1,0,-1
EndSplineSet
KernsSLIFO: 367 -149 0 0 283 -188 0 0 268 -73 0 0 262 -73 0 0 210 -73 0 0 212 -73 0 0 211 -73 0 0 193 -196 0 0 194 -196 0 0 8222 -301 0 0 8218 -376 0 0 339 -188 0 0 338 -92 0 0 213 -73 0 0 195 -196 0 0 192 -196 0 0 248 -188 0 0 230 -188 0 0 216 -36 0 0 252 -149 0 0 251 -149 0 0 249 -149 0 0 250 -149 0 0 245 -188 0 0 246 -188 0 0 244 -188 0 0 242 -188 0 0 243 -188 0 0 235 -188 0 0 234 -188 0 0 232 -188 0 0 233 -188 0 0 229 -188 0 0 227 -188 0 0 228 -188 0 0 226 -188 0 0 224 -188 0 0 225 -188 0 0 214 -73 0 0 199 -73 0 0 196 -196 0 0 117 -149 0 0 111 -188 0 0 101 -188 0 0 97 -188 0 0 79 -73 0 0 67 -73 0 0 65 -196 0 0 59 -178 0 0 58 -178 0 0 46 -339 0 0 45 -301 0 0 44 -339 0 0
EndChar
StartChar: Z
Encoding: 90 90 90
Width: 1410
Flags: W
Fore
177.75 1493 m 1,0,-1
 1307.25 1493 l 1,1,-1
 1307.25 1260 l 1,2,-1
 586.35 291 l 1,3,-1
 1327.95 291 l 1,4,-1
 1327.95 0 l 1,5,-1
 157.05 0 l 1,6,-1
 157.05 233 l 1,7,-1
 877.95 1202 l 1,8,-1
 177.75 1202 l 1,9,-1
 177.75 1493 l 1,0,-1
EndSplineSet
KernsSLIFO: 45 -36 0 0
EndChar
StartChar: bracketleft
Encoding: 91 91 91
Width: 891
Flags: W
Fore
207.05 1556 m 1,0,-1
 765.95 1556 l 1,1,-1
 765.95 1331 l 1,2,-1
 513.05 1331 l 1,3,-1
 513.05 -45 l 1,4,-1
 765.95 -45 l 1,5,-1
 765.95 -270 l 1,6,-1
 207.05 -270 l 1,7,-1
 207.05 1556 l 1,0,-1
EndSplineSet
EndChar
StartChar: backslash
Encoding: 92 92 92
Width: 710
Flags: W
Fore
510.8 -190 m 1,0,-1
 37.4004 1493 l 1,1,-1
 236.3 1493 l 1,2,-1
 710.6 -190 l 1,3,-1
 510.8 -190 l 1,0,-1
EndSplineSet
EndChar
StartChar: bracketright
Encoding: 93 93 93
Width: 887
Flags: W
Fore
728.95 -270 m 1,0,-1
 170.05 -270 l 1,1,-1
 170.05 -45 l 1,2,-1
 422.95 -45 l 1,3,-1
 422.95 1331 l 1,4,-1
 170.05 1331 l 1,5,-1
 170.05 1556 l 1,6,-1
 728.95 1556 l 1,7,-1
 728.95 -270 l 1,0,-1
EndSplineSet
EndChar
StartChar: asciicircum
Encoding: 94 94 94
Width: 1630
Flags: W
Fore
968.7 1493 m 1,0,-1
 1443.9 936 l 1,1,-1
 1227 936 l 1,2,-1
 858 1237 l 1,3,-1
 489.9 936 l 1,4,-1
 272.1 936 l 1,5,-1
 747.3 1493 l 1,6,-1
 968.7 1493 l 1,0,-1
EndSplineSet
EndChar
StartChar: underscore
Encoding: 95 95 95
Width: 972
Flags: W
Fore
972.8 -293 m 1,0,-1
 972.8 -483 l 1,1,-1
 51.2002 -483 l 1,2,-1
 51.2002 -293 l 1,3,-1
 972.8 -293 l 1,0,-1
EndSplineSet
EndChar
StartChar: grave
Encoding: 96 96 96
Width: 959
Flags: W
Fore
376.95 1638 m 1,0,-1
 630.75 1262 l 1,1,-1
 454.35 1262 l 1,2,-1
 122.25 1638 l 1,3,-1
 376.95 1638 l 1,0,-1
EndSplineSet
EndChar
StartChar: a
Encoding: 97 97 97
Width: 1309
Flags: W
Fore
672.05 504 m 2,0,1
 571.25 504 571.25 504 520.4 466 c 128,-1,2
 469.55 428 469.55 428 469.55 354 c 0,3,4
 469.55 286 469.55 286 510.5 247.5 c 128,-1,5
 551.45 209 551.45 209 624.35 209 c 0,6,7
 715.25 209 715.25 209 777.35 281.5 c 128,-1,8
 839.45 354 839.45 354 839.45 463 c 2,9,-1
 839.45 504 l 1,10,-1
 672.05 504 l 2,0,1
1164.35 639 m 2,11,-1
 1164.35 0 l 1,12,-1
 839.45 0 l 1,13,-1
 839.45 166 l 1,14,15
 774.65 64 774.65 64 693.65 17.5 c 128,-1,16
 612.65 -29 612.65 -29 496.55 -29 c 0,17,18
 339.95 -29 339.95 -29 242.3 72.5 c 128,-1,19
 144.65 174 144.65 174 144.65 336 c 0,20,21
 144.65 533 144.65 533 266.6 625 c 128,-1,22
 388.55 717 388.55 717 649.55 717 c 2,23,-1
 839.45 717 l 1,24,-1
 839.45 745 l 2,25,26
 839.45 830 839.45 830 779.15 869.5 c 128,-1,27
 718.85 909 718.85 909 591.05 909 c 0,28,29
 487.55 909 487.55 909 398.45 886 c 128,-1,30
 309.35 863 309.35 863 232.85 817 c 1,31,-1
 232.85 1090 l 1,32,33
 336.35 1118 336.35 1118 440.75 1132.5 c 128,-1,34
 545.15 1147 545.15 1147 649.55 1147 c 0,35,36
 922.25 1147 922.25 1147 1043.3 1027.5 c 128,-1,37
 1164.35 908 1164.35 908 1164.35 639 c 2,11,-1
EndSplineSet
KernsSLIFO: 253 -63 0 0 255 -63 0 0 121 -63 0 0
EndChar
StartChar: b
Encoding: 98 98 98
Width: 1396
Flags: W
Fore
768.5 231 m 0,0,1
 872 231 872 231 926.45 315 c 128,-1,2
 980.9 399 980.9 399 980.9 559 c 0,3,4
 980.9 719 980.9 719 926.45 803 c 128,-1,5
 872 887 872 887 768.5 887 c 0,6,7
 665 887 665 887 609.65 802.5 c 128,-1,8
 554.3 718 554.3 718 554.3 559 c 0,9,10
 554.3 400 554.3 400 609.65 315.5 c 128,-1,11
 665 231 665 231 768.5 231 c 0,0,1
554.3 956 m 1,12,13
 620.9 1054 620.9 1054 701.9 1100.5 c 128,-1,14
 782.9 1147 782.9 1147 888.2 1147 c 0,15,16
 1074.5 1147 1074.5 1147 1194.2 982.5 c 128,-1,17
 1313.9 818 1313.9 818 1313.9 559 c 0,18,19
 1313.9 300 1313.9 300 1194.2 135.5 c 128,-1,20
 1074.5 -29 1074.5 -29 888.2 -29 c 0,21,22
 782.9 -29 782.9 -29 701.9 17.5 c 128,-1,23
 620.9 64 620.9 64 554.3 162 c 1,24,-1
 554.3 0 l 1,25,-1
 232.1 0 l 1,26,-1
 232.1 1556 l 1,27,-1
 554.3 1556 l 1,28,-1
 554.3 956 l 1,12,13
EndSplineSet
EndChar
StartChar: c
Encoding: 99 99 99
Width: 1150
Flags: W
Fore
1027.55 1085 m 1,0,-1
 1027.55 793 l 1,1,2
 961.85 843 961.85 843 895.7 867 c 128,-1,3
 829.55 891 829.55 891 758.45 891 c 0,4,5
 623.45 891 623.45 891 548.3 803.5 c 128,-1,6
 473.15 716 473.15 716 473.15 559 c 0,7,8
 473.15 402 473.15 402 548.3 314.5 c 128,-1,9
 623.45 227 623.45 227 758.45 227 c 0,10,11
 834.05 227 834.05 227 902 252 c 128,-1,12
 969.95 277 969.95 277 1027.55 326 c 1,13,-1
 1027.55 33 l 1,14,15
 951.95 2 951.95 2 874.1 -13.5 c 128,-1,16
 796.25 -29 796.25 -29 717.95 -29 c 0,17,18
 445.25 -29 445.25 -29 291.35 126.5 c 128,-1,19
 137.45 282 137.45 282 137.45 559 c 0,20,21
 137.45 836 137.45 836 291.35 991.5 c 128,-1,22
 445.25 1147 445.25 1147 717.95 1147 c 0,23,24
 797.15 1147 797.15 1147 874.1 1131.5 c 128,-1,25
 951.05 1116 951.05 1116 1027.55 1085 c 1,0,-1
EndSplineSet
EndChar
StartChar: d
Encoding: 100 100 100
Width: 1388
Flags: W
Fore
909.9 956 m 1,0,-1
 909.9 1556 l 1,1,-1
 1233.9 1556 l 1,2,-1
 1233.9 0 l 1,3,-1
 909.9 0 l 1,4,-1
 909.9 162 l 1,5,6
 843.3 63 843.3 63 763.2 17 c 128,-1,7
 683.1 -29 683.1 -29 577.8 -29 c 0,8,9
 391.5 -29 391.5 -29 271.8 135.5 c 128,-1,10
 152.1 300 152.1 300 152.1 559 c 0,11,12
 152.1 818 152.1 818 271.8 982.5 c 128,-1,13
 391.5 1147 391.5 1147 577.8 1147 c 0,14,15
 682.2 1147 682.2 1147 762.75 1100.5 c 128,-1,16
 843.3 1054 843.3 1054 909.9 956 c 1,0,-1
697.5 231 m 0,17,18
 801 231 801 231 855.45 315 c 128,-1,19
 909.9 399 909.9 399 909.9 559 c 0,20,21
 909.9 719 909.9 719 855.45 803 c 128,-1,22
 801 887 801 887 697.5 887 c 0,23,24
 594.9 887 594.9 887 540.45 803 c 128,-1,25
 486 719 486 719 486 559 c 0,26,27
 486 399 486 399 540.45 315 c 128,-1,28
 594.9 231 594.9 231 697.5 231 c 0,17,18
EndSplineSet
EndChar
StartChar: e
Encoding: 101 101 101
Width: 1319
Flags: W
Fore
1229.9 563 m 2,0,-1
 1229.9 461 l 1,1,-1
 476.6 461 l 1,2,3
 488.3 335 488.3 335 558.5 272 c 128,-1,4
 628.7 209 628.7 209 754.7 209 c 0,5,6
 856.4 209 856.4 209 963.05 242.5 c 128,-1,7
 1069.7 276 1069.7 276 1182.2 344 c 1,8,-1
 1182.2 68 l 1,9,10
 1067.9 20 1067.9 20 953.6 -4.5 c 128,-1,11
 839.3 -29 839.3 -29 725 -29 c 0,12,13
 451.4 -29 451.4 -29 299.75 125.5 c 128,-1,14
 148.1 280 148.1 280 148.1 559 c 0,15,16
 148.1 833 148.1 833 297.05 990 c 128,-1,17
 446 1147 446 1147 707 1147 c 0,18,19
 944.6 1147 944.6 1147 1087.25 988 c 128,-1,20
 1229.9 829 1229.9 829 1229.9 563 c 2,0,-1
898.7 682 m 1,21,22
 898.7 784 898.7 784 845.15 846.5 c 128,-1,23
 791.6 909 791.6 909 705.2 909 c 0,24,25
 611.6 909 611.6 909 553.1 850.5 c 128,-1,26
 494.6 792 494.6 792 480.2 682 c 1,27,-1
 898.7 682 l 1,21,22
EndSplineSet
EndChar
StartChar: f
Encoding: 102 102 102
Width: 849
Flags: W
Fore
865.5 1556 m 1,0,-1
 865.5 1321 l 1,1,-1
 687.3 1321 l 2,2,3
 618.9 1321 618.9 1321 591.9 1293.5 c 128,-1,4
 564.9 1266 564.9 1266 564.9 1198 c 2,5,-1
 564.9 1120 l 1,6,-1
 840.3 1120 l 1,7,-1
 840.3 864 l 1,8,-1
 564.9 864 l 1,9,-1
 564.9 0 l 1,10,-1
 242.7 0 l 1,11,-1
 242.7 864 l 1,12,-1
 82.5 864 l 1,13,-1
 82.5 1120 l 1,14,-1
 242.7 1120 l 1,15,-1
 242.7 1198 l 2,16,17
 242.7 1381 242.7 1381 334.5 1468.5 c 128,-1,18
 426.3 1556 426.3 1556 618.9 1556 c 2,19,-1
 865.5 1556 l 1,0,-1
EndSplineSet
KernsSLIFO: 8217 141 0 0 8221 86 0 0 46 -112 0 0 45 -36 0 0 44 -112 0 0
EndChar
StartChar: g
Encoding: 103 103 103
Width: 1388
Flags: W
Fore
909.9 190 m 1,0,1
 843.3 92 843.3 92 763.2 46 c 128,-1,2
 683.1 0 683.1 0 577.8 0 c 0,3,4
 393.3 0 393.3 0 272.7 161.5 c 128,-1,5
 152.1 323 152.1 323 152.1 573 c 0,6,7
 152.1 824 152.1 824 272.7 984.5 c 128,-1,8
 393.3 1145 393.3 1145 577.8 1145 c 0,9,10
 683.1 1145 683.1 1145 763.2 1099 c 128,-1,11
 843.3 1053 843.3 1053 909.9 954 c 1,12,-1
 909.9 1120 l 1,13,-1
 1233.9 1120 l 1,14,-1
 1233.9 113 l 2,15,16
 1233.9 -157 1233.9 -157 1080.45 -299.5 c 128,-1,17
 927 -442 927 -442 635.4 -442 c 0,18,19
 540.9 -442 540.9 -442 452.7 -426 c 128,-1,20
 364.5 -410 364.5 -410 275.4 -377 c 1,21,-1
 275.4 -98 l 1,22,23
 360 -152 360 -152 441 -178.5 c 128,-1,24
 522 -205 522 -205 603.9 -205 c 0,25,26
 762.3 -205 762.3 -205 836.1 -128 c 128,-1,27
 909.9 -51 909.9 -51 909.9 113 c 2,28,-1
 909.9 190 l 1,0,1
697.5 887 m 0,29,30
 597.6 887 597.6 887 541.8 805 c 128,-1,31
 486 723 486 723 486 573 c 0,32,33
 486 419 486 419 540 339.5 c 128,-1,34
 594 260 594 260 697.5 260 c 0,35,36
 798.3 260 798.3 260 854.1 342 c 128,-1,37
 909.9 424 909.9 424 909.9 573 c 0,38,39
 909.9 723 909.9 723 854.1 805 c 128,-1,40
 798.3 887 798.3 887 697.5 887 c 0,29,30
EndSplineSet
EndChar
StartChar: h
Encoding: 104 104 104
Width: 1385
Flags: W
Fore
1241.7 682 m 2,0,-1
 1241.7 0 l 1,1,-1
 917.7 0 l 1,2,-1
 917.7 111 l 1,3,-1
 917.7 520 l 2,4,5
 917.7 667 917.7 667 911.85 722 c 128,-1,6
 906 777 906 777 891.6 803 c 0,7,8
 872.7 838 872.7 838 840.3 857.5 c 128,-1,9
 807.9 877 807.9 877 766.5 877 c 0,10,11
 665.7 877 665.7 877 608.1 790.5 c 128,-1,12
 550.5 704 550.5 704 550.5 551 c 2,13,-1
 550.5 0 l 1,14,-1
 228.3 0 l 1,15,-1
 228.3 1556 l 1,16,-1
 550.5 1556 l 1,17,-1
 550.5 956 l 1,18,19
 623.4 1054 623.4 1054 705.3 1100.5 c 128,-1,20
 787.2 1147 787.2 1147 886.2 1147 c 0,21,22
 1060.8 1147 1060.8 1147 1151.25 1028 c 128,-1,23
 1241.7 909 1241.7 909 1241.7 682 c 2,0,-1
EndSplineSet
EndChar
StartChar: i
Encoding: 105 105 105
Width: 666
Flags: W
Fore
189.9 1120 m 1,0,-1
 512.1 1120 l 1,1,-1
 512.1 0 l 1,2,-1
 189.9 0 l 1,3,-1
 189.9 1120 l 1,0,-1
189.9 1556 m 1,4,-1
 512.1 1556 l 1,5,-1
 512.1 1264 l 1,6,-1
 189.9 1264 l 1,7,-1
 189.9 1556 l 1,4,-1
EndSplineSet
EndChar
StartChar: j
Encoding: 106 106 106
Width: 654
Flags: W
Fore
177.9 1120 m 1,0,-1
 500.1 1120 l 1,1,-1
 500.1 20 l 2,2,3
 500.1 -205 500.1 -205 402.9 -323.5 c 128,-1,4
 305.7 -442 305.7 -442 121.2 -442 c 2,5,-1
 -38.0996 -442 l 1,6,-1
 -38.0996 -207 l 1,7,-1
 17.7002 -207 l 2,8,9
 109.5 -207 109.5 -207 143.7 -161 c 128,-1,10
 177.9 -115 177.9 -115 177.9 20 c 2,11,-1
 177.9 1120 l 1,0,-1
177.9 1556 m 1,12,-1
 500.1 1556 l 1,13,-1
 500.1 1264 l 1,14,-1
 177.9 1264 l 1,15,-1
 177.9 1556 l 1,12,-1
EndSplineSet
EndChar
StartChar: k
Encoding: 107 107 107
Width: 1304
Flags: W
Fore
233.45 1556 m 1,0,-1
 555.65 1556 l 1,1,-1
 555.65 709 l 1,2,-1
 926.45 1120 l 1,3,-1
 1300.85 1120 l 1,4,-1
 808.55 606 l 1,5,-1
 1339.55 0 l 1,6,-1
 948.95 0 l 1,7,-1
 555.65 467 l 1,8,-1
 555.65 0 l 1,9,-1
 233.45 0 l 1,10,-1
 233.45 1556 l 1,0,-1
EndSplineSet
KernsSLIFO: 283 -55 0 0 339 -55 0 0 248 -45 0 0 245 -55 0 0 246 -55 0 0 244 -55 0 0 242 -55 0 0 243 -55 0 0 235 -55 0 0 234 -55 0 0 232 -55 0 0 233 -55 0 0 111 -55 0 0 101 -55 0 0
EndChar
StartChar: l
Encoding: 108 108 108
Width: 666
Flags: W
Fore
189.9 1556 m 1,0,-1
 512.1 1556 l 1,1,-1
 512.1 0 l 1,2,-1
 189.9 0 l 1,3,-1
 189.9 1556 l 1,0,-1
EndSplineSet
EndChar
StartChar: m
Encoding: 109 109 109
Width: 2027
Flags: W
Fore
1196.1 934 m 1,0,1
 1257.3 1038 1257.3 1038 1341.45 1092.5 c 128,-1,2
 1425.6 1147 1425.6 1147 1526.4 1147 c 0,3,4
 1700.1 1147 1700.1 1147 1791 1028 c 128,-1,5
 1881.9 909 1881.9 909 1881.9 682 c 2,6,-1
 1881.9 0 l 1,7,-1
 1557.9 0 l 1,8,-1
 1557.9 584 l 1,9,10
 1558.8 597 1558.8 597 1559.25 611 c 128,-1,11
 1559.7 625 1559.7 625 1559.7 651 c 0,12,13
 1559.7 770 1559.7 770 1528.2 823.5 c 128,-1,14
 1496.7 877 1496.7 877 1426.5 877 c 0,15,16
 1334.7 877 1334.7 877 1284.75 793 c 128,-1,17
 1234.8 709 1234.8 709 1233 550 c 1,18,-1
 1233 0 l 1,19,-1
 909 0 l 1,20,-1
 909 584 l 2,21,22
 909 770 909 770 880.2 823.5 c 128,-1,23
 851.4 877 851.4 877 777.6 877 c 0,24,25
 684.9 877 684.9 877 634.5 792.5 c 128,-1,26
 584.1 708 584.1 708 584.1 551 c 2,27,-1
 584.1 0 l 1,28,-1
 260.1 0 l 1,29,-1
 260.1 1120 l 1,30,-1
 584.1 1120 l 1,31,-1
 584.1 956 l 1,32,33
 643.5 1051 643.5 1051 720.45 1099 c 128,-1,34
 797.4 1147 797.4 1147 890.1 1147 c 0,35,36
 994.5 1147 994.5 1147 1074.6 1091 c 128,-1,37
 1154.7 1035 1154.7 1035 1196.1 934 c 1,0,1
EndSplineSet
EndChar
StartChar: n
Encoding: 110 110 110
Width: 1385
Flags: W
Fore
1241.7 682 m 2,0,-1
 1241.7 0 l 1,1,-1
 917.7 0 l 1,2,-1
 917.7 111 l 1,3,-1
 917.7 522 l 2,4,5
 917.7 667 917.7 667 911.85 722 c 128,-1,6
 906 777 906 777 891.6 803 c 0,7,8
 872.7 838 872.7 838 840.3 857.5 c 128,-1,9
 807.9 877 807.9 877 766.5 877 c 0,10,11
 665.7 877 665.7 877 608.1 790.5 c 128,-1,12
 550.5 704 550.5 704 550.5 551 c 2,13,-1
 550.5 0 l 1,14,-1
 228.3 0 l 1,15,-1
 228.3 1120 l 1,16,-1
 550.5 1120 l 1,17,-1
 550.5 956 l 1,18,19
 623.4 1054 623.4 1054 705.3 1100.5 c 128,-1,20
 787.2 1147 787.2 1147 886.2 1147 c 0,21,22
 1060.8 1147 1060.8 1147 1151.25 1028 c 128,-1,23
 1241.7 909 1241.7 909 1241.7 682 c 2,0,-1
EndSplineSet
EndChar
StartChar: o
Encoding: 111 111 111
Width: 1336
Flags: W
Fore
704.85 891 m 0,0,1
 597.75 891 597.75 891 541.5 805.5 c 128,-1,2
 485.25 720 485.25 720 485.25 559 c 0,3,4
 485.25 398 485.25 398 541.5 312.5 c 128,-1,5
 597.75 227 597.75 227 704.85 227 c 0,6,7
 810.15 227 810.15 227 865.95 312.5 c 128,-1,8
 921.75 398 921.75 398 921.75 559 c 0,9,10
 921.75 720 921.75 720 865.95 805.5 c 128,-1,11
 810.15 891 810.15 891 704.85 891 c 0,0,1
704.85 1147 m 0,12,13
 964.95 1147 964.95 1147 1111.2 991 c 128,-1,14
 1257.45 835 1257.45 835 1257.45 559 c 0,15,16
 1257.45 283 1257.45 283 1111.2 127 c 128,-1,17
 964.95 -29 964.95 -29 704.85 -29 c 0,18,19
 443.85 -29 443.85 -29 296.7 127 c 128,-1,20
 149.55 283 149.55 283 149.55 559 c 0,21,22
 149.55 835 149.55 835 296.7 991 c 128,-1,23
 443.85 1147 443.85 1147 704.85 1147 c 0,12,13
EndSplineSet
EndChar
StartChar: p
Encoding: 112 112 112
Width: 1396
Flags: W
Fore
554.3 162 m 1,0,-1
 554.3 -426 l 1,1,-1
 232.1 -426 l 1,2,-1
 232.1 1120 l 1,3,-1
 554.3 1120 l 1,4,-1
 554.3 956 l 1,5,6
 620.9 1054 620.9 1054 701.9 1100.5 c 128,-1,7
 782.9 1147 782.9 1147 888.2 1147 c 0,8,9
 1074.5 1147 1074.5 1147 1194.2 982.5 c 128,-1,10
 1313.9 818 1313.9 818 1313.9 559 c 0,11,12
 1313.9 300 1313.9 300 1194.2 135.5 c 128,-1,13
 1074.5 -29 1074.5 -29 888.2 -29 c 0,14,15
 782.9 -29 782.9 -29 701.9 17.5 c 128,-1,16
 620.9 64 620.9 64 554.3 162 c 1,0,-1
768.5 887 m 0,17,18
 665 887 665 887 609.65 802.5 c 128,-1,19
 554.3 718 554.3 718 554.3 559 c 0,20,21
 554.3 400 554.3 400 609.65 315.5 c 128,-1,22
 665 231 665 231 768.5 231 c 0,23,24
 872 231 872 231 926.45 315 c 128,-1,25
 980.9 399 980.9 399 980.9 559 c 0,26,27
 980.9 719 980.9 719 926.45 803 c 128,-1,28
 872 887 872 887 768.5 887 c 0,17,18
EndSplineSet
EndChar
StartChar: q
Encoding: 113 113 113
Width: 1388
Flags: W
Fore
697.5 887 m 0,0,1
 594.9 887 594.9 887 540.45 803 c 128,-1,2
 486 719 486 719 486 559 c 0,3,4
 486 399 486 399 540.45 315 c 128,-1,5
 594.9 231 594.9 231 697.5 231 c 0,6,7
 801 231 801 231 855.45 315 c 128,-1,8
 909.9 399 909.9 399 909.9 559 c 0,9,10
 909.9 719 909.9 719 855.45 803 c 128,-1,11
 801 887 801 887 697.5 887 c 0,0,1
909.9 162 m 1,12,13
 843.3 63 843.3 63 763.2 17 c 128,-1,14
 683.1 -29 683.1 -29 577.8 -29 c 0,15,16
 391.5 -29 391.5 -29 271.8 135.5 c 128,-1,17
 152.1 300 152.1 300 152.1 559 c 0,18,19
 152.1 818 152.1 818 271.8 981.5 c 128,-1,20
 391.5 1145 391.5 1145 577.8 1145 c 0,21,22
 683.1 1145 683.1 1145 763.2 1099 c 128,-1,23
 843.3 1053 843.3 1053 909.9 954 c 1,24,-1
 909.9 1120 l 1,25,-1
 1233.9 1120 l 1,26,-1
 1233.9 -426 l 1,27,-1
 909.9 -426 l 1,28,-1
 909.9 162 l 1,12,13
EndSplineSet
EndChar
StartChar: r
Encoding: 114 114 114
Width: 967
Flags: W
Fore
962.4 815 m 1,0,1
 920.1 837 920.1 837 878.25 847.5 c 128,-1,2
 836.4 858 836.4 858 794.1 858 c 0,3,4
 669.9 858 669.9 858 602.85 769.5 c 128,-1,5
 535.8 681 535.8 681 535.8 516 c 2,6,-1
 535.8 0 l 1,7,-1
 213.6 0 l 1,8,-1
 213.6 1120 l 1,9,-1
 535.8 1120 l 1,10,-1
 535.8 936 l 1,11,12
 597.9 1046 597.9 1046 678.45 1096.5 c 128,-1,13
 759 1147 759 1147 871.5 1147 c 0,14,15
 887.7 1147 887.7 1147 906.6 1145.5 c 128,-1,16
 925.5 1144 925.5 1144 961.5 1139 c 1,17,-1
 962.4 815 l 1,0,1
EndSplineSet
KernsSLIFO: 8217 86 0 0 8221 38 0 0 46 -292 0 0 44 -301 0 0
EndChar
StartChar: s
Encoding: 115 115 115
Width: 1158
Flags: W
Fore
1003.7 1085 m 1,0,-1
 1003.7 813 l 1,1,2
 900.2 861 900.2 861 803.9 885 c 128,-1,3
 707.6 909 707.6 909 622.1 909 c 0,4,5
 530.3 909 530.3 909 485.75 883.5 c 128,-1,6
 441.2 858 441.2 858 441.2 805 c 0,7,8
 441.2 762 441.2 762 474.95 739 c 128,-1,9
 508.7 716 508.7 716 596 705 c 1,10,-1
 652.7 696 l 2,11,12
 900.2 661 900.2 661 985.7 581 c 128,-1,13
 1071.2 501 1071.2 501 1071.2 330 c 0,14,15
 1071.2 151 1071.2 151 952.4 61 c 128,-1,16
 833.6 -29 833.6 -29 597.8 -29 c 0,17,18
 497.9 -29 497.9 -29 391.25 -11.5 c 128,-1,19
 284.6 6 284.6 6 172.1 41 c 1,20,-1
 172.1 313 l 1,21,22
 268.4 261 268.4 261 369.65 235 c 128,-1,23
 470.9 209 470.9 209 575.3 209 c 0,24,25
 669.8 209 669.8 209 717.5 238 c 128,-1,26
 765.2 267 765.2 267 765.2 324 c 0,27,28
 765.2 372 765.2 372 732.35 395.5 c 128,-1,29
 699.5 419 699.5 419 601.4 432 c 2,30,-1
 544.7 440 l 2,31,32
 329.6 470 329.6 470 243.2 551 c 128,-1,33
 156.8 632 156.8 632 156.8 797 c 0,34,35
 156.8 975 156.8 975 266.6 1061 c 128,-1,36
 376.4 1147 376.4 1147 603.2 1147 c 0,37,38
 692.3 1147 692.3 1147 790.4 1132 c 128,-1,39
 888.5 1117 888.5 1117 1003.7 1085 c 1,0,-1
EndSplineSet
EndChar
StartChar: t
Encoding: 116 116 116
Width: 929
Flags: W
Fore
554.65 1438 m 1,0,-1
 554.65 1120 l 1,1,-1
 886.75 1120 l 1,2,-1
 886.75 864 l 1,3,-1
 554.65 864 l 1,4,-1
 554.65 389 l 2,5,6
 554.65 311 554.65 311 582.55 283.5 c 128,-1,7
 610.45 256 610.45 256 693.25 256 c 2,8,-1
 858.85 256 l 1,9,-1
 858.85 0 l 1,10,-1
 582.55 0 l 2,11,12
 391.75 0 391.75 0 312.1 88.5 c 128,-1,13
 232.45 177 232.45 177 232.45 389 c 2,14,-1
 232.45 864 l 1,15,-1
 72.25 864 l 1,16,-1
 72.25 1120 l 1,17,-1
 232.45 1120 l 1,18,-1
 232.45 1438 l 1,19,-1
 554.65 1438 l 1,0,-1
EndSplineSet
EndChar
StartChar: u
Encoding: 117 117 117
Width: 1384
Flags: W
Fore
216.3 436 m 2,0,-1
 216.3 1120 l 1,1,-1
 540.3 1120 l 1,2,-1
 540.3 1008 l 2,3,4
 540.3 917 540.3 917 539.4 779.5 c 128,-1,5
 538.5 642 538.5 642 538.5 596 c 0,6,7
 538.5 461 538.5 461 544.8 401.5 c 128,-1,8
 551.1 342 551.1 342 566.4 315 c 0,9,10
 586.2 280 586.2 280 618.15 261 c 128,-1,11
 650.1 242 650.1 242 691.5 242 c 0,12,13
 792.3 242 792.3 242 849.9 328 c 128,-1,14
 907.5 414 907.5 414 907.5 567 c 2,15,-1
 907.5 1120 l 1,16,-1
 1229.7 1120 l 1,17,-1
 1229.7 0 l 1,18,-1
 907.5 0 l 1,19,-1
 907.5 162 l 1,20,21
 834.6 64 834.6 64 753.15 17.5 c 128,-1,22
 671.7 -29 671.7 -29 573.6 -29 c 0,23,24
 399 -29 399 -29 307.65 90 c 128,-1,25
 216.3 209 216.3 209 216.3 436 c 2,0,-1
EndSplineSet
EndChar
StartChar: v
Encoding: 118 118 118
Width: 1268
Flags: W
Fore
94.7002 1120 m 1,0,-1
 416.9 1120 l 1,1,-1
 668 346 l 1,2,-1
 918.2 1120 l 1,3,-1
 1241.3 1120 l 1,4,-1
 844.4 0 l 1,5,-1
 490.7 0 l 1,6,-1
 94.7002 1120 l 1,0,-1
EndSplineSet
KernsSLIFO: 46 -167 0 0 44 -167 0 0
EndChar
StartChar: w
Encoding: 119 119 119
Width: 1797
Flags: W
Fore
159.45 1120 m 1,0,-1
 472.65 1120 l 1,1,-1
 641.85 348 l 1,2,-1
 811.95 1120 l 1,3,-1
 1081.05 1120 l 1,4,-1
 1250.25 356 l 1,5,-1
 1420.35 1120 l 1,6,-1
 1733.55 1120 l 1,7,-1
 1468.05 0 l 1,8,-1
 1116.15 0 l 1,9,-1
 946.05 770 l 1,10,-1
 776.85 0 l 1,11,-1
 424.95 0 l 1,12,-1
 159.45 1120 l 1,0,-1
EndSplineSet
KernsSLIFO: 46 -131 0 0 44 -131 0 0
EndChar
StartChar: x
Encoding: 120 120 120
Width: 1254
Flags: W
Fore
475.55 573 m 1,0,-1
 111.95 1120 l 1,1,-1
 453.05 1120 l 1,2,-1
 659.15 788 l 1,3,-1
 867.95 1120 l 1,4,-1
 1209.05 1120 l 1,5,-1
 845.45 575 l 1,6,-1
 1227.05 0 l 1,7,-1
 885.95 0 l 1,8,-1
 659.15 354 l 1,9,-1
 435.05 0 l 1,10,-1
 93.9502 0 l 1,11,-1
 475.55 573 l 1,0,-1
EndSplineSet
EndChar
StartChar: y
Encoding: 121 121 121
Width: 1267
Flags: W
Fore
88.6504 1120 m 1,0,-1
 410.85 1120 l 1,1,-1
 681.75 360 l 1,2,-1
 912.15 1120 l 1,3,-1
 1234.35 1120 l 1,4,-1
 810.45 -106 l 1,5,6
 746.55 -293 746.55 -293 661.5 -367.5 c 128,-1,7
 576.45 -442 576.45 -442 436.95 -442 c 2,8,-1
 250.65 -442 l 1,9,-1
 250.65 -207 l 1,10,-1
 351.45 -207 l 2,11,12
 433.35 -207 433.35 -207 470.7 -178 c 128,-1,13
 508.05 -149 508.05 -149 528.75 -74 c 1,14,-1
 537.75 -43 l 1,15,-1
 88.6504 1120 l 1,0,-1
EndSplineSet
KernsSLIFO: 46 -188 0 0 44 -159 0 0
EndChar
StartChar: z
Encoding: 122 122 122
Width: 1132
Flags: W
Fore
164.6 1120 m 1,0,-1
 1043.9 1120 l 1,1,-1
 1043.9 870 l 1,2,-1
 512.9 256 l 1,3,-1
 1043.9 256 l 1,4,-1
 1043.9 0 l 1,5,-1
 142.1 0 l 1,6,-1
 142.1 250 l 1,7,-1
 673.1 864 l 1,8,-1
 164.6 864 l 1,9,-1
 164.6 1120 l 1,0,-1
EndSplineSet
EndChar
StartChar: braceleft
Encoding: 123 123 123
Width: 1385
Flags: W
Fore
1154.7 -109 m 1,0,-1
 1154.7 -334 l 1,1,-1
 959.4 -334 l 2,2,3
 763.2 -334 763.2 -334 673.2 -246 c 128,-1,4
 583.2 -158 583.2 -158 583.2 35 c 2,5,-1
 583.2 227 l 2,6,7
 583.2 377 583.2 377 534.6 435.5 c 128,-1,8
 486 494 486 494 358.2 494 c 2,9,-1
 303.3 494 l 1,10,-1
 303.3 717 l 1,11,-1
 358.2 717 l 2,12,13
 486 717 486 717 534.6 775 c 128,-1,14
 583.2 833 583.2 833 583.2 983 c 2,15,-1
 583.2 1188 l 2,16,17
 583.2 1381 583.2 1381 673.2 1468.5 c 128,-1,18
 763.2 1556 763.2 1556 959.4 1556 c 2,19,-1
 1154.7 1556 l 1,20,-1
 1154.7 1331 l 1,21,-1
 1092.6 1331 l 2,22,23
 965.7 1331 965.7 1331 927.45 1287.5 c 128,-1,24
 889.2 1244 889.2 1244 889.2 1102 c 2,25,-1
 889.2 936 l 2,26,27
 889.2 779 889.2 779 848.7 708 c 128,-1,28
 808.2 637 808.2 637 709.2 612 c 1,29,30
 809.1 585 809.1 585 849.15 514 c 128,-1,31
 889.2 443 889.2 443 889.2 287 c 2,32,-1
 889.2 121 l 2,33,34
 889.2 -22 889.2 -22 927.45 -65.5 c 128,-1,35
 965.7 -109 965.7 -109 1092.6 -109 c 2,36,-1
 1154.7 -109 l 1,0,-1
EndSplineSet
EndChar
StartChar: bar
Encoding: 124 124 124
Width: 710
Flags: W
Fore
475.65 1565 m 1,0,-1
 475.65 -483 l 1,1,-1
 271.35 -483 l 1,2,-1
 271.35 1565 l 1,3,-1
 475.65 1565 l 1,0,-1
EndSplineSet
EndChar
StartChar: braceright
Encoding: 125 125 125
Width: 1385
Flags: W
Fore
303.3 -109 m 1,0,-1
 366.3 -109 l 2,1,2
 492.3 -109 492.3 -109 530.55 -65.5 c 128,-1,3
 568.8 -22 568.8 -22 568.8 121 c 2,4,-1
 568.8 287 l 2,5,6
 568.8 443 568.8 443 609.3 514 c 128,-1,7
 649.8 585 649.8 585 749.7 612 c 1,8,9
 649.8 637 649.8 637 609.3 708 c 128,-1,10
 568.8 779 568.8 779 568.8 936 c 2,11,-1
 568.8 1102 l 2,12,13
 568.8 1244 568.8 1244 530.55 1287.5 c 128,-1,14
 492.3 1331 492.3 1331 366.3 1331 c 2,15,-1
 303.3 1331 l 1,16,-1
 303.3 1556 l 1,17,-1
 498.6 1556 l 2,18,19
 694.8 1556 694.8 1556 784.8 1468.5 c 128,-1,20
 874.8 1381 874.8 1381 874.8 1188 c 2,21,-1
 874.8 983 l 2,22,23
 874.8 833 874.8 833 923.4 775 c 128,-1,24
 972 717 972 717 1099.8 717 c 2,25,-1
 1154.7 717 l 1,26,-1
 1154.7 494 l 1,27,-1
 1099.8 494 l 2,28,29
 972 494 972 494 923.4 435.5 c 128,-1,30
 874.8 377 874.8 377 874.8 227 c 2,31,-1
 874.8 35 l 2,32,33
 874.8 -158 874.8 -158 784.8 -246 c 128,-1,34
 694.8 -334 694.8 -334 498.6 -334 c 2,35,-1
 303.3 -334 l 1,36,-1
 303.3 -109 l 1,0,-1
EndSplineSet
EndChar
StartChar: asciitilde
Encoding: 126 126 126
Width: 1630
Flags: W
Fore
1434.9 850 m 1,0,-1
 1434.9 606 l 1,1,2
 1339.5 526 1339.5 526 1258.95 491.5 c 128,-1,3
 1178.4 457 1178.4 457 1092 457 c 0,4,5
 995.7 457 995.7 457 867 515 c 0,6,7
 854.4 521 854.4 521 847.2 524 c 0,8,9
 840.9 527 840.9 527 827.4 533 c 0,10,11
 687.9 594 687.9 594 603.3 594 c 0,12,13
 524.1 594 524.1 594 446.7 555.5 c 128,-1,14
 369.3 517 369.3 517 281.1 434 c 1,15,-1
 281.1 678 l 1,16,17
 377.4 758 377.4 758 457.5 792.5 c 128,-1,18
 537.6 827 537.6 827 624 827 c 0,19,20
 720.3 827 720.3 827 849 769 c 0,21,22
 862.5 763 862.5 763 868.8 760 c 0,23,24
 875.1 757 875.1 757 888.6 751 c 0,25,26
 1028.1 690 1028.1 690 1112.7 690 c 0,27,28
 1190.1 690 1190.1 690 1266.15 727.5 c 128,-1,29
 1342.2 765 1342.2 765 1434.9 850 c 1,0,-1
EndSplineSet
EndChar
StartChar: exclamdown
Encoding: 161 161 161
Width: 887
Flags: W
Fore
305 0 m 1,0,-1
 305 573 l 1,1,-1
 350.9 991 l 1,2,-1
 583.1 991 l 1,3,-1
 629 573 l 1,4,-1
 629 0 l 1,5,-1
 305 0 l 1,0,-1
305 1137 m 1,6,-1
 305 1493 l 1,7,-1
 629 1493 l 1,8,-1
 629 1137 l 1,9,-1
 305 1137 l 1,6,-1
EndSplineSet
EndChar
StartChar: cent
Encoding: 162 162 162
Width: 1349
Flags: W
Fore
698.55 858 m 1,0,1
 628.35 814 628.35 814 593.7 740.5 c 128,-1,2
 559.05 667 559.05 667 559.05 559 c 0,3,4
 559.05 450 559.05 450 593.7 376 c 128,-1,5
 628.35 302 628.35 302 698.55 260 c 1,6,-1
 698.55 858 l 1,0,1
1111.65 1085 m 1,7,-1
 1111.65 793 l 1,8,9
 1045.05 841 1045.05 841 980.7 866 c 128,-1,10
 916.35 891 916.35 891 857.85 891 c 2,11,-1
 844.35 891 l 1,12,-1
 844.35 228 l 1,13,14
 924.45 229 924.45 229 992.4 254 c 128,-1,15
 1060.35 279 1060.35 279 1111.65 326 c 1,16,-1
 1111.65 33 l 1,17,18
 1036.95 3 1036.95 3 971.25 -13 c 128,-1,19
 905.55 -29 905.55 -29 853.35 -29 c 2,20,-1
 844.35 -29 l 1,21,-1
 844.35 -313 l 1,22,-1
 698.55 -313 l 1,23,-1
 698.55 -25 l 1,24,25
 462.75 15 462.75 15 343.05 166 c 128,-1,26
 223.35 317 223.35 317 223.35 575 c 0,27,28
 223.35 819 223.35 819 344.85 964.5 c 128,-1,29
 466.35 1110 466.35 1110 698.55 1145 c 1,30,-1
 698.55 1432 l 1,31,-1
 844.35 1432 l 1,32,-1
 845.25 1145 l 1,33,34
 909.15 1142 909.15 1142 975.3 1127.5 c 128,-1,35
 1041.45 1113 1041.45 1113 1111.65 1085 c 1,7,-1
EndSplineSet
EndChar
StartChar: sterling
Encoding: 163 163 163
Width: 1351
Flags: W
Fore
1187.7 1466 m 1,0,-1
 1187.7 1180 l 1,1,2
 1124.7 1219 1124.7 1219 1058.1 1238 c 128,-1,3
 991.5 1257 991.5 1257 922.2 1257 c 0,4,5
 816 1257 816 1257 765.15 1194.5 c 128,-1,6
 714.3 1132 714.3 1132 714.3 1001 c 2,7,-1
 714.3 831 l 1,8,-1
 1050 831 l 1,9,-1
 1050 592 l 1,10,-1
 714.3 592 l 1,11,-1
 714.3 266 l 1,12,-1
 1198.5 266 l 1,13,-1
 1198.5 0 l 1,14,-1
 181.5 0 l 1,15,-1
 181.5 266 l 1,16,-1
 385.8 266 l 1,17,-1
 385.8 592 l 1,18,-1
 211.2 592 l 1,19,-1
 211.2 831 l 1,20,-1
 385.8 831 l 1,21,-1
 385.8 1001 l 2,22,23
 385.8 1272 385.8 1272 500.1 1396 c 128,-1,24
 614.4 1520 614.4 1520 861.9 1520 c 0,25,26
 944.7 1520 944.7 1520 1026.15 1506.5 c 128,-1,27
 1107.6 1493 1107.6 1493 1187.7 1466 c 1,0,-1
EndSplineSet
EndChar
StartChar: currency
Encoding: 164 164 164
Width: 1237
Flags: W
Fore
455.85 268 m 1,0,-1
 269.55 61 l 1,1,-1
 131.85 215 l 1,2,-1
 318.15 422 l 1,3,4
 292.95 471 292.95 471 280.35 524.5 c 128,-1,5
 267.75 578 267.75 578 267.75 641 c 0,6,7
 267.75 704 267.75 704 281.25 758 c 128,-1,8
 294.75 812 294.75 812 321.75 858 c 1,9,-1
 133.65 1063 l 1,10,-1
 271.35 1217 l 1,11,-1
 457.65 1010 l 1,12,13
 500.85 1040 500.85 1040 549.45 1054.5 c 128,-1,14
 598.05 1069 598.05 1069 652.95 1069 c 0,15,16
 701.55 1069 701.55 1069 750.15 1055.5 c 128,-1,17
 798.75 1042 798.75 1042 850.05 1014 c 1,18,-1
 1036.35 1221 l 1,19,-1
 1173.15 1067 l 1,20,-1
 986.85 860 l 1,21,22
 1012.95 805 1012.95 805 1025.55 750 c 128,-1,23
 1038.15 695 1038.15 695 1038.15 641 c 0,24,25
 1038.15 578 1038.15 578 1025.1 525.5 c 128,-1,26
 1012.05 473 1012.05 473 985.05 426 c 1,27,-1
 1171.35 219 l 1,28,-1
 1032.75 66 l 1,29,-1
 846.45 272 l 1,30,31
 805.05 242 805.05 242 757.35 227.5 c 128,-1,32
 709.65 213 709.65 213 652.95 213 c 0,33,34
 600.75 213 600.75 213 552.15 226.5 c 128,-1,35
 503.55 240 503.55 240 455.85 268 c 1,0,-1
652.95 422 m 0,36,37
 734.85 422 734.85 422 792.45 485.5 c 128,-1,38
 850.05 549 850.05 549 850.05 641 c 0,39,40
 850.05 733 850.05 733 792.9 796.5 c 128,-1,41
 735.75 860 735.75 860 652.95 860 c 0,42,43
 571.05 860 571.05 860 513.45 796.5 c 128,-1,44
 455.85 733 455.85 733 455.85 641 c 0,45,46
 455.85 548 455.85 548 512.55 485 c 128,-1,47
 569.25 422 569.25 422 652.95 422 c 0,36,37
EndSplineSet
EndChar
StartChar: yen
Encoding: 165 165 165
Width: 1353
Flags: W
Fore
1293.5 416 m 1,0,-1
 884 416 l 1,1,-1
 884 0 l 1,2,-1
 541.1 0 l 1,3,-1
 541.1 416 l 1,4,-1
 132.5 416 l 1,5,-1
 132.5 610 l 1,6,-1
 541.1 610 l 1,7,-1
 541.1 676 l 1,8,-1
 497 762 l 1,9,-1
 132.5 762 l 1,10,-1
 132.5 954 l 1,11,-1
 395.3 954 l 1,12,-1
 93.7998 1493 l 1,13,-1
 452.9 1493 l 1,14,-1
 713 1032 l 1,15,-1
 972.2 1493 l 1,16,-1
 1332.2 1493 l 1,17,-1
 1029.8 954 l 1,18,-1
 1293.5 954 l 1,19,-1
 1293.5 762 l 1,20,-1
 928.1 762 l 1,21,-1
 884 676 l 1,22,-1
 884 610 l 1,23,-1
 1293.5 610 l 1,24,-1
 1293.5 416 l 1,0,-1
EndSplineSet
EndChar
StartChar: brokenbar
Encoding: 166 166 166
Width: 710
Flags: W
Fore
475.65 1432 m 1,0,-1
 475.65 674 l 1,1,-1
 271.35 674 l 1,2,-1
 271.35 1432 l 1,3,-1
 475.65 1432 l 1,0,-1
475.65 408 m 1,4,-1
 475.65 -350 l 1,5,-1
 271.35 -350 l 1,6,-1
 271.35 408 l 1,7,-1
 475.65 408 l 1,4,-1
EndSplineSet
EndChar
StartChar: section
Encoding: 167 167 167
Width: 973
Flags: W
Fore
848 1462 m 1,0,-1
 848 1235 l 1,1,2
 758.9 1274 758.9 1274 687.8 1293.5 c 128,-1,3
 616.7 1313 616.7 1313 565.4 1313 c 0,4,5
 497.9 1313 497.9 1313 463.7 1288.5 c 128,-1,6
 429.5 1264 429.5 1264 429.5 1217 c 0,7,8
 429.5 1150 429.5 1150 598.7 1071 c 0,9,10
 622.1 1060 622.1 1060 633.8 1055 c 0,11,12
 822.8 966 822.8 966 894.35 879.5 c 128,-1,13
 965.9 793 965.9 793 965.9 668 c 0,14,15
 965.9 551 965.9 551 915.05 471.5 c 128,-1,16
 864.2 392 864.2 392 758.9 344 c 1,17,18
 828.2 303 828.2 303 861.95 246.5 c 128,-1,19
 895.7 190 895.7 190 895.7 117 c 0,20,21
 895.7 -28 895.7 -28 786.8 -111.5 c 128,-1,22
 677.9 -195 677.9 -195 486.2 -195 c 0,23,24
 409.7 -195 409.7 -195 328.25 -180.5 c 128,-1,25
 246.8 -166 246.8 -166 155 -137 c 1,26,-1
 155 100 l 1,27,28
 258.5 59 258.5 59 340.4 37.5 c 128,-1,29
 422.3 16 422.3 16 473.6 16 c 0,30,31
 532.1 16 532.1 16 567.2 41 c 128,-1,32
 602.3 66 602.3 66 602.3 106 c 0,33,34
 602.3 176 602.3 176 440.3 250 c 0,35,36
 407.9 264 407.9 264 390.8 272 c 0,37,38
 208.1 359 208.1 359 136.1 448.5 c 128,-1,39
 64.0996 538 64.0996 538 64.0996 668 c 0,40,41
 64.0996 772 64.0996 772 114.05 849 c 128,-1,42
 164 926 164 926 265.7 977 c 1,43,44
 198.2 1028 198.2 1028 168.95 1083.5 c 128,-1,45
 139.7 1139 139.7 1139 139.7 1214 c 0,46,47
 139.7 1358 139.7 1358 242.75 1439 c 128,-1,48
 345.8 1520 345.8 1520 526.7 1520 c 0,49,50
 602.3 1520 602.3 1520 683.3 1505.5 c 128,-1,51
 764.3 1491 764.3 1491 848 1462 c 1,0,-1
442.1 856 m 1,52,53
 380.9 828 380.9 828 350.75 790 c 128,-1,54
 320.6 752 320.6 752 320.6 702 c 0,55,56
 320.6 635 320.6 635 375.95 586 c 128,-1,57
 431.3 537 431.3 537 595.1 471 c 1,58,59
 653.6 494 653.6 494 685.1 533.5 c 128,-1,60
 716.6 573 716.6 573 716.6 625 c 0,61,62
 716.6 692 716.6 692 654.5 745 c 128,-1,63
 592.4 798 592.4 798 442.1 856 c 1,52,53
EndSplineSet
EndChar
StartChar: dieresis
Encoding: 168 168 168
Width: 972
Flags: W
Fore
228.5 1585 m 1,0,-1
 440 1585 l 1,1,-1
 440 1339 l 1,2,-1
 228.5 1339 l 1,3,-1
 228.5 1585 l 1,0,-1
584 1585 m 1,4,-1
 795.5 1585 l 1,5,-1
 795.5 1339 l 1,6,-1
 584 1339 l 1,7,-1
 584 1585 l 1,4,-1
EndSplineSet
Ligature: 0 1 'liga' space uni0308
EndChar
StartChar: copyright
Encoding: 169 169 169
Width: 1945
Flags: W
Fore
1293.1 1126 m 1,0,-1
 1293.1 911 l 1,1,2
 1241.8 948 1241.8 948 1191.85 965.5 c 128,-1,3
 1141.9 983 1141.9 983 1090.6 983 c 0,4,5
 988.9 983 988.9 983 931.75 919 c 128,-1,6
 874.6 855 874.6 855 874.6 741 c 0,7,8
 874.6 626 874.6 626 931.3 563 c 128,-1,9
 988 500 988 500 1090.6 500 c 0,10,11
 1148.2 500 1148.2 500 1199.95 518 c 128,-1,12
 1251.7 536 1251.7 536 1293.1 571 c 1,13,-1
 1293.1 358 l 1,14,15
 1234.6 336 1234.6 336 1175.65 324.5 c 128,-1,16
 1116.7 313 1116.7 313 1060.9 313 c 0,17,18
 871 313 871 313 756.7 430 c 128,-1,19
 642.4 547 642.4 547 642.4 741 c 0,20,21
 642.4 936 642.4 936 756.7 1052.5 c 128,-1,22
 871 1169 871 1169 1060.9 1169 c 0,23,24
 1123 1169 1123 1169 1180.6 1158.5 c 128,-1,25
 1238.2 1148 1238.2 1148 1293.1 1126 c 1,0,-1
1024 1331 m 0,26,27
 915.1 1331 915.1 1331 821.5 1287.5 c 128,-1,28
 727.9 1244 727.9 1244 649.6 1157 c 0,29,30
 571.3 1070 571.3 1070 532.15 966.5 c 128,-1,31
 493 863 493 863 493 741 c 0,32,33
 493 620 493 620 532.15 516.5 c 128,-1,34
 571.3 413 571.3 413 649.6 326 c 0,35,36
 727 240 727 240 821.05 197 c 128,-1,37
 915.1 154 915.1 154 1024 154 c 0,38,39
 1134.7 154 1134.7 154 1227.4 196.5 c 128,-1,40
 1320.1 239 1320.1 239 1398.4 326 c 0,41,42
 1476.7 413 1476.7 413 1515.85 516.5 c 128,-1,43
 1555 620 1555 620 1555 741 c 0,44,45
 1555 863 1555 863 1515.85 966.5 c 128,-1,46
 1476.7 1070 1476.7 1070 1398.4 1157 c 0,47,48
 1319.2 1245 1319.2 1245 1226.05 1288 c 128,-1,49
 1132.9 1331 1132.9 1331 1024 1331 c 0,26,27
1024 1485 m 0,50,51
 1160.8 1485 1160.8 1485 1279.15 1430 c 128,-1,52
 1397.5 1375 1397.5 1375 1495.6 1266 c 0,53,54
 1593.7 1157 1593.7 1157 1642.3 1026 c 128,-1,55
 1690.9 895 1690.9 895 1690.9 741 c 0,56,57
 1690.9 589 1690.9 589 1642.3 458.5 c 128,-1,58
 1593.7 328 1593.7 328 1495.6 219 c 0,59,60
 1397.5 110 1397.5 110 1279.15 55 c 128,-1,61
 1160.8 0 1160.8 0 1024 0 c 0,62,63
 887.2 0 887.2 0 768.85 55 c 128,-1,64
 650.5 110 650.5 110 552.4 219 c 0,65,66
 454.3 328 454.3 328 405.7 458.5 c 128,-1,67
 357.1 589 357.1 589 357.1 741 c 0,68,69
 357.1 895 357.1 895 405.7 1026 c 128,-1,70
 454.3 1157 454.3 1157 552.4 1266 c 0,71,72
 650.5 1375 650.5 1375 768.85 1430 c 128,-1,73
 887.2 1485 887.2 1485 1024 1485 c 0,50,51
EndSplineSet
EndChar
StartChar: ordfeminine
Encoding: 170 170 170
Width: 1097
Flags: W
Fore
216.35 573 m 1,0,-1
 948.05 573 l 1,1,-1
 948.05 373 l 1,2,-1
 216.35 373 l 1,3,-1
 216.35 573 l 1,0,-1
636.65 1081 m 2,4,5
 516.95 1081 516.95 1081 470.15 1055 c 128,-1,6
 423.35 1029 423.35 1029 423.35 967 c 0,7,8
 423.35 916 423.35 916 453.05 887 c 128,-1,9
 482.75 858 482.75 858 534.95 858 c 0,10,11
 615.05 858 615.05 858 666.35 915 c 128,-1,12
 717.65 972 717.65 972 717.65 1059 c 2,13,-1
 717.65 1081 l 1,14,-1
 636.65 1081 l 2,4,5
958.85 1165 m 2,15,-1
 958.85 717 l 1,16,-1
 738.35 717 l 1,17,-1
 738.35 844 l 1,18,19
 688.85 768 688.85 768 625.85 732 c 128,-1,20
 562.85 696 562.85 696 478.25 696 c 0,21,22
 347.75 696 347.75 696 273.95 763 c 128,-1,23
 200.15 830 200.15 830 200.15 946 c 0,24,25
 200.15 1087 200.15 1087 294.65 1153 c 128,-1,26
 389.15 1219 389.15 1219 592.55 1219 c 2,27,-1
 715.85 1219 l 1,28,-1
 715.85 1239 l 2,29,30
 715.85 1295 715.85 1295 675.8 1324.5 c 128,-1,31
 635.75 1354 635.75 1354 559.25 1354 c 0,32,33
 480.95 1354 480.95 1354 406.25 1336.5 c 128,-1,34
 331.55 1319 331.55 1319 260.45 1284 c 1,35,-1
 260.45 1464 l 1,36,37
 343.25 1492 343.25 1492 419.3 1506 c 128,-1,38
 495.35 1520 495.35 1520 562.85 1520 c 0,39,40
 764.45 1520 764.45 1520 861.65 1432.5 c 128,-1,41
 958.85 1345 958.85 1345 958.85 1165 c 2,15,-1
EndSplineSet
EndChar
StartChar: guillemotleft
Encoding: 171 171 171
Width: 1255
Flags: W
Fore
650.3 1063 m 1,0,-1
 650.3 821 l 1,1,-1
 386.6 600 l 1,2,-1
 650.3 379 l 1,3,-1
 650.3 137 l 1,4,-1
 206.6 506 l 1,5,-1
 206.6 692 l 1,6,-1
 650.3 1063 l 1,0,-1
1081.4 1063 m 1,7,-1
 1081.4 821 l 1,8,-1
 818.6 600 l 1,9,-1
 1081.4 379 l 1,10,-1
 1081.4 137 l 1,11,-1
 637.7 506 l 1,12,-1
 637.7 692 l 1,13,-1
 1081.4 1063 l 1,7,-1
EndSplineSet
EndChar
StartChar: logicalnot
Encoding: 172 172 172
Width: 1630
Flags: W
Fore
281.1 909 m 1,0,-1
 1434.9 909 l 1,1,-1
 1434.9 287 l 1,2,-1
 1223.4 287 l 1,3,-1
 1223.4 672 l 1,4,-1
 281.1 672 l 1,5,-1
 281.1 909 l 1,0,-1
EndSplineSet
EndChar
StartChar: sfthyphen
Encoding: 173 173 173
Width: 807
Flags: W
Fore
142.4 735 m 1,0,-1
 707.6 735 l 1,1,-1
 707.6 444 l 1,2,-1
 142.4 444 l 1,3,-1
 142.4 735 l 1,0,-1
EndSplineSet
EndChar
StartChar: registered
Encoding: 174 174 174
Width: 1945
Flags: W
Fore
1024 1331 m 0,0,1
 915.1 1331 915.1 1331 821.5 1287.5 c 128,-1,2
 727.9 1244 727.9 1244 649.6 1157 c 0,3,4
 571.3 1070 571.3 1070 532.15 966.5 c 128,-1,5
 493 863 493 863 493 741 c 0,6,7
 493 620 493 620 532.15 516.5 c 128,-1,8
 571.3 413 571.3 413 649.6 326 c 0,9,10
 727 240 727 240 821.05 197 c 128,-1,11
 915.1 154 915.1 154 1024 154 c 0,12,13
 1134.7 154 1134.7 154 1227.4 196.5 c 128,-1,14
 1320.1 239 1320.1 239 1398.4 326 c 0,15,16
 1476.7 413 1476.7 413 1515.85 516.5 c 128,-1,17
 1555 620 1555 620 1555 741 c 0,18,19
 1555 863 1555 863 1515.85 966.5 c 128,-1,20
 1476.7 1070 1476.7 1070 1398.4 1157 c 0,21,22
 1319.2 1245 1319.2 1245 1226.05 1288 c 128,-1,23
 1132.9 1331 1132.9 1331 1024 1331 c 0,0,1
972.7 1036 m 2,24,-1
 941.2 1036 l 1,25,-1
 941.2 829 l 1,26,-1
 972.7 829 l 2,27,28
 1042.9 829 1042.9 829 1078.45 855.5 c 128,-1,29
 1114 882 1114 882 1114 934 c 0,30,31
 1114 986 1114 986 1079.35 1011 c 128,-1,32
 1044.7 1036 1044.7 1036 972.7 1036 c 2,24,-1
1006 1174 m 2,33,34
 1164.4 1174 1164.4 1174 1242.7 1114.5 c 128,-1,35
 1321 1055 1321 1055 1321 934 c 0,36,37
 1321 848 1321 848 1273.75 792 c 128,-1,38
 1226.5 736 1226.5 736 1140.1 719 c 1,39,40
 1177 697 1177 697 1208.95 657 c 128,-1,41
 1240.9 617 1240.9 617 1267 559 c 2,42,-1
 1366.9 338 l 1,43,-1
 1160.8 338 l 1,44,-1
 1064.5 551 l 1,45,46
 1030.3 629 1030.3 629 1004.2 661.5 c 128,-1,47
 978.1 694 978.1 694 952 694 c 2,48,-1
 941.2 694 l 1,49,-1
 941.2 338 l 1,50,-1
 749.5 338 l 1,51,-1
 749.5 1174 l 1,52,-1
 1006 1174 l 2,33,34
1024 1485 m 0,53,54
 1160.8 1485 1160.8 1485 1279.15 1430 c 128,-1,55
 1397.5 1375 1397.5 1375 1495.6 1266 c 0,56,57
 1593.7 1157 1593.7 1157 1642.3 1026 c 128,-1,58
 1690.9 895 1690.9 895 1690.9 741 c 0,59,60
 1690.9 589 1690.9 589 1642.3 458.5 c 128,-1,61
 1593.7 328 1593.7 328 1495.6 219 c 0,62,63
 1397.5 110 1397.5 110 1279.15 55 c 128,-1,64
 1160.8 0 1160.8 0 1024 0 c 0,65,66
 887.2 0 887.2 0 768.85 55 c 128,-1,67
 650.5 110 650.5 110 552.4 219 c 0,68,69
 454.3 328 454.3 328 405.7 458.5 c 128,-1,70
 357.1 589 357.1 589 357.1 741 c 0,71,72
 357.1 895 357.1 895 405.7 1026 c 128,-1,73
 454.3 1157 454.3 1157 552.4 1266 c 0,74,75
 650.5 1375 650.5 1375 768.85 1430 c 128,-1,76
 887.2 1485 887.2 1485 1024 1485 c 0,53,54
EndSplineSet
EndChar
StartChar: macron
Encoding: 175 175 175
Width: 972
Flags: W
Fore
228.5 1556 m 1,0,-1
 795.5 1556 l 1,1,-1
 795.5 1368 l 1,2,-1
 228.5 1368 l 1,3,-1
 228.5 1556 l 1,0,-1
EndSplineSet
Ligature: 0 1 'liga' space uni0304
EndChar
StartChar: degree
Encoding: 176 176 176
Width: 972
Flags: W
Fore
511.9 1372 m 0,0,1
 447.1 1372 447.1 1372 402.1 1322 c 128,-1,2
 357.1 1272 357.1 1272 357.1 1200 c 0,3,4
 357.1 1128 357.1 1128 401.65 1079 c 128,-1,5
 446.2 1030 446.2 1030 511.9 1030 c 0,6,7
 576.7 1030 576.7 1030 621.7 1079.5 c 128,-1,8
 666.7 1129 666.7 1129 666.7 1200 c 0,9,10
 666.7 1272 666.7 1272 621.25 1322 c 128,-1,11
 575.8 1372 575.8 1372 511.9 1372 c 0,0,1
511.9 1534 m 0,12,13
 571.3 1534 571.3 1534 626.2 1508.5 c 128,-1,14
 681.1 1483 681.1 1483 724.3 1436 c 1,15,16
 766.6 1388 766.6 1388 788.65 1328 c 128,-1,17
 810.7 1268 810.7 1268 810.7 1200 c 0,18,19
 810.7 1133 810.7 1133 788.65 1072.5 c 128,-1,20
 766.6 1012 766.6 1012 726.1 967 c 0,21,22
 682.9 919 682.9 919 627.1 893.5 c 128,-1,23
 571.3 868 571.3 868 510.1 868 c 0,24,25
 383.2 868 383.2 868 297.25 963.5 c 128,-1,26
 211.3 1059 211.3 1059 211.3 1200 c 0,27,28
 211.3 1341 211.3 1341 298.15 1437.5 c 128,-1,29
 385 1534 385 1534 511.9 1534 c 0,12,13
EndSplineSet
EndChar
StartChar: plusminus
Encoding: 177 177 177
Width: 1630
Flags: W
Fore
965.1 1284 m 1,0,-1
 965.1 930 l 1,1,-1
 1434.9 930 l 1,2,-1
 1434.9 694 l 1,3,-1
 965.1 694 l 1,4,-1
 965.1 340 l 1,5,-1
 750.9 340 l 1,6,-1
 750.9 694 l 1,7,-1
 281.1 694 l 1,8,-1
 281.1 930 l 1,9,-1
 750.9 930 l 1,10,-1
 750.9 1284 l 1,11,-1
 965.1 1284 l 1,0,-1
281.1 238 m 1,12,-1
 1434.9 238 l 1,13,-1
 1434.9 0 l 1,14,-1
 281.1 0 l 1,15,-1
 281.1 238 l 1,12,-1
EndSplineSet
EndChar
StartChar: twosuperior
Encoding: 178 178 178
Width: 851
Flags: W
Fore
415.35 836 m 1,0,-1
 748.35 836 l 1,1,-1
 748.35 668 l 1,2,-1
 142.65 668 l 1,3,-1
 142.65 821 l 1,4,-1
 424.35 1087 l 2,5,6
 479.25 1140 479.25 1140 502.65 1180 c 128,-1,7
 526.05 1220 526.05 1220 526.05 1260 c 0,8,9
 526.05 1310 526.05 1310 493.2 1341 c 128,-1,10
 460.35 1372 460.35 1372 407.25 1372 c 0,11,12
 351.45 1372 351.45 1372 287.55 1349.5 c 128,-1,13
 223.65 1327 223.65 1327 148.05 1280 c 1,14,-1
 148.05 1466 l 1,15,16
 226.35 1493 226.35 1493 299.7 1506.5 c 128,-1,17
 373.05 1520 373.05 1520 440.55 1520 c 0,18,19
 582.75 1520 582.75 1520 663.75 1455.5 c 128,-1,20
 744.75 1391 744.75 1391 744.75 1280 c 0,21,22
 744.75 1208 744.75 1208 712.8 1147.5 c 128,-1,23
 680.85 1087 680.85 1087 589.95 1001 c 2,24,-1
 415.35 836 l 1,0,-1
EndSplineSet
EndChar
StartChar: threesuperior
Encoding: 179 179 179
Width: 851
Flags: W
Fore
576.6 1120 m 1,0,1
 659.4 1102 659.4 1102 705.3 1047 c 128,-1,2
 751.2 992 751.2 992 751.2 911 c 0,3,4
 751.2 782 751.2 782 662.1 717.5 c 128,-1,5
 573 653 573 653 392.1 653 c 0,6,7
 319.2 653 319.2 653 252.6 664.5 c 128,-1,8
 186 676 186 676 124.8 698 c 1,9,-1
 124.8 872 l 1,10,11
 184.2 836 184.2 836 241.8 817.5 c 128,-1,12
 299.4 799 299.4 799 353.4 799 c 0,13,14
 438.9 799 438.9 799 485.7 831 c 128,-1,15
 532.5 863 532.5 863 532.5 922 c 0,16,17
 532.5 986 532.5 986 484.35 1016.5 c 128,-1,18
 436.2 1047 436.2 1047 333.6 1047 c 2,19,-1
 267 1047 l 1,20,-1
 267 1184 l 1,21,-1
 342.6 1184 l 2,22,23
 430.8 1184 430.8 1184 471.3 1207.5 c 128,-1,24
 511.8 1231 511.8 1231 511.8 1282 c 0,25,26
 511.8 1327 511.8 1327 476.7 1349.5 c 128,-1,27
 441.6 1372 441.6 1372 369.6 1372 c 0,28,29
 322.8 1372 322.8 1372 267.45 1359 c 128,-1,30
 212.1 1346 212.1 1346 149.1 1319 c 1,31,-1
 149.1 1485 l 1,32,33
 207.6 1502 207.6 1502 275.55 1511 c 128,-1,34
 343.5 1520 343.5 1520 421.8 1520 c 0,35,36
 572.1 1520 572.1 1520 651.75 1464 c 128,-1,37
 731.4 1408 731.4 1408 731.4 1303 c 0,38,39
 731.4 1234 731.4 1234 690.9 1186 c 128,-1,40
 650.4 1138 650.4 1138 576.6 1120 c 1,0,1
EndSplineSet
EndChar
StartChar: acute
Encoding: 180 180 180
Width: 986
Flags: W
Fore
647.05 1638 m 1,0,-1
 901.75 1638 l 1,1,-1
 569.65 1262 l 1,2,-1
 393.25 1262 l 1,3,-1
 647.05 1638 l 1,0,-1
EndSplineSet
LCarets: 0 65535 '    ' 1 0 
Ligature: 0 1 'liga' space acutecomb
EndChar
StartChar: mu
Encoding: 181 181 181
Width: 1437
Flags: W
Fore
237.4 -428 m 1,0,-1
 237.4 1120 l 1,1,-1
 562.3 1120 l 1,2,-1
 562.3 469 l 2,3,4
 562.3 353 562.3 353 607.3 296.5 c 128,-1,5
 652.3 240 652.3 240 744.1 240 c 0,6,7
 836.8 240 836.8 240 881.8 296.5 c 128,-1,8
 926.8 353 926.8 353 926.8 469 c 2,9,-1
 926.8 1120 l 1,10,-1
 1250.8 1120 l 1,11,-1
 1250.8 371 l 2,12,13
 1250.8 300 1250.8 300 1265.65 272 c 128,-1,14
 1280.5 244 1280.5 244 1315.6 244 c 0,15,16
 1331.8 244 1331.8 244 1346.65 249 c 128,-1,17
 1361.5 254 1361.5 254 1378.6 266 c 1,18,-1
 1378.6 16 l 1,19,20
 1330.9 -7 1330.9 -7 1289.05 -18 c 128,-1,21
 1247.2 -29 1247.2 -29 1206.7 -29 c 0,22,23
 1126.6 -29 1126.6 -29 1075.75 8.5 c 128,-1,24
 1024.9 46 1024.9 46 993.4 129 c 1,25,26
 951.1 50 951.1 50 890.35 10.5 c 128,-1,27
 829.6 -29 829.6 -29 749.5 -29 c 0,28,29
 682.9 -29 682.9 -29 636.1 -5.5 c 128,-1,30
 589.3 18 589.3 18 562.3 66 c 1,31,-1
 562.3 -428 l 1,32,-1
 237.4 -428 l 1,0,-1
EndSplineSet
EndChar
StartChar: paragraph
Encoding: 182 182 182
Width: 1235
Flags: W
Fore
606.25 1493 m 2,0,-1
 1074.25 1493 l 1,1,-1
 1074.25 -197 l 1,2,-1
 903.25 -197 l 1,3,-1
 903.25 1346 l 1,4,-1
 733.15 1346 l 1,5,-1
 733.15 -197 l 1,6,-1
 562.15 -197 l 1,7,-1
 562.15 649 l 1,8,9
 378.55 674 378.55 674 278.65 783.5 c 128,-1,10
 178.75 893 178.75 893 178.75 1071 c 0,11,12
 178.75 1261 178.75 1261 295.75 1377 c 128,-1,13
 412.75 1493 412.75 1493 606.25 1493 c 2,0,-1
EndSplineSet
EndChar
StartChar: periodcentered
Encoding: 183 183 183
Width: 739
Flags: W
Fore
227 905 m 1,0,-1
 551 905 l 1,1,-1
 551 518 l 1,2,-1
 227 518 l 1,3,-1
 227 905 l 1,0,-1
EndSplineSet
EndChar
StartChar: cedilla
Encoding: 184 184 184
Width: 970
Flags: W
Fore
590.65 0 m 1,0,1
 642.85 -62 642.85 -62 667.6 -115 c 128,-1,2
 692.35 -168 692.35 -168 692.35 -215 c 0,3,4
 692.35 -310 692.35 -310 637 -355.5 c 128,-1,5
 581.65 -401 581.65 -401 467.35 -401 c 0,6,7
 424.15 -401 424.15 -401 378.25 -394.5 c 128,-1,8
 332.35 -388 332.35 -388 285.55 -375 c 1,9,-1
 284.65 -223 l 1,10,11
 329.65 -239 329.65 -239 367 -246.5 c 128,-1,12
 404.35 -254 404.35 -254 434.05 -254 c 0,13,14
 486.25 -254 486.25 -254 515.5 -231 c 128,-1,15
 544.75 -208 544.75 -208 544.75 -168 c 0,16,17
 544.75 -142 544.75 -142 525.4 -101 c 128,-1,18
 506.05 -60 506.05 -60 465.55 0 c 1,19,-1
 590.65 0 l 1,0,1
EndSplineSet
Ligature: 0 1 'liga' space uni0327
EndChar
StartChar: onesuperior
Encoding: 185 185 185
Width: 852
Flags: W
Fore
172.15 825 m 1,0,-1
 358.45 825 l 1,1,-1
 358.45 1346 l 1,2,-1
 155.95 1294 l 1,3,-1
 155.95 1454 l 1,4,-1
 362.05 1503 l 1,5,-1
 565.45 1503 l 1,6,-1
 565.45 825 l 1,7,-1
 749.05 825 l 1,8,-1
 749.05 668 l 1,9,-1
 172.15 668 l 1,10,-1
 172.15 825 l 1,0,-1
EndSplineSet
EndChar
StartChar: ordmasculine
Encoding: 186 186 186
Width: 1097
Flags: W
Fore
577.95 1520 m 0,0,1
 769.65 1520 769.65 1520 880.8 1409 c 128,-1,2
 991.95 1298 991.95 1298 991.95 1108 c 0,3,4
 991.95 918 991.95 918 881.25 808 c 128,-1,5
 770.55 698 770.55 698 577.95 698 c 0,6,7
 385.35 698 385.35 698 274.2 808 c 128,-1,8
 163.05 918 163.05 918 163.05 1108 c 0,9,10
 163.05 1298 163.05 1298 274.2 1409 c 128,-1,11
 385.35 1520 385.35 1520 577.95 1520 c 0,0,1
207.15 573 m 1,12,-1
 947.85 573 l 1,13,-1
 947.85 373 l 1,14,-1
 207.15 373 l 1,15,-1
 207.15 573 l 1,12,-1
577.95 1350 m 0,16,17
 502.35 1350 502.35 1350 461.4 1287 c 128,-1,18
 420.45 1224 420.45 1224 420.45 1108 c 0,19,20
 420.45 992 420.45 992 461.4 930 c 128,-1,21
 502.35 868 502.35 868 577.95 868 c 0,22,23
 652.65 868 652.65 868 693.6 930 c 128,-1,24
 734.55 992 734.55 992 734.55 1108 c 0,25,26
 734.55 1224 734.55 1224 693.6 1287 c 128,-1,27
 652.65 1350 652.65 1350 577.95 1350 c 0,16,17
EndSplineSet
EndChar
StartChar: guillemotright
Encoding: 187 187 187
Width: 1258
Flags: W
Fore
672.7 1063 m 1,0,-1
 1116.4 692 l 1,1,-1
 1116.4 506 l 1,2,-1
 672.7 137 l 1,3,-1
 672.7 379 l 1,4,-1
 936.4 600 l 1,5,-1
 672.7 821 l 1,6,-1
 672.7 1063 l 1,0,-1
241.6 1063 m 1,7,-1
 683.5 692 l 1,8,-1
 683.5 506 l 1,9,-1
 241.6 137 l 1,10,-1
 241.6 379 l 1,11,-1
 504.4 600 l 1,12,-1
 241.6 821 l 1,13,-1
 241.6 1063 l 1,7,-1
EndSplineSet
EndChar
StartChar: onequarter
Encoding: 188 188 188
Width: 2011
Flags: W
Fore
1536.7 641 m 1,0,-1
 1321.6 317 l 1,1,-1
 1536.7 317 l 1,2,-1
 1536.7 641 l 1,0,-1
1520.5 836 m 1,3,-1
 1743.7 836 l 1,4,-1
 1743.7 317 l 1,5,-1
 1867 317 l 1,6,-1
 1867 162 l 1,7,-1
 1743.7 162 l 1,8,-1
 1743.7 0 l 1,9,-1
 1536.7 0 l 1,10,-1
 1536.7 162 l 1,11,-1
 1184.8 162 l 1,12,-1
 1184.8 330 l 1,13,-1
 1520.5 836 l 1,3,-1
762.7 -29 m 1,14,-1
 562 -29 l 1,15,-1
 1402.6 1520 l 1,16,-1
 1603.3 1520 l 1,17,-1
 762.7 -29 l 1,14,-1
210.1 825 m 1,18,-1
 394.6 825 l 1,19,-1
 394.6 1346 l 1,20,-1
 193 1294 l 1,21,-1
 193 1454 l 1,22,-1
 400 1503 l 1,23,-1
 600.7 1503 l 1,24,-1
 600.7 825 l 1,25,-1
 785.2 825 l 1,26,-1
 785.2 668 l 1,27,-1
 210.1 668 l 1,28,-1
 210.1 825 l 1,18,-1
EndSplineSet
Ligature: 0 1 'frac' one slash four
Ligature: 0 1 'frac' one fraction four
EndChar
StartChar: onehalf
Encoding: 189 189 189
Width: 2014
Flags: W
Fore
1590.15 168 m 1,0,-1
 1924.95 168 l 1,1,-1
 1924.95 0 l 1,2,-1
 1317.45 0 l 1,3,-1
 1317.45 154 l 1,4,-1
 1600.95 422 l 2,5,6
 1656.75 475 1656.75 475 1679.7 514 c 128,-1,7
 1702.65 553 1702.65 553 1702.65 592 c 0,8,9
 1702.65 642 1702.65 642 1669.35 673.5 c 128,-1,10
 1636.05 705 1636.05 705 1582.05 705 c 0,11,12
 1526.25 705 1526.25 705 1463.7 682.5 c 128,-1,13
 1401.15 660 1401.15 660 1324.65 612 c 1,14,-1
 1324.65 799 l 1,15,16
 1403.85 826 1403.85 826 1476.3 839 c 128,-1,17
 1548.75 852 1548.75 852 1615.35 852 c 0,18,19
 1758.45 852 1758.45 852 1839 788.5 c 128,-1,20
 1919.55 725 1919.55 725 1919.55 614 c 0,21,22
 1919.55 542 1919.55 542 1886.7 480 c 128,-1,23
 1853.85 418 1853.85 418 1764.75 334 c 2,24,-1
 1590.15 168 l 1,0,-1
765.75 -29 m 1,25,-1
 565.05 -29 l 1,26,-1
 1405.65 1520 l 1,27,-1
 1606.35 1520 l 1,28,-1
 765.75 -29 l 1,25,-1
213.15 825 m 1,29,-1
 397.65 825 l 1,30,-1
 397.65 1346 l 1,31,-1
 196.05 1294 l 1,32,-1
 196.05 1454 l 1,33,-1
 403.05 1503 l 1,34,-1
 603.75 1503 l 1,35,-1
 603.75 825 l 1,36,-1
 788.25 825 l 1,37,-1
 788.25 668 l 1,38,-1
 213.15 668 l 1,39,-1
 213.15 825 l 1,29,-1
EndSplineSet
Ligature: 0 1 'frac' one slash two
Ligature: 0 1 'frac' one fraction two
EndChar
StartChar: threequarters
Encoding: 190 190 190
Width: 2011
Flags: W
Fore
1520.7 836 m 1,0,-1
 1743.9 836 l 1,1,-1
 1743.9 317 l 1,2,-1
 1867.2 317 l 1,3,-1
 1867.2 162 l 1,4,-1
 1743.9 162 l 1,5,-1
 1743.9 0 l 1,6,-1
 1536.9 0 l 1,7,-1
 1536.9 162 l 1,8,-1
 1185 162 l 1,9,-1
 1185 330 l 1,10,-1
 1520.7 836 l 1,0,-1
1536.9 641 m 1,11,-1
 1321.8 317 l 1,12,-1
 1536.9 317 l 1,13,-1
 1536.9 641 l 1,11,-1
648.6 1120 m 1,14,15
 732.3 1102 732.3 1102 778.2 1047 c 128,-1,16
 824.1 992 824.1 992 824.1 911 c 0,17,18
 824.1 782 824.1 782 734.55 717.5 c 128,-1,19
 645 653 645 653 464.1 653 c 0,20,21
 391.2 653 391.2 653 324.6 664.5 c 128,-1,22
 258 676 258 676 196.8 698 c 1,23,-1
 196.8 872 l 1,24,25
 256.2 836 256.2 836 313.8 817.5 c 128,-1,26
 371.4 799 371.4 799 425.4 799 c 0,27,28
 510.9 799 510.9 799 557.7 831 c 128,-1,29
 604.5 863 604.5 863 604.5 922 c 0,30,31
 604.5 986 604.5 986 556.8 1016.5 c 128,-1,32
 509.1 1047 509.1 1047 405.6 1047 c 2,33,-1
 339 1047 l 1,34,-1
 339 1184 l 1,35,-1
 414.6 1184 l 2,36,37
 502.8 1184 502.8 1184 543.75 1207.5 c 128,-1,38
 584.7 1231 584.7 1231 584.7 1282 c 0,39,40
 584.7 1327 584.7 1327 549.15 1349.5 c 128,-1,41
 513.6 1372 513.6 1372 442.5 1372 c 0,42,43
 394.8 1372 394.8 1372 339.9 1359 c 128,-1,44
 285 1346 285 1346 221.1 1319 c 1,45,-1
 221.1 1485 l 1,46,47
 279.6 1502 279.6 1502 348 1511 c 128,-1,48
 416.4 1520 416.4 1520 493.8 1520 c 0,49,50
 644.1 1520 644.1 1520 723.75 1464 c 128,-1,51
 803.4 1408 803.4 1408 803.4 1303 c 0,52,53
 803.4 1234 803.4 1234 762.9 1186 c 128,-1,54
 722.4 1138 722.4 1138 648.6 1120 c 1,14,15
762.9 -29 m 1,55,-1
 562.2 -29 l 1,56,-1
 1402.8 1520 l 1,57,-1
 1603.5 1520 l 1,58,-1
 762.9 -29 l 1,55,-1
EndSplineSet
Ligature: 0 1 'frac' three slash four
Ligature: 0 1 'frac' three fraction four
EndChar
StartChar: questiondown
Encoding: 191 191 191
Width: 1129
Flags: W
Fore
498.1 987 m 1,0,-1
 823 987 l 1,1,-1
 823 938 l 2,2,3
 823 857 823 857 793.75 794 c 128,-1,4
 764.5 731 764.5 731 666.4 631 c 2,5,-1
 608.8 573 l 2,6,7
 558.4 522 558.4 522 535 476 c 128,-1,8
 511.6 430 511.6 430 511.6 383 c 0,9,10
 511.6 313 511.6 313 554.8 273 c 128,-1,11
 598 233 598 233 675.4 233 c 0,12,13
 748.3 233 748.3 233 833.35 267 c 128,-1,14
 918.4 301 918.4 301 1009.3 367 c 1,15,-1
 1009.3 53 l 1,16,17
 902.2 11 902.2 11 810.85 -9 c 128,-1,18
 719.5 -29 719.5 -29 636.7 -29 c 0,19,20
 417.1 -29 417.1 -29 301.9 70.5 c 128,-1,21
 186.7 170 186.7 170 186.7 360 c 0,22,23
 186.7 459 186.7 459 221.8 536.5 c 128,-1,24
 256.9 614 256.9 614 341.5 702 c 1,25,-1
 399.1 760 l 2,26,27
 460.3 821 460.3 821 479.2 859 c 128,-1,28
 498.1 897 498.1 897 498.1 942 c 2,29,-1
 498.1 987 l 1,0,-1
823 1137 m 1,30,-1
 498.1 1137 l 1,31,-1
 498.1 1493 l 1,32,-1
 823 1493 l 1,33,-1
 823 1137 l 1,30,-1
EndSplineSet
EndChar
StartChar: Aring
Encoding: 197 197 197
Width: 1505
Flags: W
Fore
1008.05 1464 m 1,0,-1
 1496.75 0 l 1,1,-1
 1148.45 0 l 1,2,-1
 1063.85 272 l 1,3,-1
 522.05 272 l 1,4,-1
 436.55 0 l 1,5,-1
 88.25 0 l 1,6,-1
 576.95 1464 l 1,7,8
 556.25 1498 556.25 1498 546.35 1535.5 c 128,-1,9
 536.45 1573 536.45 1573 536.45 1616 c 0,10,11
 536.45 1733 536.45 1733 611.6 1817 c 128,-1,12
 686.75 1901 686.75 1901 792.95 1901 c 0,13,14
 897.35 1901 897.35 1901 972.95 1817 c 128,-1,15
 1048.55 1733 1048.55 1733 1048.55 1616 c 0,16,17
 1048.55 1569 1048.55 1569 1038.65 1531 c 128,-1,18
 1028.75 1493 1028.75 1493 1008.05 1464 c 1,0,-1
675.05 1616 m 0,19,20
 675.05 1562 675.05 1562 709.7 1523.5 c 128,-1,21
 744.35 1485 744.35 1485 792.95 1485 c 0,22,23
 841.55 1485 841.55 1485 876.2 1523.5 c 128,-1,24
 910.85 1562 910.85 1562 910.85 1616 c 0,25,26
 910.85 1670 910.85 1670 875.75 1708.5 c 128,-1,27
 840.65 1747 840.65 1747 792.95 1747 c 0,28,29
 744.35 1747 744.35 1747 709.7 1708.5 c 128,-1,30
 675.05 1670 675.05 1670 675.05 1616 c 0,19,20
608.45 549 m 1,31,-1
 976.55 549 l 1,32,-1
 792.95 1143 l 1,33,-1
 608.45 549 l 1,31,-1
EndSplineSet
Ligature: 0 0 'liga' A uni030A
EndChar
StartChar: AE
Encoding: 198 198 198
Width: 2103
Flags: W
Fore
905.55 1237 m 1,0,-1
 675.15 627 l 1,1,-1
 1014.45 627 l 1,2,-1
 1014.45 1237 l 1,3,-1
 905.55 1237 l 1,0,-1
666.15 1493 m 1,4,-1
 1948.65 1493 l 1,5,-1
 1948.65 1202 l 1,6,-1
 1360.95 1202 l 1,7,-1
 1360.95 924 l 1,8,-1
 1913.55 924 l 1,9,-1
 1913.55 633 l 1,10,-1
 1360.95 633 l 1,11,-1
 1360.95 291 l 1,12,-1
 1969.35 291 l 1,13,-1
 1969.35 0 l 1,14,-1
 1014.45 0 l 1,15,-1
 1014.45 350 l 1,16,-1
 569.85 350 l 1,17,-1
 437.55 0 l 1,18,-1
 103.65 0 l 1,19,-1
 666.15 1493 l 1,4,-1
EndSplineSet
KernsSLIFO: 45 -36 0 0
EndChar
StartChar: Eth
Encoding: 208 208 208
Width: 1626
Flags: W
Fore
615.05 1202 m 1,0,-1
 615.05 881 l 1,1,-1
 826.55 881 l 1,2,-1
 826.55 621 l 1,3,-1
 615.05 621 l 1,4,-1
 615.05 291 l 1,5,-1
 738.35 291 l 2,6,7
 950.75 291 950.75 291 1062.8 408 c 128,-1,8
 1174.85 525 1174.85 525 1174.85 748 c 0,9,10
 1174.85 970 1174.85 970 1063.25 1086 c 128,-1,11
 951.65 1202 951.65 1202 738.35 1202 c 2,12,-1
 615.05 1202 l 1,0,-1
268.55 1493 m 1,13,-1
 633.05 1493 l 2,14,15
 939.95 1493 939.95 1493 1089.35 1444.5 c 128,-1,16
 1238.75 1396 1238.75 1396 1346.75 1280 c 0,17,18
 1440.35 1179 1440.35 1179 1486.7 1047 c 128,-1,19
 1533.05 915 1533.05 915 1533.05 748 c 0,20,21
 1533.05 579 1533.05 579 1486.7 446.5 c 128,-1,22
 1440.35 314 1440.35 314 1346.75 213 c 0,23,24
 1237.85 97 1237.85 97 1086.65 48.5 c 128,-1,25
 935.45 0 935.45 0 633.05 0 c 2,26,-1
 268.55 0 l 1,27,-1
 268.55 621 l 1,28,-1
 111.95 621 l 1,29,-1
 111.95 881 l 1,30,-1
 268.55 881 l 1,31,-1
 268.55 1493 l 1,13,-1
EndSplineSet
KernsSLIFO: 7922 -149 0 0 562 -149 0 0 374 -149 0 0 221 -149 0 0 8222 -36 0 0 8218 -36 0 0 376 -149 0 0 89 -149 0 0 45 38 0 0
EndChar
StartChar: multiply
Encoding: 215 215 215
Width: 1630
Flags: W
Fore
1399.8 1075 m 1,0,-1
 1009.2 641 l 1,1,-1
 1399.8 209 l 1,2,-1
 1248.6 41 l 1,3,-1
 858 473 l 1,4,-1
 467.4 41 l 1,5,-1
 316.2 209 l 1,6,-1
 706.8 641 l 1,7,-1
 316.2 1075 l 1,8,-1
 467.4 1243 l 1,9,-1
 858 809 l 1,10,-1
 1248.6 1243 l 1,11,-1
 1399.8 1075 l 1,0,-1
EndSplineSet
EndChar
StartChar: Oslash
Encoding: 216 216 216
Width: 1653
Flags: W
Fore
630.15 371 m 1,0,1
 676.95 309 676.95 309 735.9 279.5 c 128,-1,2
 794.85 250 794.85 250 869.55 250 c 0,3,4
 1028.85 250 1028.85 250 1116.15 380 c 128,-1,5
 1203.45 510 1203.45 510 1203.45 745 c 0,6,7
 1203.45 813 1203.45 813 1196.7 871.5 c 128,-1,8
 1189.95 930 1189.95 930 1175.55 979 c 1,9,-1
 630.15 371 l 1,0,1
1106.25 1126 m 1,10,11
 1060.35 1184 1060.35 1184 1001.85 1212.5 c 128,-1,12
 943.35 1241 943.35 1241 869.55 1241 c 0,13,14
 711.15 1241 711.15 1241 623.85 1111 c 128,-1,15
 536.55 981 536.55 981 536.55 745 c 0,16,17
 536.55 681 536.55 681 542.85 624.5 c 128,-1,18
 549.15 568 549.15 568 561.75 522 c 1,19,-1
 1106.25 1126 l 1,10,11
311.55 244 m 1,20,21
 244.95 344 244.95 344 211.65 469 c 128,-1,22
 178.35 594 178.35 594 178.35 745 c 0,23,24
 178.35 1108 178.35 1108 362.4 1314 c 128,-1,25
 546.45 1520 546.45 1520 869.55 1520 c 0,26,27
 1008.15 1520 1008.15 1520 1119.75 1482.5 c 128,-1,28
 1231.35 1445 1231.35 1445 1323.15 1368 c 1,29,-1
 1502.25 1567 l 1,30,-1
 1603.95 1452 l 1,31,-1
 1423.05 1253 l 1,32,33
 1492.35 1154 1492.35 1154 1526.55 1026.5 c 128,-1,34
 1560.75 899 1560.75 899 1560.75 745 c 0,35,36
 1560.75 383 1560.75 383 1377.15 177 c 128,-1,37
 1193.55 -29 1193.55 -29 869.55 -29 c 0,38,39
 731.85 -29 731.85 -29 617.1 10.5 c 128,-1,40
 502.35 50 502.35 50 410.55 129 c 1,41,-1
 228.75 -74 l 1,42,-1
 127.05 39 l 1,43,-1
 311.55 244 l 1,20,21
EndSplineSet
KernsSLIFO: 221 -36 0 0 193 -36 0 0 194 -36 0 0 376 -36 0 0 195 -36 0 0 192 -36 0 0 196 -36 0 0 89 -36 0 0 88 -73 0 0 86 -36 0 0 65 -36 0 0 46 -45 0 0 45 38 0 0 44 -45 0 0
EndChar
StartChar: Thorn
Encoding: 222 222 222
Width: 1440
Flags: W
Fore
595.95 258 m 1,0,-1
 595.95 0 l 1,1,-1
 249.45 0 l 1,2,-1
 249.45 1493 l 1,3,-1
 595.95 1493 l 1,4,-1
 595.95 1233 l 1,5,-1
 824.55 1233 l 2,6,7
 1081.05 1233 1081.05 1233 1218.3 1106.5 c 128,-1,8
 1355.55 980 1355.55 980 1355.55 745 c 0,9,10
 1355.55 511 1355.55 511 1218.3 384.5 c 128,-1,11
 1081.05 258 1081.05 258 824.55 258 c 2,12,-1
 595.95 258 l 1,0,-1
595.95 956 m 1,13,-1
 595.95 537 l 1,14,-1
 787.65 537 l 2,15,16
 888.45 537 888.45 537 943.35 591.5 c 128,-1,17
 998.25 646 998.25 646 998.25 745 c 0,18,19
 998.25 846 998.25 846 943.35 901 c 128,-1,20
 888.45 956 888.45 956 787.65 956 c 2,21,-1
 595.95 956 l 1,13,-1
EndSplineSet
EndChar
StartChar: germandbls
Encoding: 223 223 223
Width: 1403
Flags: W
Fore
232.6 1114 m 2,0,1
 232.6 1336 232.6 1336 354.1 1446 c 128,-1,2
 475.6 1556 475.6 1556 721.3 1556 c 0,3,4
 957.1 1556 957.1 1556 1077.7 1444 c 128,-1,5
 1198.3 1332 1198.3 1332 1198.3 1114 c 2,6,-1
 1198.3 1043 l 1,7,8
 1062.4 1033 1062.4 1033 997.6 994 c 128,-1,9
 932.8 955 932.8 955 932.8 881 c 0,10,11
 932.8 844 932.8 844 954.85 815.5 c 128,-1,12
 976.9 787 976.9 787 1060.6 735 c 2,13,-1
 1122.7 698 l 2,14,15
 1227.1 634 1227.1 634 1275.25 549.5 c 128,-1,16
 1323.4 465 1323.4 465 1323.4 348 c 0,17,18
 1323.4 159 1323.4 159 1220.35 65 c 128,-1,19
 1117.3 -29 1117.3 -29 909.4 -29 c 0,20,21
 850.9 -29 850.9 -29 788.8 -16.5 c 128,-1,22
 726.7 -4 726.7 -4 660.1 20 c 1,23,-1
 660.1 264 l 1,24,25
 710.5 237 710.5 237 762.25 223 c 128,-1,26
 814 209 814 209 862.6 209 c 0,27,28
 927.4 209 927.4 209 967 245 c 128,-1,29
 1006.6 281 1006.6 281 1006.6 338 c 0,30,31
 1006.6 385 1006.6 385 981.85 419 c 128,-1,32
 957.1 453 957.1 453 868.9 508 c 2,33,-1
 805.9 547 l 2,34,35
 726.7 596 726.7 596 688.9 663.5 c 128,-1,36
 651.1 731 651.1 731 651.1 821 c 0,37,38
 651.1 937 651.1 937 713.65 1016 c 128,-1,39
 776.2 1095 776.2 1095 906.7 1145 c 1,40,41
 905.8 1230 905.8 1230 862.6 1274.5 c 128,-1,42
 819.4 1319 819.4 1319 737.5 1319 c 0,43,44
 646.6 1319 646.6 1319 600.7 1264 c 128,-1,45
 554.8 1209 554.8 1209 554.8 1100 c 2,46,-1
 554.8 0 l 1,47,-1
 232.6 0 l 1,48,-1
 232.6 1114 l 2,0,1
EndSplineSet
EndChar
StartChar: ae
Encoding: 230 230 230
Width: 2038
Flags: W
Fore
1617.9 682 m 1,0,1
 1617.9 784 1617.9 784 1564.35 846.5 c 128,-1,2
 1510.8 909 1510.8 909 1424.4 909 c 0,3,4
 1331.7 909 1331.7 909 1274.1 850.5 c 128,-1,5
 1216.5 792 1216.5 792 1202.1 682 c 1,6,-1
 1617.9 682 l 1,0,1
713.4 504 m 2,7,8
 612.6 504 612.6 504 561.75 466 c 128,-1,9
 510.9 428 510.9 428 510.9 354 c 0,10,11
 510.9 286 510.9 286 551.85 247.5 c 128,-1,12
 592.8 209 592.8 209 665.7 209 c 0,13,14
 756.6 209 756.6 209 818.7 281.5 c 128,-1,15
 880.8 354 880.8 354 880.8 463 c 2,16,-1
 880.8 504 l 1,17,-1
 713.4 504 l 2,7,8
274.2 1090 m 1,18,19
 381.3 1118 381.3 1118 481.65 1132.5 c 128,-1,20
 582 1147 582 1147 669.3 1147 c 0,21,22
 804.3 1147 804.3 1147 901.95 1108.5 c 128,-1,23
 999.6 1070 999.6 1070 1063.5 991 c 1,24,25
 1132.8 1068 1132.8 1068 1224.6 1107.5 c 128,-1,26
 1316.4 1147 1316.4 1147 1426.2 1147 c 0,27,28
 1664.7 1147 1664.7 1147 1807.35 988 c 128,-1,29
 1950 829 1950 829 1950 563 c 2,30,-1
 1950 461 l 1,31,-1
 1195.8 461 l 1,32,33
 1208.4 335 1208.4 335 1278.15 272 c 128,-1,34
 1347.9 209 1347.9 209 1474.8 209 c 0,35,36
 1576.5 209 1576.5 209 1683.15 242.5 c 128,-1,37
 1789.8 276 1789.8 276 1902.3 344 c 1,38,-1
 1902.3 68 l 1,39,40
 1788 20 1788 20 1673.25 -4.5 c 128,-1,41
 1558.5 -29 1558.5 -29 1445.1 -29 c 0,42,43
 1284 -29 1284 -29 1164.75 24.5 c 128,-1,44
 1045.5 78 1045.5 78 980.7 178 c 1,45,46
 889.8 71 889.8 71 789.45 21 c 128,-1,47
 689.1 -29 689.1 -29 564 -29 c 0,48,49
 389.4 -29 389.4 -29 287.7 69.5 c 128,-1,50
 186 168 186 168 186 336 c 0,51,52
 186 533 186 533 307.95 625 c 128,-1,53
 429.9 717 429.9 717 690.9 717 c 2,54,-1
 880.8 717 l 1,55,-1
 880.8 745 l 2,56,57
 880.8 830 880.8 830 820.5 869.5 c 128,-1,58
 760.2 909 760.2 909 632.4 909 c 0,59,60
 528.9 909 528.9 909 439.8 886 c 128,-1,61
 350.7 863 350.7 863 274.2 817 c 1,62,-1
 274.2 1090 l 1,18,19
EndSplineSet
EndChar
StartChar: eth
Encoding: 240 240 240
Width: 1336
Flags: W
Fore
898.35 743 m 1,0,1
 848.85 770 848.85 770 800.25 783.5 c 128,-1,2
 751.65 797 751.65 797 704.85 797 c 0,3,4
 599.55 797 599.55 797 542.4 730.5 c 128,-1,5
 485.25 664 485.25 664 485.25 543 c 0,6,7
 485.25 395 485.25 395 543.75 311 c 128,-1,8
 602.25 227 602.25 227 704.85 227 c 0,9,10
 810.15 227 810.15 227 865.95 312.5 c 128,-1,11
 921.75 398 921.75 398 921.75 559 c 0,12,13
 921.75 604 921.75 604 915.9 650 c 128,-1,14
 910.05 696 910.05 696 898.35 743 c 1,0,1
1056.75 1100 m 1,15,16
 1162.05 964 1162.05 964 1209.75 835.5 c 128,-1,17
 1257.45 707 1257.45 707 1257.45 559 c 0,18,19
 1257.45 283 1257.45 283 1111.2 127 c 128,-1,20
 964.95 -29 964.95 -29 704.85 -29 c 0,21,22
 443.85 -29 443.85 -29 296.7 127 c 128,-1,23
 149.55 283 149.55 283 149.55 559 c 0,24,25
 149.55 790 149.55 790 285 922.5 c 128,-1,26
 420.45 1055 420.45 1055 658.05 1055 c 0,27,28
 699.45 1055 699.45 1055 734.55 1048.5 c 128,-1,29
 769.65 1042 769.65 1042 802.05 1028 c 1,30,-1
 631.05 1247 l 1,31,-1
 295.35 1128 l 1,32,-1
 262.05 1257 l 1,33,-1
 538.35 1354 l 1,34,-1
 369.15 1556 l 1,35,-1
 685.95 1556 l 1,36,-1
 785.85 1440 l 1,37,-1
 1124.25 1554 l 1,38,-1
 1155.75 1425 l 1,39,-1
 872.25 1329 l 1,40,-1
 1056.75 1100 l 1,15,16
EndSplineSet
EndChar
StartChar: divide
Encoding: 247 247 247
Width: 1630
Flags: W
Fore
720.3 395 m 1,0,-1
 996.6 395 l 1,1,-1
 996.6 86 l 1,2,-1
 720.3 86 l 1,3,-1
 720.3 395 l 1,0,-1
720.3 1198 m 1,4,-1
 996.6 1198 l 1,5,-1
 996.6 889 l 1,6,-1
 720.3 889 l 1,7,-1
 720.3 1198 l 1,4,-1
281.1 760 m 1,8,-1
 1434.9 760 l 1,9,-1
 1434.9 524 l 1,10,-1
 281.1 524 l 1,11,-1
 281.1 760 l 1,8,-1
EndSplineSet
EndChar
StartChar: oslash
Encoding: 248 248 248
Width: 1336
Flags: W
Fore
840.35 836 m 1,0,1
 814.25 864 814.25 864 780.5 877.5 c 128,-1,2
 746.75 891 746.75 891 704.45 891 c 0,3,4
 597.35 891 597.35 891 541.1 805.5 c 128,-1,5
 484.85 720 484.85 720 484.85 559 c 0,6,7
 484.85 518 484.85 518 488 485.5 c 128,-1,8
 491.15 453 491.15 453 497.45 426 c 1,9,-1
 840.35 836 l 1,0,1
562.25 287 m 1,10,11
 590.15 257 590.15 257 625.7 242 c 128,-1,12
 661.25 227 661.25 227 704.45 227 c 0,13,14
 809.75 227 809.75 227 865.55 312.5 c 128,-1,15
 921.35 398 921.35 398 921.35 559 c 0,16,17
 921.35 602 921.35 602 918.2 635.5 c 128,-1,18
 915.05 669 915.05 669 908.75 698 c 1,19,-1
 562.25 287 l 1,10,11
270.65 158 m 1,20,21
 210.35 236 210.35 236 179.75 336 c 128,-1,22
 149.15 436 149.15 436 149.15 559 c 0,23,24
 149.15 835 149.15 835 296.3 991 c 128,-1,25
 443.45 1147 443.45 1147 704.45 1147 c 0,26,27
 799.85 1147 799.85 1147 880.4 1125 c 128,-1,28
 960.95 1103 960.95 1103 1028.45 1059 c 1,29,-1
 1160.75 1217 l 1,30,-1
 1258.85 1116 l 1,31,-1
 1131.95 967 l 1,32,33
 1194.95 887 1194.95 887 1226 786 c 128,-1,34
 1257.05 685 1257.05 685 1257.05 559 c 0,35,36
 1257.05 283 1257.05 283 1110.8 127 c 128,-1,37
 964.55 -29 964.55 -29 704.45 -29 c 0,38,39
 607.25 -29 607.25 -29 525.35 -6.5 c 128,-1,40
 443.45 16 443.45 16 374.15 61 c 1,41,-1
 240.95 -94 l 1,42,-1
 140.15 0 l 1,43,-1
 270.65 158 l 1,20,21
EndSplineSet
EndChar
StartChar: thorn
Encoding: 254 254 254
Width: 1396
Flags: W
Fore
554.3 162 m 1,0,-1
 554.3 -426 l 1,1,-1
 232.1 -426 l 1,2,-1
 232.1 1556 l 1,3,-1
 554.3 1556 l 1,4,-1
 554.3 956 l 1,5,6
 620.9 1054 620.9 1054 701.9 1100.5 c 128,-1,7
 782.9 1147 782.9 1147 888.2 1147 c 0,8,9
 1074.5 1147 1074.5 1147 1194.2 982.5 c 128,-1,10
 1313.9 818 1313.9 818 1313.9 559 c 0,11,12
 1313.9 300 1313.9 300 1194.2 135.5 c 128,-1,13
 1074.5 -29 1074.5 -29 888.2 -29 c 0,14,15
 782.9 -29 782.9 -29 701.9 17.5 c 128,-1,16
 620.9 64 620.9 64 554.3 162 c 1,0,-1
768.5 887 m 0,17,18
 665 887 665 887 609.65 802.5 c 128,-1,19
 554.3 718 554.3 718 554.3 559 c 0,20,21
 554.3 400 554.3 400 609.65 315.5 c 128,-1,22
 665 231 665 231 768.5 231 c 0,23,24
 872 231 872 231 926.45 315 c 128,-1,25
 980.9 399 980.9 399 980.9 559 c 0,26,27
 980.9 719 980.9 719 926.45 803 c 128,-1,28
 872 887 872 887 768.5 887 c 0,17,18
EndSplineSet
EndChar
StartChar: Dcroat
Encoding: 272 272 272
Width: 1626
Flags: W
Fore
615.05 1202 m 1,0,-1
 615.05 881 l 1,1,-1
 826.55 881 l 1,2,-1
 826.55 621 l 1,3,-1
 615.05 621 l 1,4,-1
 615.05 291 l 1,5,-1
 738.35 291 l 2,6,7
 950.75 291 950.75 291 1062.8 408 c 128,-1,8
 1174.85 525 1174.85 525 1174.85 748 c 0,9,10
 1174.85 970 1174.85 970 1063.25 1086 c 128,-1,11
 951.65 1202 951.65 1202 738.35 1202 c 2,12,-1
 615.05 1202 l 1,0,-1
268.55 1493 m 1,13,-1
 633.05 1493 l 2,14,15
 939.95 1493 939.95 1493 1089.35 1444.5 c 128,-1,16
 1238.75 1396 1238.75 1396 1346.75 1280 c 0,17,18
 1440.35 1179 1440.35 1179 1486.7 1047 c 128,-1,19
 1533.05 915 1533.05 915 1533.05 748 c 0,20,21
 1533.05 579 1533.05 579 1486.7 446.5 c 128,-1,22
 1440.35 314 1440.35 314 1346.75 213 c 0,23,24
 1237.85 97 1237.85 97 1086.65 48.5 c 128,-1,25
 935.45 0 935.45 0 633.05 0 c 2,26,-1
 268.55 0 l 1,27,-1
 268.55 621 l 1,28,-1
 111.95 621 l 1,29,-1
 111.95 881 l 1,30,-1
 268.55 881 l 1,31,-1
 268.55 1493 l 1,13,-1
EndSplineSet
KernsSLIFO: 7922 -149 0 0 562 -149 0 0 374 -149 0 0 221 -149 0 0 8222 -36 0 0 8218 -36 0 0 376 -149 0 0 89 -149 0 0 45 38 0 0
EndChar
StartChar: dcroat
Encoding: 273 273 273
Width: 1396
Flags: W
Fore
917.6 956 m 1,0,-1
 917.6 1237 l 1,1,-1
 624.2 1237 l 1,2,-1
 624.2 1442 l 1,3,-1
 917.6 1442 l 1,4,-1
 917.6 1556 l 1,5,-1
 1241.6 1556 l 1,6,-1
 1241.6 1442 l 1,7,-1
 1380.2 1442 l 1,8,-1
 1380.2 1237 l 1,9,-1
 1241.6 1237 l 1,10,-1
 1241.6 0 l 1,11,-1
 917.6 0 l 1,12,-1
 917.6 162 l 1,13,14
 851 63 851 63 770.9 17 c 128,-1,15
 690.8 -29 690.8 -29 585.5 -29 c 0,16,17
 399.2 -29 399.2 -29 279.5 135.5 c 128,-1,18
 159.8 300 159.8 300 159.8 559 c 0,19,20
 159.8 818 159.8 818 279.5 982.5 c 128,-1,21
 399.2 1147 399.2 1147 585.5 1147 c 0,22,23
 689.9 1147 689.9 1147 770.45 1100.5 c 128,-1,24
 851 1054 851 1054 917.6 956 c 1,0,-1
705.2 231 m 0,25,26
 808.7 231 808.7 231 863.15 315 c 128,-1,27
 917.6 399 917.6 399 917.6 559 c 0,28,29
 917.6 719 917.6 719 863.15 803 c 128,-1,30
 808.7 887 808.7 887 705.2 887 c 0,31,32
 602.6 887 602.6 887 548.15 803 c 128,-1,33
 493.7 719 493.7 719 493.7 559 c 0,34,35
 493.7 399 493.7 399 548.15 315 c 128,-1,36
 602.6 231 602.6 231 705.2 231 c 0,25,26
EndSplineSet
EndChar
StartChar: Hbar
Encoding: 294 294 294
Width: 1894
Flags: W
Fore
394.9 1493 m 1,0,-1
 741.4 1493 l 1,1,-1
 741.4 1306 l 1,0,0
 1252.6 1306 l 1,0,0
 1252.6 1493 l 1,4,-1
 1599.1 1493 l 1,5,-1
 1599.1 1306 l 1,0,0
 1725.1 1306 l 1,1,-1
 1725.1 1112 l 1,2,-1
 1599.1 1112 l 1,0,0
 1599.1 0 l 1,6,-1
 1252.6 0 l 1,7,-1
 1252.6 633 l 1,8,-1
 741.4 633 l 1,9,-1
 741.4 0 l 1,10,-1
 394.9 0 l 1,11,-1
 394.9 1112 l 1,0,0
 268.9 1112 l 1,3,-1
 268.9 1306 l 1,0,-1
 394.9 1306 l 1,0,0
 394.9 1493 l 1,0,-1
741.4 1112 m 1,0,0
 741.4 924 l 1,2,-1
 1252.6 924 l 1,3,-1
 1252.6 1112 l 1,0,0
 741.4 1112 l 1,0,0
EndSplineSet
EndChar
StartChar: hbar
Encoding: 295 295 295
Width: 1537
Flags: W
Fore
1387.7 682 m 2,0,-1
 1387.7 0 l 1,1,-1
 1063.7 0 l 1,2,-1
 1063.7 111 l 1,3,-1
 1063.7 520 l 2,4,5
 1063.7 667 1063.7 667 1057.85 722 c 128,-1,6
 1052 777 1052 777 1037.6 803 c 0,7,8
 1018.7 838 1018.7 838 986.3 857.5 c 128,-1,9
 953.9 877 953.9 877 912.5 877 c 0,10,11
 811.7 877 811.7 877 754.1 790.5 c 128,-1,12
 696.5 704 696.5 704 696.5 551 c 2,13,-1
 696.5 0 l 1,14,-1
 374.3 0 l 1,15,-1
 374.3 1255 l 1,0,0
 230.3 1255 l 1,3,-1
 230.3 1449 l 1,0,-1
 374.3 1449 l 1,0,0
 374.3 1556 l 1,16,-1
 696.5 1556 l 1,17,-1
 696.5 1449 l 1,0,0
 1023.2 1449 l 1,1,-1
 1023.2 1255 l 1,2,-1
 696.5 1255 l 1,0,0
 696.5 956 l 1,18,19
 769.4 1054 769.4 1054 851.3 1100.5 c 128,-1,20
 933.2 1147 933.2 1147 1032.2 1147 c 0,21,22
 1206.8 1147 1206.8 1147 1297.25 1028 c 128,-1,23
 1387.7 909 1387.7 909 1387.7 682 c 2,0,-1
EndSplineSet
EndChar
StartChar: dotlessi
Encoding: 305 305 305
Width: 666
Flags: W
Fore
189.9 1120 m 1,0,-1
 512.1 1120 l 1,1,-1
 512.1 0 l 1,2,-1
 189.9 0 l 1,3,-1
 189.9 1120 l 1,0,-1
EndSplineSet
EndChar
StartChar: kgreenlandic
Encoding: 312 312 312
Width: 1304
Flags: W
Fore
233.45 1120 m 1,0,-1
 555.65 1120 l 1,1,-1
 555.65 709 l 1,2,-1
 926.45 1120 l 1,3,-1
 1300.85 1120 l 1,4,-1
 808.55 606 l 1,5,-1
 1339.55 0 l 1,6,-1
 948.95 0 l 1,7,-1
 555.65 467 l 1,8,-1
 555.65 0 l 1,9,-1
 233.45 0 l 1,10,-1
 233.45 1120 l 1,0,-1
EndSplineSet
EndChar
StartChar: Lslash
Encoding: 321 321 321
Width: 1241
Flags: W
Fore
237.5 1493 m 1,0,-1
 584 1493 l 1,1,-1
 584 1077 l 1,2,-1
 812.6 1262 l 1,3,-1
 941.3 1069 l 1,4,-1
 584 797 l 1,5,-1
 584 291 l 1,6,-1
 1192.4 291 l 1,7,-1
 1192.4 0 l 1,8,-1
 237.5 0 l 1,9,-1
 237.5 524 l 1,10,-1
 104.3 418 l 1,11,-1
 -24.4004 608 l 1,12,-1
 237.5 805 l 1,13,-1
 237.5 1493 l 1,0,-1
EndSplineSet
KernsSLIFO: 366 -73 0 0 356 -339 0 0 253 -139 0 0 221 -319 0 0 217 -73 0 0 219 -73 0 0 218 -73 0 0 210 -73 0 0 212 -73 0 0 211 -73 0 0 376 -319 0 0 255 -139 0 0 8217 -339 0 0 8221 -376 0 0 338 -73 0 0 213 -73 0 0 216 -73 0 0 220 -73 0 0 214 -73 0 0 121 -139 0 0 89 -319 0 0 87 -159 0 0 86 -282 0 0 85 -73 0 0 84 -339 0 0 79 -73 0 0
EndChar
StartChar: lslash
Encoding: 322 322 322
Width: 722
Flags: W
Fore
217.2 1556 m 1,0,-1
 541.2 1556 l 1,1,-1
 541.2 1055 l 1,2,-1
 657.3 1143 l 1,3,-1
 757.2 989 l 1,4,-1
 541.2 825 l 1,5,-1
 541.2 0 l 1,6,-1
 217.2 0 l 1,7,-1
 217.2 641 l 1,8,-1
 104.7 555 l 1,9,-1
 4.7998 709 l 1,10,-1
 217.2 872 l 1,11,-1
 217.2 1556 l 1,0,-1
EndSplineSet
EndChar
StartChar: Eng
Encoding: 330 330 330
Width: 1628
Flags: W
Fore
272.05 1493 m 1,0,-1
 583.45 1493 l 1,1,-1
 1130.65 529 l 1,2,-1
 1130.65 1493 l 1,3,-1
 1442.95 1493 l 1,4,-1
 1442.95 20 l 2,5,-1
 1442.95 -203 1442.95 -203 1343.95 -324 c 128,-1,4
 1246.75 -442 1246.75 -442 1062.25 -442 c 2,5,-1
 809.35 -442 l 1,6,-1
 809.35 -207 l 1,7,-1
 958.75 -207 l 2,8,9
 1050.55 -207 1050.55 -207 1084.75 -161 c 128,-1,10
 1118.95 -115 1118.95 -115 1118.95 20 c 1,0,0
 583.45 964 l 1,7,-1
 583.45 0 l 1,8,-1
 272.05 0 l 1,9,-1
 272.05 1493 l 1,0,-1
EndSplineSet
EndChar
StartChar: eng
Encoding: 331 331 331
Width: 1385
Flags: W
Fore
1241.7 682 m 2,0,-1
 1241.7 20 l 2,2,3
 1241.7 -203 1241.7 -203 1142.7 -324 c 128,-1,4
 1045.5 -442 1045.5 -442 861 -442 c 2,5,-1
 608.1 -442 l 1,6,-1
 608.1 -207 l 1,7,-1
 757.5 -207 l 2,8,9
 849.3 -207 849.3 -207 883.5 -161 c 128,-1,10
 917.7 -115 917.7 -115 917.7 20 c 2,11,-1
 917.7 522 l 2,4,5
 917.7 667 917.7 667 912.3 722 c 128,-1,6
 906 777 906 777 891.6 803 c 0,7,8
 872.7 838 872.7 838 840.3 858 c 128,-1,9
 807.9 877 807.9 877 766.5 877 c 0,10,11
 665.7 877 665.7 877 608.1 790 c 128,-1,12
 550.5 704 550.5 704 550.5 551 c 2,13,-1
 550.5 0 l 1,14,-1
 228.3 0 l 1,15,-1
 228.3 1120 l 1,16,-1
 550.5 1120 l 1,17,-1
 550.5 956 l 1,18,19
 623.4 1054 623.4 1054 705.3 1100 c 128,-1,20
 787.2 1147 787.2 1147 886.2 1147 c 0,21,22
 1060.8 1147 1060.8 1147 1151.7 1028 c 128,-1,23
 1241.7 909 1241.7 909 1241.7 682 c 2,0,-1
EndSplineSet
EndChar
StartChar: OE
Encoding: 338 338 338
Width: 2268
Flags: W
Fore
1179.15 1202 m 1,0,-1
 1084.65 1202 l 2,1,2
 824.55 1202 824.55 1202 695.85 1089 c 128,-1,3
 567.15 976 567.15 976 567.15 748 c 0,4,5
 567.15 519 567.15 519 696.3 405 c 128,-1,6
 825.45 291 825.45 291 1084.65 291 c 2,7,-1
 1179.15 291 l 1,8,-1
 1179.15 1202 l 1,0,-1
1098.15 1493 m 2,9,-1
 2113.35 1493 l 1,10,-1
 2113.35 1202 l 1,11,-1
 1525.65 1202 l 1,12,-1
 1525.65 924 l 1,13,-1
 2078.25 924 l 1,14,-1
 2078.25 633 l 1,15,-1
 1525.65 633 l 1,16,-1
 1525.65 291 l 1,17,-1
 2134.05 291 l 1,18,-1
 2134.05 0 l 1,19,-1
 1098.15 0 l 2,20,21
 1086.45 0 1086.45 0 1065.3 -1 c 128,-1,22
 1044.15 -2 1044.15 -2 1033.35 -2 c 0,23,24
 635.55 -2 635.55 -2 422.25 192.5 c 128,-1,25
 208.95 387 208.95 387 208.95 748 c 0,26,27
 208.95 1108 208.95 1108 422.25 1301.5 c 128,-1,28
 635.55 1495 635.55 1495 1033.35 1495 c 0,29,30
 1043.25 1495 1043.25 1495 1064.85 1494 c 128,-1,31
 1086.45 1493 1086.45 1493 1098.15 1493 c 2,9,-1
EndSplineSet
EndChar
StartChar: oe
Encoding: 339 339 339
Width: 2128
Flags: W
Fore
1708.1 682 m 1,0,1
 1708.1 784 1708.1 784 1654.55 846.5 c 128,-1,2
 1601 909 1601 909 1514.6 909 c 0,3,4
 1421 909 1421 909 1362.5 850.5 c 128,-1,5
 1304 792 1304 792 1289.6 682 c 1,6,-1
 1708.1 682 l 1,0,1
2039.3 563 m 2,7,-1
 2039.3 461 l 1,8,-1
 1286 461 l 1,9,10
 1297.7 335 1297.7 335 1367.9 272 c 128,-1,11
 1438.1 209 1438.1 209 1564.1 209 c 0,12,13
 1665.8 209 1665.8 209 1772.45 242.5 c 128,-1,14
 1879.1 276 1879.1 276 1991.6 344 c 1,15,-1
 1991.6 68 l 1,16,17
 1878.2 20 1878.2 20 1763 -4.5 c 128,-1,18
 1647.8 -29 1647.8 -29 1534.4 -29 c 0,19,20
 1385.9 -29 1385.9 -29 1289.6 11.5 c 128,-1,21
 1193.3 52 1193.3 52 1128.5 139 c 1,22,23
 1054.7 55 1054.7 55 958.85 13 c 128,-1,24
 863 -29 863 -29 746 -29 c 0,25,26
 485 -29 485 -29 337.85 127 c 128,-1,27
 190.7 283 190.7 283 190.7 559 c 0,28,29
 190.7 835 190.7 835 337.85 991 c 128,-1,30
 485 1147 485 1147 746 1147 c 0,31,32
 866.6 1147 866.6 1147 959.3 1106 c 128,-1,33
 1052 1065 1052 1065 1124.9 979 c 1,34,35
 1198.7 1066 1198.7 1066 1288.25 1106.5 c 128,-1,36
 1377.8 1147 1377.8 1147 1499.3 1147 c 0,37,38
 1749.5 1147 1749.5 1147 1894.4 990 c 128,-1,39
 2039.3 833 2039.3 833 2039.3 563 c 2,7,-1
746 891 m 0,40,41
 638.9 891 638.9 891 582.65 805.5 c 128,-1,42
 526.4 720 526.4 720 526.4 559 c 0,43,44
 526.4 398 526.4 398 582.65 312.5 c 128,-1,45
 638.9 227 638.9 227 746 227 c 0,46,47
 851.3 227 851.3 227 907.1 312.5 c 128,-1,48
 962.9 398 962.9 398 962.9 559 c 0,49,50
 962.9 720 962.9 720 907.1 805.5 c 128,-1,51
 851.3 891 851.3 891 746 891 c 0,40,41
EndSplineSet
EndChar
StartChar: Tbar
Encoding: 358 358 358
Width: 1327
Flags: W
TeX: 0 0 0 0
Fore
78.7998 1493 m 1,0,-1
 1317.2 1493 l 1,1,-1
 1317.2 1202 l 1,2,-1
 871.7 1202 l 1,3,-1
 871.7 697 l 1,0,0
 1094 697 l 1,0,0
 1094 505 l 1,0,0
 871.7 505 l 1,0,0
 871.7 0 l 1,4,-1
 525.2 0 l 1,5,-1
 525.2 505 l 1,0,0
 302.9 505 l 1,0,0
 302.9 697 l 1,0,0
 525.2 697 l 1,0,0
 525.2 1202 l 1,6,-1
 78.7998 1202 l 1,7,-1
 78.7998 1493 l 1,0,-1
EndSplineSet
EndChar
StartChar: tbar
Encoding: 359 359 359
Width: 929
Flags: W
TeX: 0 0 0 0
Fore
554.65 1438 m 1,0,-1
 554.65 1120 l 1,1,-1
 886.75 1120 l 1,2,-1
 886.75 864 l 1,3,-1
 554.65 864 l 1,4,-1
 554.65 722 l 1,0,0
 720.25 722 l 1,0,0
 720.25 530 l 1,0,0
 554.65 530 l 1,0,0
 554.65 389 l 2,5,6
 554.65 311 554.65 311 582.55 284 c 128,-1,7
 610.45 256 610.45 256 693.25 256 c 2,8,-1
 858.85 256 l 1,9,-1
 858.85 0 l 1,10,-1
 582.55 0 l 2,11,12
 391.75 0 391.75 0 312.55 88 c 128,-1,13
 232.45 177 232.45 177 232.45 389 c 2,14,-1
 232.45 530 l 1,0,0
 72.25 530 l 1,0,0
 72.25 722 l 1,0,0
 232.45 722 l 1,0,0
 232.45 864 l 1,15,-1
 72.25 864 l 1,16,-1
 72.25 1120 l 1,17,-1
 232.45 1120 l 1,18,-1
 232.45 1438 l 1,19,-1
 554.65 1438 l 1,0,-1
EndSplineSet
EndChar
StartChar: longs
Encoding: 383 383 383
Width: 849
Flags: W
TeX: 0 0 0 0
Fore
564.9 0 m 1,10,-1
 242.7 0 l 1,11,-1
 242.7 864 l 1,12,-1
 82.5 864 l 1,13,-1
 82.5 1120 l 1,14,-1
 242.7 1120 l 1,15,-1
 242.7 1198 l 2,16,17
 242.7 1381 242.7 1381 334.5 1468.5 c 128,-1,18
 426.3 1556 426.3 1556 618.9 1556 c 2,19,-1
 865.5 1556 l 1,0,-1
 865.5 1321 l 1,1,-1
 687.3 1321 l 2,2,3
 618.9 1321 618.9 1321 591.9 1293.5 c 128,-1,4
 564.9 1265.29 564.9 1265.29 564.9 1198 c 2,5,-1
 564.9 0 l 1,10,-1
EndSplineSet
EndChar
StartChar: florin
Encoding: 402 402 402
Width: 1349
Flags: W
Fore
1268.55 1516 m 1,0,-1
 1268.55 1262 l 1,1,2
 1227.15 1291 1227.15 1291 1189.35 1305 c 128,-1,3
 1151.55 1319 1151.55 1319 1113.75 1319 c 0,4,5
 1032.75 1319 1032.75 1319 987.75 1261.5 c 128,-1,6
 942.75 1204 942.75 1204 918.45 1063 c 1,7,-1
 888.75 895 l 1,8,-1
 1145.25 895 l 1,9,-1
 1145.25 657 l 1,10,-1
 846.45 657 l 1,11,-1
 726.75 -16 l 1,12,13
 689.85 -222 689.85 -222 586.8 -324 c 128,-1,14
 483.75 -426 483.75 -426 311.85 -426 c 0,15,16
 253.35 -426 253.35 -426 193.5 -416 c 128,-1,17
 133.65 -406 133.65 -406 72.4502 -385 c 1,18,-1
 72.4502 -131 l 1,19,20
 113.85 -160 113.85 -160 152.1 -174 c 128,-1,21
 190.35 -188 190.35 -188 227.25 -188 c 0,22,23
 307.35 -188 307.35 -188 351.9 -130.5 c 128,-1,24
 396.45 -73 396.45 -73 422.55 68 c 1,25,-1
 527.85 657 l 1,26,-1
 310.05 657 l 1,27,-1
 310.05 895 l 1,28,-1
 570.15 895 l 1,29,-1
 616.05 1147 l 2,30,31
 653.85 1353 653.85 1353 756 1454.5 c 128,-1,32
 858.15 1556 858.15 1556 1029.15 1556 c 0,33,34
 1088.55 1556 1088.55 1556 1147.95 1546 c 128,-1,35
 1207.35 1536 1207.35 1536 1268.55 1516 c 1,0,-1
EndSplineSet
EndChar
StartChar: uni0194
Encoding: 404 404 404
Width: 1461
Flags: W
TeX: 0 0 0 0
Fore
768.05 510 m 1,3,-1
560.15 762 m 1,0,0
 111.95 1493 l 1,7,-1
 473.75 1493 l 1,8,-1
 768.05 1012 l 1,9,-1
 1061.45 1493 l 1,10,-1
 1425.05 1493 l 1,11,-1
 976.85 762 l 1,5,-1
 1211.1 380.296 1211.1 380.296 1213.55 -14 c 0,0,0
 1215.37 -285.237 1215.37 -285.237 760.85 -290 c 0,0,0
 306.401 -294.857 306.401 -294.857 304.55 -14 c 0,0,0
 302.006 335.34 302.006 335.34 560.15 762 c 1,0,0
768.05 510 m 1,0,0
 607.85 245 607.85 245 607.85 125.6 c 0,0,0
 609.43 -0.0126953 609.43 -0.0126953 762.65 0 c 16,0,0
 918.35 0.0146484 918.35 0.0146484 918.35 130 c 0,0,0
 918.35 278.899 918.35 278.899 768.05 510 c 1,0,0
EndSplineSet
EndChar
StartChar: dotlessj
Encoding: 567 567 567
Width: 654
Flags: W
Fore
177.9 1120 m 1,0,-1
 500.1 1120 l 1,1,-1
 500.1 20 l 2,2,3
 500.1 -205 500.1 -205 402.9 -323.5 c 128,-1,4
 305.7 -442 305.7 -442 121.2 -442 c 2,5,-1
 -38.0996 -442 l 1,6,-1
 -38.0996 -207 l 1,7,-1
 17.7002 -207 l 2,8,9
 109.5 -207 109.5 -207 143.7 -161 c 128,-1,10
 177.9 -115 177.9 -115 177.9 20 c 2,11,-1
 177.9 1120 l 1,0,-1
EndSplineSet
EndChar
StartChar: uni0250
Encoding: 592 592 592
Width: 1309
Flags: W
Fore
636.95 614 m 2,0,1
 737.75 614 737.75 614 788.6 652 c 128,-1,2
 839.45 690 839.45 690 839.45 764 c 0,3,4
 839.45 832 839.45 832 798.5 870.5 c 128,-1,5
 757.55 909 757.55 909 684.65 909 c 0,6,7
 593.75 909 593.75 909 531.65 836.5 c 128,-1,8
 469.55 764 469.55 764 469.55 655 c 2,9,-1
 469.55 614 l 1,10,-1
 636.95 614 l 2,0,1
144.65 479 m 2,11,-1
 144.65 1118 l 1,12,-1
 469.55 1118 l 1,13,-1
 469.55 952 l 1,14,15
 534.35 1054 534.35 1054 615.35 1100.5 c 128,-1,16
 696.35 1147 696.35 1147 812.45 1147 c 0,17,18
 969.05 1147 969.05 1147 1066.7 1045.5 c 128,-1,19
 1164.35 944 1164.35 944 1164.35 782 c 0,20,21
 1164.35 585 1164.35 585 1042.4 493 c 128,-1,22
 920.45 401 920.45 401 659.45 401 c 2,23,-1
 469.55 401 l 1,24,-1
 469.55 373 l 2,25,26
 469.55 288 469.55 288 529.85 248.5 c 128,-1,27
 590.15 209 590.15 209 717.95 209 c 0,28,29
 821.45 209 821.45 209 910.55 232 c 128,-1,30
 999.65 255 999.65 255 1076.15 301 c 1,31,-1
 1076.15 28 l 1,32,33
 972.65 0 972.65 0 868.25 -14.5 c 128,-1,34
 763.85 -29 763.85 -29 659.45 -29 c 0,35,36
 386.75 -29 386.75 -29 265.7 90.5 c 128,-1,37
 144.65 210 144.65 210 144.65 479 c 2,11,-1
EndSplineSet
EndChar
StartChar: uni0251
Encoding: 593 593 593
Width: 1388
Flags: W
TeX: 0 0 0 0
Fore
909.9 956 m 1,0,-1
 909.9 1120 l 1,1,-1
 1233.9 1120 l 1,2,-1
 1233.9 0 l 1,3,-1
 909.9 0 l 1,4,-1
 909.9 162 l 1,5,6
 843.3 63 843.3 63 763.2 17 c 128,-1,7
 683.1 -29 683.1 -29 577.8 -29 c 0,8,9
 391.5 -29 391.5 -29 271.8 135.5 c 128,-1,10
 152.1 300 152.1 300 152.1 559 c 0,11,12
 152.1 818 152.1 818 271.8 982.5 c 128,-1,13
 391.5 1147 391.5 1147 577.8 1147 c 0,14,15
 682.2 1147 682.2 1147 762.75 1100.5 c 128,-1,16
 843.3 1054 843.3 1054 909.9 956 c 1,0,-1
697.5 231 m 0,17,18
 801 231 801 231 855.45 315 c 128,-1,19
 909.9 399 909.9 399 909.9 559 c 0,20,21
 909.9 719 909.9 719 855.45 803 c 128,-1,22
 801 887 801 887 697.5 887 c 0,23,24
 594.9 887 594.9 887 540.45 803 c 128,-1,25
 486 719 486 719 486 559 c 0,26,27
 486 399 486 399 540.45 315 c 128,-1,28
 594.9 231 594.9 231 697.5 231 c 0,17,18
EndSplineSet
EndChar
StartChar: uni0252
Encoding: 594 594 594
Width: 1388
Flags: W
TeX: 0 0 0 0
Fore
476.1 162 m 1,0,-1
 476.1 -2 l 1,1,-1
 152.1 -2 l 1,2,-1
 152.1 1118 l 1,3,-1
 476.1 1118 l 1,4,-1
 476.1 956 l 1,5,6
 542.7 1055 542.7 1055 622.8 1101 c 128,-1,7
 702.9 1147 702.9 1147 808.2 1147 c 0,8,9
 994.5 1147 994.5 1147 1114.2 982.5 c 128,-1,10
 1233.9 818 1233.9 818 1233.9 559 c 0,11,12
 1233.9 300 1233.9 300 1114.2 135.5 c 128,-1,13
 994.5 -29 994.5 -29 808.2 -29 c 0,14,15
 703.8 -29 703.8 -29 623.25 17.5 c 128,-1,16
 542.7 64 542.7 64 476.1 162 c 1,0,-1
688.5 887 m 0,17,18
 585 887 585 887 530.55 803 c 128,-1,19
 476.1 719 476.1 719 476.1 559 c 0,20,21
 476.1 399 476.1 399 530.55 315 c 128,-1,22
 585 231 585 231 688.5 231 c 0,23,24
 791.1 231 791.1 231 845.55 315 c 128,-1,25
 900 399 900 399 900 559 c 0,26,27
 900 719 900 719 845.55 803 c 128,-1,28
 791.1 887 791.1 887 688.5 887 c 0,17,18
EndSplineSet
EndChar
StartChar: uni0253
Encoding: 595 595 595
Width: 1396
Flags: W
TeX: 0 0 0 0
Fore
768.5 231 m 0,0,1
 872 231 872 231 926.45 315 c 0,2,3
 980.9 399 980.9 399 980.9 559 c 0,4,5
 980.9 719 980.9 719 926.45 803 c 0,6,7
 872 887 872 887 768.5 887 c 0,8,9
 665 887 665 887 609.65 802.5 c 0,10,11
 554.3 718 554.3 718 554.3 559 c 0,12,13
 554.3 400 554.3 400 609.65 315.5 c 0,14,15
 665 231 665 231 768.5 231 c 0,0,1
556.1 958.635 m 1,16,17
 621.992 1054.63 621.992 1054.63 701.9 1100.5 c 0,18,19
 782.9 1147 782.9 1147 888.2 1147 c 0,20,21
 1074.5 1147 1074.5 1147 1194.2 982.5 c 0,22,23
 1313.9 818 1313.9 818 1313.9 559 c 0,24,25
 1313.9 300 1313.9 300 1194.2 135.5 c 0,26,27
 1074.5 -29 1074.5 -29 888.2 -29 c 0,28,29
 782.9 -29 782.9 -29 701.9 17.5 c 0,30,31
 620.9 64 620.9 64 554.3 162 c 1,32,-1
 554.3 0 l 1,33,-1
 232.1 0 l 1,34,-1
 232.1 1094 l 2,35,36
 232.1 1317 232.1 1317 331.1 1438 c 0,37,38
 428.3 1556 428.3 1556 612.8 1556 c 2,39,-1
 865.7 1556 l 1,40,-1
 865.7 1321 l 1,41,-1
 716.3 1321 l 2,42,43
 624.5 1321 624.5 1321 590.3 1275 c 0,44,45
 556.1 1229 556.1 1229 556.1 1094 c 2,46,-1
 556.1 958.635 l 1,16,17
EndSplineSet
EndChar
StartChar: uni0254
Encoding: 596 596 596
Width: 1150
Flags: W
Fore
137.45 1085 m 1,0,-1
 137.45 793 l 1,1,2
 203.15 843 203.15 843 269.3 867 c 128,-1,3
 335.45 891 335.45 891 406.55 891 c 0,4,5
 541.55 891 541.55 891 616.7 803.5 c 128,-1,6
 691.85 716 691.85 716 691.85 559 c 0,7,8
 691.85 402 691.85 402 616.7 314.5 c 128,-1,9
 541.55 227 541.55 227 406.55 227 c 0,10,11
 330.95 227 330.95 227 263 252 c 128,-1,12
 195.05 277 195.05 277 137.45 326 c 1,13,-1
 137.45 33 l 1,14,15
 213.05 2 213.05 2 290.9 -13.5 c 128,-1,16
 368.75 -29 368.75 -29 447.05 -29 c 0,17,18
 719.75 -29 719.75 -29 873.65 126.5 c 128,-1,19
 1027.55 282 1027.55 282 1027.55 559 c 0,20,21
 1027.55 836 1027.55 836 873.65 991.5 c 128,-1,22
 719.75 1147 719.75 1147 447.05 1147 c 0,23,24
 367.85 1147 367.85 1147 290.9 1131.5 c 128,-1,25
 213.95 1116 213.95 1116 137.45 1085 c 1,0,-1
EndSplineSet
EndChar
StartChar: uni0255
Encoding: 597 597 597
Width: 1150
Flags: W
TeX: 0 0 0 0
Fore
1027.55 1085 m 1,0,-1
 1027.55 793 l 1,1,2
 961.85 843 961.85 843 895.7 867 c 128,-1,3
 829.55 891 829.55 891 758.45 891 c 0,4,5
 623.45 891 623.45 891 548.3 803.5 c 128,-1,6
 473.15 716 473.15 716 473.15 559 c 0,7,8
 473.15 402 473.15 402 548.3 314.5 c 128,-1,9
 623.45 227 623.45 227 758.45 227 c 0,10,11
 834.05 227 834.05 227 902 252 c 128,-1,12
 969.95 277 969.95 277 1027.55 326 c 1,13,-1
 1027.55 33 l 1,14,15
 951.95 2 951.95 2 874.1 -13.5 c 128,-1,16
 796.25 -29 796.25 -29 717.95 -29 c 0,17,18
 445.25 -29 445.25 -29 291.35 126.5 c 128,-1,19
 137.45 282 137.45 282 137.45 559 c 0,20,21
 137.45 836 137.45 836 291.35 991.5 c 128,-1,22
 445.25 1147 445.25 1147 717.95 1147 c 0,23,24
 797.15 1147 797.15 1147 874.1 1131.5 c 128,-1,25
 951.05 1116 951.05 1116 1027.55 1085 c 1,0,-1
EndSplineSet
EndChar
StartChar: uni0256
Encoding: 598 598 598
Width: 1388
Flags: W
TeX: 0 0 0 0
Fore
909.9 956 m 1,0,-1
 909.9 1556 l 1,1,-1
 1233.9 1556 l 1,2,-1
 1233.9 0 l 1,3,-1
 909.9 0 l 1,4,-1
 909.9 162 l 1,5,6
 843.3 63 843.3 63 763.2 17 c 128,-1,7
 683.1 -29 683.1 -29 577.8 -29 c 0,8,9
 391.5 -29 391.5 -29 271.8 135.5 c 128,-1,10
 152.1 300 152.1 300 152.1 559 c 0,11,12
 152.1 818 152.1 818 271.8 982.5 c 128,-1,13
 391.5 1147 391.5 1147 577.8 1147 c 0,14,15
 682.2 1147 682.2 1147 762.75 1100.5 c 128,-1,16
 843.3 1054 843.3 1054 909.9 956 c 1,0,-1
697.5 231 m 0,17,18
 801 231 801 231 855.45 315 c 128,-1,19
 909.9 399 909.9 399 909.9 559 c 0,20,21
 909.9 719 909.9 719 855.45 803 c 128,-1,22
 801 887 801 887 697.5 887 c 0,23,24
 594.9 887 594.9 887 540.45 803 c 128,-1,25
 486 719 486 719 486 559 c 0,26,27
 486 399 486 399 540.45 315 c 128,-1,28
 594.9 231 594.9 231 697.5 231 c 0,17,18
EndSplineSet
EndChar
StartChar: uni0257
Encoding: 599 599 599
Width: 1546
Flags: W
TeX: 0 0 0 0
Fore
714.8 231 m 0,0,1
 818.3 231 818.3 231 872.75 315 c 0,2,3
 927.2 399 927.2 399 927.2 559 c 0,4,5
 927.2 719 927.2 719 872.75 803 c 0,6,7
 818.3 887 818.3 887 714.8 887 c 0,8,9
 612.2 887 612.2 887 557.75 803 c 0,10,11
 503.3 719 503.3 719 503.3 559 c 0,12,13
 503.3 399 503.3 399 557.75 315 c 0,14,15
 612.2 231 612.2 231 714.8 231 c 0,0,1
927.2 956 m 1,16,-1
 929 1094 l 2,17,18
 931.956 1320.61 931.956 1320.61 1028 1438 c 0,19,20
 1125.2 1556 1125.2 1556 1309.7 1556 c 2,21,-1
 1562.6 1556 l 1,22,-1
 1562.6 1321 l 1,23,-1
 1413.2 1321 l 2,24,25
 1321.4 1321 1321.4 1321 1287.2 1275 c 0,26,27
 1253 1229 1253 1229 1253 1094 c 2,28,-1
 1251.2 0 l 1,29,-1
 927.2 0 l 1,30,-1
 927.2 162 l 1,31,32
 860.6 63 860.6 63 780.5 17 c 0,33,34
 700.4 -29 700.4 -29 595.1 -29 c 0,35,36
 408.8 -29 408.8 -29 289.1 135.5 c 0,37,38
 169.4 300 169.4 300 169.4 559 c 0,39,40
 169.4 818 169.4 818 289.1 982.5 c 0,41,42
 408.8 1147 408.8 1147 595.1 1147 c 0,43,44
 699.5 1147 699.5 1147 780.05 1100.5 c 0,45,46
 821.337 1076.67 821.337 1076.67 877.826 1012.17 c 0,47,48
 920.761 963.155 920.761 963.155 927.2 956 c 1,16,-1
EndSplineSet
EndChar
StartChar: uni0258
Encoding: 600 600 600
Width: 1319
Flags: W
Fore
148.1 563 m 2,0,-1
 148.1 829 148.1 829 290.75 988 c 128,-1,20
 433.4 1147 433.4 1147 671 1147 c 0,18,19
 932 1147 932 1147 1080.95 990 c 128,-1,17
 1229.9 833 1229.9 833 1229.9 559 c 0,15,16
 1229.9 280 1229.9 280 1078.25 125.5 c 128,-1,14
 926.6 -29 926.6 -29 653 -29 c 0,12,13
 538.7 -29 538.7 -29 424.4 -4.5 c 128,-1,11
 310.1 20 310.1 20 195.8 68 c 1,9,10
 195.8 344 l 1,8,-1
 308.3 276 308.3 276 414.95 242.5 c 128,-1,7
 521.6 209 521.6 209 623.3 209 c 0,5,6
 749.3 209 749.3 209 819.5 272 c 128,-1,4
 889.7 335 889.7 335 901.4 461 c 1,2,3
 148.1 461 l 1,1,-1
 148.1 563 l 2,0,-1
479.3 682 m 1,21,22
 897.8 682 l 1,27,-1
 883.4 792 883.4 792 824.9 850.5 c 128,-1,26
 766.4 909 766.4 909 672.8 909 c 0,24,25
 586.4 909 586.4 909 532.85 846.5 c 128,-1,23
 479.3 784 479.3 784 479.3 682 c 1,21,22
EndSplineSet
EndChar
StartChar: uni0259
Encoding: 601 601 601
Width: 1319
Flags: W
Fore
148.1 555 m 2,0,-1
 148.1 657 l 1,1,-1
 901.4 657 l 1,2,3
 889.7 783 889.7 783 819.5 846 c 128,-1,4
 749.3 909 749.3 909 623.3 909 c 0,5,6
 521.6 909 521.6 909 414.95 875.5 c 128,-1,7
 308.3 842 308.3 842 195.8 774 c 1,8,-1
 195.8 1050 l 1,9,10
 310.1 1098 310.1 1098 424.4 1122.5 c 128,-1,11
 538.7 1147 538.7 1147 653 1147 c 0,12,13
 926.6 1147 926.6 1147 1078.25 992.5 c 128,-1,14
 1229.9 838 1229.9 838 1229.9 559 c 0,15,16
 1229.9 285 1229.9 285 1080.95 128 c 128,-1,17
 932 -29 932 -29 671 -29 c 0,18,19
 433.4 -29 433.4 -29 290.75 130 c 128,-1,20
 148.1 289 148.1 289 148.1 555 c 2,0,-1
479.3 436 m 1,21,22
 479.3 334 479.3 334 532.85 271.5 c 128,-1,23
 586.4 209 586.4 209 672.8 209 c 0,24,25
 766.4 209 766.4 209 824.9 267.5 c 128,-1,26
 883.4 326 883.4 326 897.8 436 c 1,27,-1
 479.3 436 l 1,21,22
EndSplineSet
EndChar
StartChar: uni025A
Encoding: 602 602 602
Width: 1711
Flags: W
TeX: 0 0 0 0
Fore
925.564 540.125 m 1,0,-1
 543.287 294.961 l 1,1,2
 551.171 282.638 551.171 282.638 560.614 271.5 c 0,3,4
 614.165 209 614.165 209 700.564 209 c 0,5,6
 794.165 209 794.165 209 852.665 267.5 c 0,7,8
 911.165 326 911.165 326 925.564 436 c 2,9,-1
 925.564 540.125 l 1,0,-1
1239.75 736.047 m 1,10,11
 1257.67 654.875 1257.67 654.875 1257.67 559 c 0,12,13
 1257.67 285 1257.67 285 1108.71 128 c 0,14,15
 959.765 -29 959.765 -29 698.765 -29 c 0,16,17
 461.165 -29 461.165 -29 318.515 130 c 0,18,19
 241.242 216.131 241.242 216.131 205.828 333.671 c 1,20,-1
 897.665 777.484 l 1,21,22
 877.987 818.459 877.987 818.459 847.265 846 c 0,23,24
 776.988 909 776.988 909 651.064 909 c 0,25,26
 549.364 909 549.364 909 442.715 875.5 c 0,27,28
 336.064 842 336.064 842 223.564 774 c 1,29,-1
 223.564 1050 l 1,30,31
 337.864 1098 337.864 1098 452.165 1122.5 c 0,32,33
 566.465 1147 566.465 1147 680.765 1147 c 0,34,35
 954.364 1147 954.364 1147 1106.01 992.5 c 0,36,37
 1129.24 968.836 1129.24 968.836 1148.91 942.25 c 1,38,-1
 1346.76 1072 l 1,39,-1
 1525.86 1073.55 l 1,40,-1
 1525.86 903.35 l 2,41,42
 1525.86 727.396 1525.86 727.396 1560.06 671.05 c 0,43,44
 1594.26 615.85 1594.26 615.85 1688.76 615.85 c 2,45,-1
 1727.46 615.85 l 1,46,-1
 1727.46 436.45 l 1,47,-1
 1641.06 436.45 l 2,48,49
 1476.24 436.45 1476.24 436.45 1405.26 546.85 c 0,50,51
 1346.63 638.067 1346.63 638.067 1346.76 804 c 1,52,-1
 1239.75 736.047 l 1,10,11
EndSplineSet
EndChar
StartChar: uni025B
Encoding: 603 603 603
Width: 1055
Flags: W
TeX: 0 0 0 0
Fore
341.263 573 m 1,0,1
 215.374 598.553 215.374 598.553 150.822 663 c 128,-1,40
 84.582 729.134 84.582 729.134 84.582 816 c 0,38,39
 84.582 989 84.582 989 210.853 1068 c 128,-1,37
 337.122 1147 337.122 1147 553.438 1147 c 0,35,36
 637.272 1147 637.272 1147 731.457 1135 c 128,-1,34
 826.678 1123 826.678 1123 935.353 1099 c 1,32,33
 935.353 863 l 1,31,-1
 812.606 893.789 812.606 893.789 737.668 903 c 128,-1,30
 640.035 915 640.035 915 636.778 915 c 0,28,29
 526.662 915 526.662 915 481.753 891 c 128,-1,27
 405.162 853.238 405.162 853.238 405.162 804 c 0,25,26
 405.162 735 405.162 735 479.683 705 c 128,-1,24
 535.627 681 535.627 681 629.532 681 c 2,22,23
 734.562 681 l 1,21,-1
 734.562 462 l 1,20,-1
 569.997 462 l 2,19,-1
 525.053 462 525.053 462 467.803 441 c 128,-1,18
 380.862 409.11 380.862 409.11 380.862 330 c 0,16,17
 380.862 240.796 380.862 240.796 474.013 216 c 128,-1,15
 505.319 201 505.319 201 607.258 201 c 0,13,14
 709.723 201 709.723 201 803.907 219 c 128,-1,12
 898.093 236 898.093 236 977.787 270 c 1,10,11
 977.787 34 l 1,9,-1
 877.393 6 877.393 6 784.242 -8 c 128,-1,8
 690.058 -22 690.058 -22 601.048 -22 c 0,6,7
 335.57 -22 335.57 -22 194.293 69 c 128,-1,5
 51.4629 161 51.4629 161 51.4629 273 c 0,3,4
 51.4629 402 51.4629 402 128.052 476 c 128,-1,2
 204.643 550 204.643 550 341.263 573 c 1,0,1
EndSplineSet
EndChar
StartChar: uni025C
Encoding: 604 604 604
Width: 1055
Flags: W
TeX: 0 0 0 0
Fore
687.987 573 m 1,0,1
 824.607 550 824.607 550 901.197 476 c 128,-1,2
 977.787 402 977.787 402 977.787 273 c 0,3,4
 977.787 161 977.787 161 834.957 69 c 128,-1,5
 693.68 -22 693.68 -22 428.202 -22 c 0,6,7
 339.192 -22 339.192 -22 245.008 -8 c 128,-1,8
 151.857 6 151.857 6 51.4629 34 c 1,9,-1
 51.4629 270 l 1,10,11
 131.157 236 131.157 236 225.343 219 c 128,-1,12
 319.527 201 319.527 201 421.992 201 c 0,13,14
 523.932 201 523.932 201 555.237 216 c 128,-1,15
 648.388 240.796 648.388 240.796 648.388 330 c 0,16,17
 648.388 409.11 648.388 409.11 561.447 441 c 128,-1,18
 504.197 462 504.197 462 459.253 462 c 2,19,-1
 294.688 462 l 1,20,-1
 294.688 681 l 1,21,-1
 399.718 681 l 2,22,23
 493.623 681 493.623 681 549.567 705 c 128,-1,24
 624.088 735 624.088 735 624.088 804 c 0,25,26
 624.088 853.238 624.088 853.238 547.497 891 c 128,-1,27
 502.588 915 502.588 915 392.472 915 c 0,28,29
 389.214 915 389.214 915 291.582 903 c 128,-1,30
 216.644 893.789 216.644 893.789 93.8975 863 c 1,31,-1
 93.8975 1099 l 1,32,33
 202.572 1123 202.572 1123 297.793 1135 c 128,-1,34
 391.978 1147 391.978 1147 475.812 1147 c 0,35,36
 692.128 1147 692.128 1147 818.397 1068 c 128,-1,37
 944.668 989 944.668 989 944.668 816 c 0,38,39
 944.668 729.134 944.668 729.134 878.428 663 c 128,-1,40
 813.876 598.553 813.876 598.553 687.987 573 c 1,0,1
EndSplineSet
EndChar
StartChar: uni025D
Encoding: 605 605 605
Width: 1506
Flags: W
TeX: 0 0 0 0
Fore
716.675 573 m 1,0,1
 853.295 550 853.295 550 929.885 476 c 0,2,3
 1006.47 402 1006.47 402 1006.47 273 c 0,4,5
 1006.47 161 1006.47 161 863.645 69 c 0,6,7
 722.367 -22 722.367 -22 456.89 -22 c 0,8,9
 367.88 -22 367.88 -22 273.695 -8 c 0,10,11
 180.545 6 180.545 6 80.1504 34 c 1,12,-1
 80.1504 270 l 1,13,14
 159.845 236 159.845 236 254.03 219 c 0,15,16
 348.215 201 348.215 201 450.68 201 c 0,17,18
 552.619 201 552.619 201 583.925 216 c 0,19,20
 677.075 240.796 677.075 240.796 677.075 330 c 0,21,22
 677.075 409.11 677.075 409.11 590.135 441 c 0,23,24
 532.885 462 532.885 462 487.94 462 c 2,25,-1
 323.375 462 l 1,26,-1
 323.375 681 l 1,27,-1
 428.405 681 l 2,28,29
 522.311 681 522.311 681 578.255 705 c 0,30,31
 652.775 735 652.775 735 652.775 804 c 0,32,33
 652.775 853.238 652.775 853.238 576.185 891 c 0,34,35
 531.275 915 531.275 915 421.159 915 c 0,36,37
 417.901 915 417.901 915 320.27 903 c 0,38,39
 245.331 893.789 245.331 893.789 122.585 863 c 1,40,-1
 122.585 1099 l 1,41,42
 230.561 1122.85 230.561 1122.85 326.48 1135 c 0,43,44
 421.18 1147 421.18 1147 504.5 1147 c 0,45,46
 720.815 1147 720.815 1147 847.085 1068 c 0,47,48
 920.45 1022.1 920.45 1022.1 951.188 944.467 c 1,49,-1
 1142.15 1072 l 1,50,-1
 1321.25 1073.55 l 1,51,-1
 1321.25 903.35 l 2,52,53
 1321.25 727.396 1321.25 727.396 1355.45 671.05 c 0,54,55
 1389.65 615.85 1389.65 615.85 1484.15 615.85 c 2,56,-1
 1522.85 615.85 l 1,57,-1
 1522.85 436.45 l 1,58,-1
 1436.45 436.45 l 2,59,60
 1271.62 436.45 1271.62 436.45 1200.65 546.85 c 0,61,62
 1142.01 638.067 1142.01 638.067 1142.15 804 c 1,63,-1
 860.54 623.389 l 1,64,-1
 859.884 625.961 l 1,65,66
 802.55 590.431 802.55 590.431 716.675 573 c 1,0,1
EndSplineSet
EndChar
StartChar: uni025E
Encoding: 606 606 606
Width: 1325
Flags: W
TeX: 0 0 0 0
Fore
728.884 914.8 m 0,28,29
 429.965 914.8 429.965 914.8 429.184 552 c 1,0,0
 429.184 188.2 429.184 188.2 764.884 188.2 c 0,28,29
 843.153 188.2 843.153 188.2 888.184 216 c 128,-1,27
 947.583 252.671 947.583 252.671 947.583 316 c 0,25,26
 947.583 387.697 947.583 387.697 882.783 420 c 128,-1,24
 839.455 441.6 839.455 441.6 756.783 441.6 c 2,22,23
 608.283 441.6 l 9,0,0
 608.283 661.4 l 1,21,-1
 757.684 661.4 l 2,22,23
 829.537 661.4 829.537 661.4 877.384 684 c 128,-1,24
 947.583 717.988 947.583 717.988 947.583 792 c 0,25,26
 947.583 846.689 947.583 846.689 880.983 882 c 128,-1,27
 817.749 915.527 817.749 915.527 728.884 914.8 c 0,28,29
457.983 1099 m 0,32,33
 558.285 1144 558.285 1144 781.084 1145 c 0,35,36
 1015.65 1145 1015.65 1145 1139.87 1059 c 128,-1,37
 1264.09 972 1264.09 972 1264.09 824 c 0,38,39
 1264.09 725.807 1264.09 725.807 1198.27 650 c 128,-1,40
 1135.89 578.158 1135.89 578.158 983.583 552 c 1,0,1
 1130.73 525.859 1130.73 525.859 1198.27 453 c 128,-1,40
 1264.09 382 1264.09 382 1264.09 279 c 0,38,39
 1264.09 131 1264.09 131 1139.87 45 c 128,-1,37
 1017.41 -40.7676 1017.41 -40.7676 781.084 -42 c 0,35,36
 558.81 -42.9268 558.81 -42.9268 457.983 18 c 0,0,0
 119.584 220.312 119.584 220.312 119.584 552 c 0,0,0
 119.584 947.931 119.584 947.931 457.983 1099 c 0,32,33
EndSplineSet
EndChar
StartChar: uni025F
Encoding: 607 607 607
Width: 663
Flags: W
Fore
186.8 1120 m 1,0,-1
 509 1120 l 1,1,-1
 509 256 l 1,2,-1
 669.2 256 l 1,3,-1
 669.2 0 l 1,4,-1
 509 0 l 1,5,6
 504.633 -210.323 504.633 -210.323 411.8 -323.5 c 0,7,8
 314.6 -442 314.6 -442 130.1 -442 c 2,9,-1
 -29.2002 -442 l 1,10,-1
 -29.2002 -207 l 1,11,-1
 26.5996 -207 l 2,12,13
 118.4 -207 118.4 -207 152.6 -161 c 0,14,15
 184.202 -118.495 184.202 -118.495 186.603 -0 c 1,16,-1
 -4 0 l 1,17,-1
 -4 256 l 1,18,-1
 186.8 256 l 1,19,-1
 186.8 1120 l 1,0,-1
EndSplineSet
EndChar
StartChar: uni0260
Encoding: 608 608 608
Width: 1546
Flags: W
TeX: 0 0 0 0
Fore
714.8 887 m 2,0,1
 614.9 887 614.9 887 559.1 805 c 0,2,3
 503.3 723 503.3 723 503.3 573 c 0,4,5
 503.3 419 503.3 419 557.3 339.5 c 0,6,7
 611.3 260 611.3 260 714.8 260 c 0,8,9
 815.6 260 815.6 260 871.4 342 c 0,10,11
 927.2 424 927.2 424 927.2 573 c 2,12,-1
 927.2 887 l 1,13,-1
 714.8 887 l 2,0,1
927.2 190 m 1,14,15
 860.6 92 860.6 92 780.5 46 c 0,16,17
 700.4 0 700.4 0 595.1 0 c 0,18,19
 410.6 0 410.6 0 290 161.5 c 0,20,21
 169.4 323 169.4 323 169.4 573 c 0,22,23
 169.4 799 169.4 799 290 959.5 c 0,24,25
 410.6 1120 410.6 1120 595.1 1120 c 2,26,-1
 927.2 1120 l 1,27,-1
 929.346 1120 l 1,28,29
 934.85 1324.15 934.85 1324.15 1028 1438 c 0,30,31
 1125.2 1556 1125.2 1556 1309.7 1556 c 2,32,-1
 1562.6 1556 l 1,33,-1
 1562.6 1321 l 1,34,-1
 1413.2 1321 l 2,35,36
 1321.4 1321 1321.4 1321 1287.2 1275 c 0,37,38
 1253 1229 1253 1229 1253 1094 c 2,39,-1
 1253 874 l 1,40,-1
 1251.2 874 l 1,41,-1
 1251.2 113 l 2,42,43
 1251.2 -157 1251.2 -157 1097.75 -299.5 c 0,44,45
 944.3 -442 944.3 -442 652.7 -442 c 0,46,47
 558.2 -442 558.2 -442 470 -426 c 0,48,49
 381.8 -410 381.8 -410 292.7 -377 c 1,50,-1
 292.7 -98 l 1,51,52
 377.3 -152 377.3 -152 458.3 -178.5 c 0,53,54
 539.3 -205 539.3 -205 621.2 -205 c 0,55,56
 779.6 -205 779.6 -205 853.4 -128 c 0,57,58
 927.2 -51 927.2 -51 927.2 113 c 2,59,-1
 927.2 190 l 1,14,15
EndSplineSet
EndChar
StartChar: uni0261
Encoding: 609 609 609
Width: 1388
Flags: W
TeX: 0 0 0 0
Fore
909.9 190 m 1,0,1
 843.3 92 843.3 92 763.2 46 c 128,-1,2
 683.1 0 683.1 0 577.8 0 c 0,3,4
 393.3 0 393.3 0 272.7 161.5 c 128,-1,5
 152.1 323 152.1 323 152.1 573 c 0,6,7
 152.1 799 152.1 799 272.7 959.5 c 128,-1,8
 393.3 1120 393.3 1120 577.8 1120 c 2,9,10
 909.9 1120 l 1,13,-1
 1233.9 1120 l 1,14,-1
 1233.9 113 l 2,15,16
 1233.9 -157 1233.9 -157 1080.45 -299.5 c 128,-1,17
 927 -442 927 -442 635.4 -442 c 0,18,19
 540.9 -442 540.9 -442 452.7 -426 c 128,-1,20
 364.5 -410 364.5 -410 275.4 -377 c 1,21,-1
 275.4 -98 l 1,22,23
 360 -152 360 -152 441 -178.5 c 128,-1,24
 522 -205 522 -205 603.9 -205 c 0,25,26
 762.3 -205 762.3 -205 836.1 -128 c 128,-1,27
 909.9 -51 909.9 -51 909.9 113 c 2,28,-1
 909.9 190 l 1,0,1
697.5 887 m 1,29,30
 597.6 887 597.6 887 541.8 805 c 128,-1,31
 486 723 486 723 486 573 c 0,32,33
 486 419 486 419 540 339.5 c 128,-1,34
 594 260 594 260 697.5 260 c 0,35,36
 798.3 260 798.3 260 854.1 342 c 128,-1,37
 909.9 424 909.9 424 909.9 573 c 1,38,39
 909.9 887 l 129,-1,40
 697.5 887 l 1,29,30
EndSplineSet
EndChar
StartChar: uni0262
Encoding: 610 610 610
Width: 1216
Flags: W
TeX: 0 0 0 0
Fore
1064.75 101.15 m 1,0,1
 971.44 50.5752 971.44 50.5752 871 25.2871 c 128,-1,2
 770.559 0 770.559 0 663.639 0 c 0,3,4
 421.936 0 421.936 0 280.672 150.642 c 128,-1,5
 139.408 301.282 139.408 301.282 139.408 559.215 c 0,6,7
 139.408 820.037 139.408 820.037 283.264 969.595 c 128,-1,8
 427.12 1119.15 427.12 1119.15 677.248 1119.15 c 0,9,10
 773.8 1119.15 773.8 1119.15 862.252 1098.92 c 128,-1,11
 950.703 1078.69 950.703 1078.69 1029.11 1038.96 c 1,12,-1
 1029.11 802.878 l 1,13,14
 948.113 851.61 948.113 851.61 868.084 875.634 c 128,-1,15
 788.057 899.657 788.057 899.657 707.703 899.657 c 0,16,17
 558.664 899.657 558.664 899.657 477.988 811.457 c 128,-1,18
 397.312 723.259 397.312 723.259 397.312 559.215 c 0,19,20
 397.312 396.544 397.312 396.544 475.072 308.002 c 128,-1,21
 552.832 219.459 552.832 219.459 696.039 219.459 c 0,22,23
 734.92 219.459 734.92 219.459 768.292 224.607 c 128,-1,24
 801.664 229.755 801.664 229.755 828.232 240.736 c 1,25,-1
 827.008 409 l 1,26,-1
 578.608 409 l 1,27,-1
 578.608 630 l 1,28,-1
 1064.61 630 l 1,29,-1
 1064.75 101.15 l 1,0,1
EndSplineSet
EndChar
StartChar: uni0263
Encoding: 611 611 611
Width: 1426
Flags: W
TeX: 0 0 0 0
Fore
908.45 590 m 1,5,-1
 1167.65 205 1167.65 205 1167.65 -179 c 0,0,0
 1168.97 -410.721 1168.97 -410.721 735.65 -415 c 0,0,0
 261.156 -419.848 261.156 -419.848 258.65 -179 c 0,0,0
 257.312 162.713 257.312 162.713 538.55 588 c 1,0,0
 174.95 1135 l 1,0,-1
 516.05 1135 l 1,1,-1
 722.15 803 l 1,2,-1
 930.95 1135 l 1,3,-1
 1272.05 1135 l 1,4,-1
 908.45 590 l 1,5,-1
722.15 369 m 1,0,0
 520.057 58.5127 520.057 58.5127 522.35 -66.5996 c 0,0,0
 524.591 -190.809 524.591 -190.809 716.75 -190.8 c 16,0,0
 900.35 -190.785 900.35 -190.785 900.35 -66.5996 c 0,0,0
 900.35 95 900.35 95 722.15 369 c 1,0,0
EndSplineSet
EndChar
StartChar: uni0264
Encoding: 612 612 612
Width: 1236
Flags: W
TeX: 0 0 0 0
Fore
658.25 136 m 0,0,0
 705.05 136 705.05 136 705.05 222.75 c 0,0,0
 705.05 282.235 705.05 282.235 659.15 354 c 1,0,0
 612.744 280 612.744 280 612.744 222.75 c 0,0,0
 612.559 140 612.559 140 658.25 136 c 0,0,0
470.15 586 m 1,0,0
 111.95 1120 l 1,8,-1
 453.05 1120 l 1,9,-1
 659.15 788 l 1,10,-1
 867.95 1120 l 1,11,-1
 1209.05 1120 l 1,0,-1
 844.55 575 l 1,0,0
 1004.12 335.898 1004.12 335.898 1005.65 132.25 c 0,0,0
 1008.51 -120 1008.51 -120 661.175 -120 c 0,0,0
 304.55 -120 304.55 -120 304.55 132.25 c 0,0,0
 304.55 344 304.55 344 470.15 586 c 1,0,0
EndSplineSet
EndChar
StartChar: uni0265
Encoding: 613 613 613
Width: 1384
Flags: W
Fore
218.3 436 m 2,0,-1
 218.3 1118 l 1,1,-1
 542.3 1118 l 1,2,-1
 542.3 1007 l 1,3,-1
 542.3 598 l 2,4,5
 542.3 451 542.3 451 548.15 396 c 128,-1,6
 554 341 554 341 568.4 315 c 0,7,8
 587.3 280 587.3 280 619.7 260.5 c 128,-1,9
 652.1 241 652.1 241 693.5 241 c 0,10,11
 794.3 241 794.3 241 851.9 327.5 c 128,-1,12
 909.5 414 909.5 414 909.5 567 c 2,13,-1
 909.5 1118 l 1,14,-1
 1231.7 1118 l 1,15,-1
 1231.7 -438 l 1,16,-1
 909.5 -438 l 1,17,-1
 909.5 162 l 1,18,19
 836.6 64 836.6 64 754.7 17.5 c 128,-1,20
 672.8 -29 672.8 -29 573.8 -29 c 0,21,22
 399.2 -29 399.2 -29 308.75 90 c 128,-1,23
 218.3 209 218.3 209 218.3 436 c 2,0,-1
EndSplineSet
EndChar
StartChar: uni0266
Encoding: 614 614 614
Width: 1385
Flags: W
Fore
1241.7 682 m 2,0,-1
 1241.7 0 l 1,1,-1
 917.7 0 l 1,2,-1
 917.7 111 l 1,3,-1
 917.7 520 l 2,4,5
 917.7 667 917.7 667 911.85 722 c 0,6,7
 906 777 906 777 891.6 803 c 0,8,9
 872.7 838 872.7 838 840.3 857.5 c 0,10,11
 807.9 877 807.9 877 766.5 877 c 0,12,13
 665.7 877 665.7 877 608.1 790.5 c 0,14,15
 550.5 704 550.5 704 550.5 551 c 2,16,-1
 550.5 0 l 1,17,-1
 228.3 0 l 1,18,-1
 228.3 1094 l 2,19,20
 228.3 1317 228.3 1317 327.3 1438 c 0,21,22
 424.5 1556 424.5 1556 609 1556 c 2,23,-1
 861.9 1556 l 1,24,-1
 861.9 1321 l 1,25,-1
 712.5 1321 l 2,26,27
 620.7 1321 620.7 1321 586.5 1275 c 0,28,29
 552.3 1229 552.3 1229 552.3 1094 c 2,30,-1
 552.3 958.41 l 1,31,32
 624.411 1054.57 624.411 1054.57 705.3 1100.5 c 0,33,34
 787.2 1147 787.2 1147 886.2 1147 c 0,35,36
 1060.8 1147 1060.8 1147 1151.25 1028 c 0,37,38
 1241.7 909 1241.7 909 1241.7 682 c 2,0,-1
EndSplineSet
EndChar
StartChar: uni0267
Encoding: 615 615 615
Width: 1385
Flags: W
Fore
552.3 958.41 m 1,0,1
 624.411 1054.57 624.411 1054.57 705.3 1100.5 c 0,2,3
 787.2 1147 787.2 1147 886.2 1147 c 0,4,5
 1060.8 1147 1060.8 1147 1151.25 1028 c 0,6,7
 1241.7 909 1241.7 909 1241.7 682 c 2,8,-1
 1241.7 240 l 1,9,-1
 1241.7 20 l 1,10,-1
 1241.7 0 l 2,11,12
 1237.22 -208.483 1237.22 -208.483 1142.7 -324 c 0,13,14
 1045.5 -442 1045.5 -442 861 -442 c 2,15,-1
 608.1 -442 l 1,16,-1
 608.1 -207 l 1,17,-1
 757.5 -207 l 2,18,19
 849.3 -207 849.3 -207 883.5 -161 c 0,20,21
 917.7 -115 917.7 -115 917.7 20 c 2,22,-1
 917.7 111 l 1,23,-1
 917.7 240 l 1,24,-1
 917.7 520 l 2,25,26
 917.7 667 917.7 667 911.85 722 c 0,27,28
 906 777 906 777 891.6 803 c 0,29,30
 872.7 838 872.7 838 840.3 857.5 c 0,31,32
 807.9 877 807.9 877 766.5 877 c 0,33,34
 665.7 877 665.7 877 608.1 790.5 c 0,35,36
 550.5 704 550.5 704 550.5 551 c 2,37,-1
 550.5 0 l 1,38,-1
 228.3 0 l 1,39,-1
 228.3 1094 l 2,40,41
 228.3 1317 228.3 1317 327.3 1438 c 0,42,43
 424.5 1556 424.5 1556 609 1556 c 2,44,-1
 861.9 1556 l 1,45,-1
 861.9 1321 l 1,46,-1
 712.5 1321 l 2,47,48
 620.7 1321 620.7 1321 586.5 1275 c 0,49,50
 552.3 1229 552.3 1229 552.3 1094 c 2,51,-1
 552.3 958.41 l 1,0,1
EndSplineSet
EndChar
StartChar: uni0268
Encoding: 616 616 616
Width: 1061
Flags: W
Fore
403.25 1556 m 1,0,-1
 725.45 1556 l 1,1,-1
 725.45 1264 l 1,2,-1
 403.25 1264 l 1,3,-1
 403.25 1556 l 1,0,-1
403.25 1120 m 1,4,-1
 725.45 1120 l 1,5,-1
 725.45 632 l 1,6,-1
 906.35 632 l 1,7,-1
 906.35 438 l 1,8,-1
 725.45 438 l 1,9,-1
 725.45 0 l 1,10,-1
 403.25 0 l 1,11,-1
 403.25 438 l 1,12,-1
 210.65 438 l 1,13,-1
 210.65 632 l 1,14,-1
 403.25 632 l 1,15,-1
 403.25 1120 l 1,4,-1
EndSplineSet
EndChar
StartChar: uni0269
Encoding: 617 617 617
Width: 856
Flags: W
TeX: 0 0 0 0
Fore
198 1120 m 9,0,0
 522 1120 l 9,0,0
 522 460 l 2,11,-1
 522 325 522 325 556.2 279 c 128,-1,10
 596.812 224.375 596.812 224.375 682.2 233 c 2,8,9
 702 235 l 1,7,-1
 702 0 l 1,6,-1
 578.7 -2 l 2,5,-1
 397.533 -4.93848 397.533 -4.93848 297 116 c 128,-1,4
 198 235.829 198 235.829 198 460 c 2,2,3
 198 1120 l 9,0,0
EndSplineSet
EndChar
StartChar: uni026A
Encoding: 618 618 618
Width: 1061
Flags: W
TeX: 0 0 0 0
Fore
906.35 235 m 1,0,-1
 906.35 0 l 1,1,-1
 726.35 0 l 1,2,-1
 404.15 0 l 1,3,-1
 210.65 0 l 1,4,-1
 210.65 235 l 1,5,-1
 404.15 235 l 1,6,-1
 404.15 885 l 1,7,-1
 210.65 885 l 1,8,-1
 210.65 1120 l 1,9,-1
 404.15 1120 l 1,10,-1
 726.35 1120 l 1,11,-1
 906.35 1120 l 1,12,-1
 906.35 885 l 1,13,-1
 726.35 885 l 1,14,-1
 726.35 235 l 1,15,-1
 906.35 235 l 1,0,-1
EndSplineSet
EndChar
StartChar: uni026B
Encoding: 619 619 619
Width: 1086
Flags: W
Fore
412.9 1556 m 1,0,-1
 735.1 1556 l 1,1,-1
 735.1 792.358 l 1,2,3
 754.754 799.809 754.754 799.809 767.815 820 c 0,4,5
 788.515 852 788.515 852 788.515 909 c 2,6,-1
 788.515 917 l 1,7,-1
 932.38 917 l 1,8,9
 932.38 781 932.38 781 879.077 707 c 0,10,11
 827.33 635.159 827.33 635.159 735.1 633.062 c 1,12,-1
 735.1 0 l 1,13,-1
 412.9 0 l 1,14,-1
 412.9 761.546 l 1,15,16
 389.682 755.277 389.682 755.277 375.55 733 c 0,17,18
 355.886 702 355.886 702 355.886 643 c 2,19,-1
 355.886 635 l 1,20,-1
 212.02 635 l 1,21,22
 212.02 771 212.02 771 265.323 845 c 0,23,24
 318.076 918.237 318.076 918.237 412.9 918.992 c 1,25,-1
 412.9 1556 l 1,0,-1
EndSplineSet
EndChar
StartChar: uni026C
Encoding: 620 620 620
Width: 1349
Flags: W
TeX: 0 0 0 0
Fore
690.248 1556 m 1,0,-1
 1012.45 1556 l 1,1,-1
 1012.45 813 l 1,2,-1
 1194.25 813 l 1,3,-1
 1194.25 600 l 1,4,-1
 1012.45 600 l 1,5,-1
 1012.45 0 l 1,6,-1
 690.248 0 l 1,7,-1
 690.248 600.435 l 1,8,-1
 505.748 601 l 2,9,10
 229.192 601.846 229.192 601.846 225.849 877 c 0,11,12
 222.042 1190.08 222.042 1190.08 535.448 1188 c 0,13,14
 631.047 1187.36 631.047 1187.36 690.248 1132.86 c 1,15,-1
 690.248 1556 l 1,0,-1
641.648 918 m 0,16,17
 600.405 952 600.405 952 520.148 952 c 0,18,19
 409.968 952 409.968 952 411.248 886 c 0,20,21
 412.705 811 412.705 811 506.648 811 c 2,22,-1
 686.648 811 l 1,23,24
 668.648 895 668.648 895 641.648 918 c 0,16,17
EndSplineSet
EndChar
StartChar: uni026D
Encoding: 621 621 621
Width: 684
Flags: W
Fore
209.2 1556 m 1,0,-1
 533.2 1556 l 1,1,-1
 533.2 20 l 2,2,3
 533.2 -113.88 533.2 -113.88 567.4 -161 c 0,4,5
 600.787 -207 600.787 -207 693.4 -207 c 2,6,-1
 842.8 -207 l 1,7,-1
 842.8 -442 l 1,8,-1
 589.9 -442 l 2,9,10
 404.989 -442 404.989 -442 308.2 -324 c 0,11,12
 209.2 -203 209.2 -203 209.2 0 c 2,13,-1
 209.2 1556 l 1,0,-1
EndSplineSet
EndChar
StartChar: uni026E
Encoding: 622 622 622
Width: 1385
Flags: W
TeX: 0 0 0 0
Fore
917.7 520 m 2,0,1
 917.7 667 917.7 667 911.85 722 c 0,2,3
 906 777 906 777 891.6 803 c 0,4,5
 872.7 838 872.7 838 840.3 857.5 c 0,6,7
 807.9 877 807.9 877 766.5 877 c 0,8,9
 665.7 877 665.7 877 608.1 790.5 c 0,10,11
 550.5 704 550.5 704 550.5 551 c 2,12,-1
 550.5 0 l 1,13,-1
 228.3 0 l 1,14,-1
 228.3 1556 l 1,15,-1
 550.5 1556 l 1,16,-1
 550.5 956 l 1,17,18
 623.4 1054 623.4 1054 705.3 1100.5 c 0,19,20
 787.2 1147 787.2 1147 886.2 1147 c 0,21,22
 1060.8 1147 1060.8 1147 1151.25 1028 c 0,23,24
 1241.7 909 1241.7 909 1241.7 682 c 2,25,-1
 1241.49 0 l 2,26,27
 1237.22 -208.483 1237.22 -208.483 1142.7 -324 c 0,28,29
 1045.5 -442 1045.5 -442 861 -442 c 2,30,-1
 608.1 -442 l 1,31,-1
 608.1 -207 l 1,32,-1
 757.5 -207 l 2,33,34
 849.3 -207 849.3 -207 883.5 -161 c 0,35,36
 917.7 -115 917.7 -115 917.7 20 c 2,37,-1
 917.7 520 l 2,0,1
EndSplineSet
EndChar
StartChar: uni026F
Encoding: 623 623 623
Width: 2026
Flags: W
Fore
937.9 184 m 1,0,1
 876.7 80 876.7 80 792.55 25.5 c 128,-1,2
 708.4 -29 708.4 -29 607.6 -29 c 0,3,4
 433.9 -29 433.9 -29 343 90 c 128,-1,5
 252.1 209 252.1 209 252.1 436 c 2,6,-1
 252.1 1118 l 1,7,-1
 576.1 1118 l 1,8,-1
 576.1 534 l 1,9,10
 575.2 521 575.2 521 574.75 507 c 128,-1,11
 574.3 493 574.3 493 574.3 467 c 0,12,13
 574.3 348 574.3 348 605.8 294.5 c 128,-1,14
 637.3 241 637.3 241 707.5 241 c 0,15,16
 799.3 241 799.3 241 849.25 325 c 128,-1,17
 899.2 409 899.2 409 901 568 c 1,18,-1
 901 1118 l 1,19,-1
 1225 1118 l 1,20,-1
 1225 534 l 2,21,22
 1225 348 1225 348 1253.8 294.5 c 128,-1,23
 1282.6 241 1282.6 241 1356.4 241 c 0,24,25
 1449.1 241 1449.1 241 1499.5 325.5 c 128,-1,26
 1549.9 410 1549.9 410 1549.9 567 c 2,27,-1
 1549.9 1118 l 1,28,-1
 1873.9 1118 l 1,29,-1
 1873.9 -2 l 1,30,-1
 1549.9 -2 l 1,31,-1
 1549.9 162 l 1,32,33
 1490.5 67 1490.5 67 1413.55 19 c 128,-1,34
 1336.6 -29 1336.6 -29 1243.9 -29 c 0,35,36
 1139.5 -29 1139.5 -29 1059.4 27 c 128,-1,37
 979.3 83 979.3 83 937.9 184 c 1,0,1
EndSplineSet
EndChar
StartChar: uni0270
Encoding: 624 624 624
Width: 2026
Flags: W
Fore
937.9 184 m 1,0,1
 876.7 80 876.7 80 792.55 25.5 c 128,-1,2
 708.4 -29 708.4 -29 607.6 -29 c 0,3,4
 433.9 -29 433.9 -29 343 90 c 128,-1,5
 252.1 209 252.1 209 252.1 436 c 2,6,-1
 252.1 1118 l 1,7,-1
 576.1 1118 l 1,8,-1
 576.1 534 l 1,9,10
 575.2 521 575.2 521 574.75 507 c 128,-1,11
 574.3 493 574.3 493 574.3 467 c 0,12,13
 574.3 348 574.3 348 605.8 294.5 c 128,-1,14
 637.3 241 637.3 241 707.5 241 c 0,15,16
 799.3 241 799.3 241 849.25 325 c 128,-1,17
 899.2 409 899.2 409 901 568 c 1,18,-1
 901 1118 l 1,19,-1
 1225 1118 l 1,20,-1
 1225 534 l 2,21,22
 1225 348 1225 348 1253.8 294.5 c 128,-1,23
 1282.6 241 1282.6 241 1356.4 241 c 0,24,25
 1449.1 241 1449.1 241 1499.5 325.5 c 128,-1,26
 1549.9 410 1549.9 410 1549.9 567 c 2,27,-1
 1549.9 1118 l 1,28,-1
 1873.9 1118 l 1,29,-1
 1873.9 -428 l 1,30,-1
 1549.9 -428 l 1,31,-1
 1549.9 162 l 1,32,33
 1490.5 67 1490.5 67 1413.55 19 c 128,-1,34
 1336.6 -29 1336.6 -29 1243.9 -29 c 0,35,36
 1139.5 -29 1139.5 -29 1059.4 27 c 128,-1,37
 979.3 83 979.3 83 937.9 184 c 1,0,1
EndSplineSet
EndChar
StartChar: uni0271
Encoding: 625 625 625
Width: 2027
Flags: W
Fore
1196.2 934 m 1,0,1
 1257.4 1038 1257.4 1038 1341.55 1092.5 c 0,2,3
 1425.7 1147 1425.7 1147 1526.5 1147 c 0,4,5
 1700.2 1147 1700.2 1147 1791.1 1028 c 0,6,7
 1882 909 1882 909 1882 682 c 2,8,-1
 1883.8 20 l 2,9,10
 1883.8 -203 1883.8 -203 1784.8 -324 c 0,11,12
 1687.6 -442 1687.6 -442 1503.1 -442 c 2,13,-1
 1250.2 -442 l 1,14,-1
 1250.2 -207 l 1,15,-1
 1399.6 -207 l 2,16,17
 1491.4 -207 1491.4 -207 1525.6 -161 c 0,18,19
 1559.57 -115.313 1559.57 -115.313 1559.6 0 c 2,20,-1
 1559.8 651 l 2,21,22
 1559.8 770 1559.8 770 1528.3 823.5 c 0,23,24
 1496.8 877 1496.8 877 1426.6 877 c 0,25,26
 1334.8 877 1334.8 877 1284.85 793 c 0,27,28
 1234.9 709 1234.9 709 1233.1 550 c 2,29,-1
 1233.1 0 l 1,30,-1
 909.1 0 l 1,31,-1
 909.1 584 l 2,32,33
 909.1 770 909.1 770 880.3 823.5 c 0,34,35
 851.5 877 851.5 877 777.7 877 c 0,36,37
 685 877 685 877 634.6 792.5 c 0,38,39
 584.2 708 584.2 708 584.2 551 c 2,40,-1
 584.2 0 l 1,41,-1
 260.2 0 l 1,42,-1
 260.2 1120 l 1,43,-1
 584.2 1120 l 1,44,-1
 584.2 956 l 1,45,46
 643.6 1051 643.6 1051 720.55 1099 c 0,47,48
 797.5 1147 797.5 1147 890.2 1147 c 0,49,50
 994.6 1147 994.6 1147 1074.7 1091 c 0,51,52
 1154.8 1035 1154.8 1035 1196.2 934 c 1,0,1
EndSplineSet
EndChar
StartChar: uni0272
Encoding: 626 626 626
Width: 1368
Flags: W
Fore
1224.4 682 m 2,0,-1
 1224.4 0 l 1,1,-1
 900.4 0 l 1,2,-1
 900.4 111 l 1,3,-1
 900.4 522 l 2,4,5
 900.4 667 900.4 667 894.55 722 c 0,6,7
 888.7 777 888.7 777 874.3 803 c 0,8,9
 855.4 838 855.4 838 823 857.5 c 0,10,11
 790.6 877 790.6 877 749.2 877 c 0,12,13
 648.4 877 648.4 877 590.8 790.5 c 0,14,15
 533.2 704 533.2 704 533.2 551 c 2,16,-1
 533.2 240 l 1,17,-1
 533.2 20 l 1,18,-1
 533.2 0 l 2,19,20
 528.715 -208.483 528.715 -208.483 434.2 -324 c 0,21,22
 337 -442 337 -442 152.5 -442 c 2,23,-1
 -100.4 -442 l 1,24,-1
 -100.4 -207 l 1,25,-1
 49 -207 l 2,26,27
 139.084 -207 139.084 -207 175 -161 c 0,28,29
 210.998 -114.895 210.998 -114.895 210.998 20 c 2,30,-1
 210.998 240 l 1,31,-1
 210.998 1120 l 1,32,-1
 533.2 1120 l 1,33,-1
 533.2 956 l 1,34,35
 606.1 1054 606.1 1054 688 1100.5 c 0,36,37
 769.9 1147 769.9 1147 868.9 1147 c 0,38,39
 1043.5 1147 1043.5 1147 1133.95 1028 c 0,40,41
 1224.4 909 1224.4 909 1224.4 682 c 2,0,-1
EndSplineSet
EndChar
StartChar: uni0273
Encoding: 627 627 627
Width: 1552
Flags: W
Fore
929.5 722 m 2,0,1
 927.087 771.598 927.087 771.598 908.8 803 c 0,2,3
 890.325 836.725 890.325 836.725 857.5 858 c 0,4,5
 823.3 877 823.3 877 783.7 877 c 0,6,7
 690.787 877 690.787 877 625.3 790 c 0,8,9
 567.7 714.87 567.7 714.87 567.7 551 c 2,10,-1
 567.7 0 l 1,11,-1
 245.5 0 l 1,12,-1
 245.5 1120 l 1,13,-1
 567.7 1120 l 1,14,-1
 567.7 956 l 1,15,16
 642.807 1056.45 642.807 1056.45 722.5 1100 c 0,17,18
 803.135 1147 803.135 1147 903.4 1147 c 0,19,20
 1076.71 1147 1076.71 1147 1168.9 1028 c 0,21,22
 1258.9 908.303 1258.9 908.303 1258.9 682 c 2,23,-1
 1258.9 20 l 2,24,25
 1258.9 -113.88 1258.9 -113.88 1293.1 -161 c 0,26,27
 1326.49 -207 1326.49 -207 1419.1 -207 c 2,28,-1
 1568.5 -207 l 1,29,-1
 1568.5 -442 l 1,30,-1
 1315.6 -442 l 2,31,32
 1130.69 -442 1130.69 -442 1033.9 -324 c 0,33,34
 929.5 -196.4 929.5 -196.4 929.5 0 c 2,35,-1
 929.5 722 l 2,0,1
EndSplineSet
EndChar
StartChar: uni0274
Encoding: 628 628 628
Width: 1242
Flags: W
TeX: 0 0 0 0
Fore
98.1504 1120 m 1,0,-1
 485.15 1120 l 1,1,-1
 762.35 469 l 1,2,-1
 762.35 1120 l 1,3,-1
 1090.85 1120 l 1,4,-1
 1090.85 0 l 1,5,-1
 703.85 0 l 1,6,-1
 426.65 651 l 1,7,-1
 426.65 0 l 1,8,-1
 98.1504 0 l 1,9,-1
 98.1504 1120 l 1,0,-1
EndSplineSet
EndChar
StartChar: uni0275
Encoding: 629 629 629
Width: 1336
Flags: W
Fore
704.85 1147 m 0,0,1
 964.95 1147 964.95 1147 1111.2 991 c 0,2,3
 1257.45 835 1257.45 835 1257.45 559 c 0,4,5
 1257.45 283 1257.45 283 1111.2 127 c 0,6,7
 964.95 -29 964.95 -29 704.85 -29 c 0,8,9
 443.85 -29 443.85 -29 296.7 127 c 0,10,11
 149.55 283 149.55 283 149.55 559 c 0,12,13
 149.55 835 149.55 835 296.7 991 c 0,14,15
 443.85 1147 443.85 1147 704.85 1147 c 0,0,1
704.85 891 m 0,16,17
 597.75 891 597.75 891 541.5 805.5 c 0,18,19
 498.764 740.541 498.764 740.541 488.496 632 c 1,20,-1
 886.65 632 l 1,21,-1
 918.53 632 l 1,22,23
 908.345 740.541 908.345 740.541 865.95 805.5 c 0,24,25
 810.15 891 810.15 891 704.85 891 c 0,16,17
912.073 438 m 1,26,-1
 564.45 438 l 1,27,-1
 495.005 438 l 1,28,29
 508.674 362.394 508.674 362.394 541.5 312.5 c 0,30,31
 597.75 227 597.75 227 704.85 227 c 0,32,33
 810.15 227 810.15 227 865.95 312.5 c 0,34,35
 898.513 362.395 898.513 362.395 912.073 438 c 1,26,-1
EndSplineSet
EndChar
StartChar: uni0276
Encoding: 630 630 630
Width: 1763
Flags: W
TeX: 0 0 0 0
Fore
897.213 901.5 m 1,0,-1
 797.312 901.5 l 2,1,2
 641.253 901.5 641.253 901.5 564.032 816.75 c 128,-1,3
 486.812 732 486.812 732 486.812 561 c 0,4,5
 486.812 389.25 486.812 389.25 564.303 303.75 c 128,-1,6
 641.793 218.25 641.793 218.25 797.312 218.25 c 2,7,-1
 897.213 218.25 l 1,8,-1
 897.213 901.5 l 1,0,-1
835.112 1119.75 m 2,9,-1
 1596.51 1119.75 l 1,10,-1
 1596.51 901.5 l 1,11,-1
 1221.21 901.5 l 1,12,-1
 1221.21 693 l 1,13,-1
 1570.19 693 l 1,14,-1
 1570.19 474.75 l 1,15,-1
 1221.21 474.75 l 1,16,-1
 1221.21 218.25 l 1,17,-1
 1612.04 218.25 l 1,18,-1
 1612.04 0 l 1,19,-1
 835.112 0 l 2,20,21
 826.338 0 826.338 0 810.475 -0.75 c 128,-1,22
 794.612 -1.5 794.612 -1.5 786.513 -1.5 c 0,23,24
 488.162 -1.5 488.162 -1.5 328.188 144.375 c 128,-1,25
 168.213 290.25 168.213 290.25 168.213 561 c 0,26,27
 168.213 831 168.213 831 328.188 976.125 c 128,-1,28
 488.162 1121.25 488.162 1121.25 786.513 1121.25 c 0,29,30
 793.938 1121.25 793.938 1121.25 810.138 1120.5 c 128,-1,31
 826.338 1119.75 826.338 1119.75 835.112 1119.75 c 2,9,-1
EndSplineSet
EndChar
StartChar: uni0277
Encoding: 631 631 631
Width: 1315
Flags: W
TeX: 0 0 0 0
Fore
789.68 565.771 m 0,28,29
 789.68 919.447 789.68 919.447 593.949 920 c 1,0,0
 397.317 920 397.317 920 397.317 563.955 c 0,28,29
 397.317 403.912 397.317 403.912 412.329 334.207 c 128,-1,27
 426.549 264 426.549 264 447.249 264 c 0,25,26
 477.6 264 477.6 264 487.749 342 c 128,-1,24
 495.188 399.163 495.188 399.163 494.913 489.515 c 2,22,23
 494.589 596.01 l 9,0,0
 692.409 596.01 l 1,21,-1
 692.445 488.451 l 2,22,23
 692.479 391.56 692.479 391.56 699.249 346.972 c 128,-1,24
 711.849 264 711.849 264 736.149 264 c 0,25,26
 759.898 263.443 759.898 263.443 771.969 342.717 c 128,-1,27
 790.051 461.464 790.051 461.464 789.68 565.771 c 0,28,29
1086.25 828.495 m 0,32,33
 1126.75 725.407 1126.75 725.407 1127.65 496.42 c 0,35,36
 1127.65 255.337 1127.65 255.337 1050.25 127.668 c 128,-1,37
 971.949 0 971.949 0 838.749 0 c 0,38,39
 750.375 0 750.375 0 682.149 67.6455 c 128,-1,40
 617.491 131.753 617.491 131.753 593.949 288.295 c 1,0,1
 570.422 137.062 570.422 137.062 504.849 67.6455 c 128,-1,40
 440.949 0 440.949 0 348.249 0 c 0,38,39
 215.049 0 215.049 0 137.649 127.668 c 128,-1,37
 60.458 253.527 60.458 253.527 59.3486 496.42 c 0,35,36
 58.4346 709.211 58.4346 709.211 101.649 828.495 c 0,0,0
 227.649 1176.29 227.649 1176.29 593.949 1176.29 c 0,0,0
 950.288 1176.29 950.288 1176.29 1086.25 828.495 c 0,32,33
EndSplineSet
EndChar
StartChar: uni0278
Encoding: 632 632 632
Width: 1503
Flags: W
TeX: 0 0 0 0
Fore
1135.75 -191 m 1,0,-1
 1135.75 -426 l 1,1,-1
 955.75 -426 l 1,2,-1
 633.55 -426 l 1,3,-1
 440.05 -426 l 1,4,-1
 440.05 -191 l 1,5,-1
 633.55 -191 l 1,6,-1
 633.55 -19.0801 l 1,7,8
 415.543 10.3389 415.543 10.3389 305.5 127 c 0,9,10
 158.35 283 158.35 283 158.35 559 c 0,11,12
 158.35 835.037 158.35 835.037 305.5 991 c 0,13,14
 415.566 1107.66 415.566 1107.66 633.55 1137.08 c 1,15,-1
 633.55 1321 l 1,16,-1
 440.05 1321 l 1,17,-1
 440.05 1556 l 1,18,-1
 633.55 1556 l 1,19,-1
 955.75 1556 l 1,20,-1
 1135.75 1556 l 1,21,-1
 1135.75 1321 l 1,22,-1
 955.75 1321 l 1,23,-1
 955.75 1136.52 l 1,24,25
 1170.05 1106.57 1170.05 1106.57 1278.4 991 c 0,26,27
 1424.65 835 1424.65 835 1424.65 559 c 0,28,29
 1424.65 282.917 1424.65 282.917 1278.4 127 c 0,30,31
 1170 11.4375 1170 11.4375 955.75 -18.5186 c 1,32,-1
 955.75 -191 l 1,33,-1
 1135.75 -191 l 1,0,-1
633.55 250.388 m 1,34,-1
 633.55 867.612 l 1,35,36
 577.131 846.283 577.131 846.283 550.3 805.5 c 0,37,38
 494.05 720 494.05 720 494.05 559 c 0,39,40
 494.05 398 494.05 398 550.3 312.5 c 0,41,42
 577.131 271.717 577.131 271.717 633.55 250.388 c 1,34,-1
955.75 865.572 m 1,43,-1
 955.75 252.405 l 1,44,45
 1007.77 273.606 1007.77 273.606 1033.15 312.5 c 0,46,47
 1088.95 398 1088.95 398 1088.95 559 c 0,48,49
 1088.95 720.173 1088.95 720.173 1033.15 805.5 c 0,50,51
 1007.72 844.373 1007.72 844.373 955.75 865.572 c 1,43,-1
EndSplineSet
EndChar
StartChar: uni0279
Encoding: 633 633 633
Width: 1050
Flags: W
Fore
213.6 305 m 1,0,1
 255.9 283 255.9 283 297.75 272.5 c 128,-1,2
 339.6 262 339.6 262 381.9 262 c 0,3,4
 506.1 262 506.1 262 573.15 350.5 c 128,-1,5
 640.2 439 640.2 439 640.2 604 c 2,6,-1
 640.2 1120 l 1,7,-1
 962.4 1120 l 1,8,-1
 962.4 0 l 1,9,-1
 640.2 0 l 1,10,-1
 640.2 184 l 1,11,12
 578.1 74 578.1 74 497.55 23.5 c 128,-1,13
 417 -27 417 -27 304.5 -27 c 0,14,15
 288.3 -27 288.3 -27 269.4 -25.5 c 128,-1,16
 250.5 -24 250.5 -24 214.5 -19 c 1,17,-1
 213.6 305 l 1,0,1
EndSplineSet
EndChar
StartChar: uni027A
Encoding: 634 634 634
Width: 1050
Flags: W
Fore
213.6 305 m 1,0,1
 255.9 283 255.9 283 297.75 272.5 c 128,-1,2
 339.6 262 339.6 262 381.9 262 c 0,3,4
 506.1 262 506.1 262 573.15 350.5 c 128,-1,5
 640.2 437.766 640.2 437.766 640.2 604 c 2,6,-1
 640.2 1557 l 1,7,-1
 962.4 1557 l 1,8,-1
 962.4 0 l 1,9,-1
 640.2 0 l 1,10,-1
 640.2 184 l 1,11,12
 578.1 74 578.1 74 497.55 23.5 c 128,-1,13
 417 -27 417 -27 304.5 -27 c 0,14,15
 288.3 -27 288.3 -27 269.4 -25.5 c 128,-1,16
 250.5 -24 250.5 -24 214.5 -19 c 1,17,-1
 213.6 305 l 1,0,1
EndSplineSet
EndChar
StartChar: uni027B
Encoding: 635 635 635
Width: 1273
Flags: W
Fore
230.85 305 m 1,0,1
 273.15 283 273.15 283 315 272.5 c 0,2,3
 356.85 262 356.85 262 399.15 262 c 0,4,5
 523.35 262 523.35 262 590.4 350.5 c 0,6,7
 657.45 439 657.45 439 657.45 604 c 2,8,-1
 657.45 1120 l 1,9,-1
 979.65 1120 l 1,10,-1
 980.55 20 l 2,11,12
 980.55 -115 980.55 -115 1014.75 -161 c 0,13,14
 1048.95 -207 1048.95 -207 1140.75 -207 c 2,15,-1
 1290.15 -207 l 1,16,-1
 1290.15 -442 l 1,17,-1
 1037.25 -442 l 2,18,19
 852.75 -442 852.75 -442 755.55 -324 c 0,20,21
 656.55 -203 656.55 -203 656.55 20 c 2,22,-1
 656.55 182.411 l 1,23,24
 594.767 73.6348 594.767 73.6348 514.8 23.5 c 0,25,26
 434.25 -27 434.25 -27 321.75 -27 c 0,27,28
 305.55 -27 305.55 -27 286.65 -25.5 c 0,29,30
 267.75 -24 267.75 -24 231.75 -19 c 1,31,-1
 230.85 305 l 1,0,1
EndSplineSet
EndChar
StartChar: uni027C
Encoding: 636 636 636
Width: 967
Flags: W
Fore
962.4 815 m 1,0,1
 920.1 837 920.1 837 878.25 847.5 c 128,-1,2
 836.4 858 836.4 858 794.1 858 c 0,3,4
 672.207 858 672.207 858 602.85 769.5 c 128,-1,5
 535.8 683.943 535.8 683.943 535.8 516 c 2,6,-1
 535.8 -426 l 1,7,-1
 213.6 -426 l 1,8,-1
 213.6 1120 l 1,9,-1
 535.8 1120 l 1,10,-1
 535.8 936 l 1,11,12
 597.9 1046 597.9 1046 678.45 1096.5 c 128,-1,13
 759 1147 759 1147 871.5 1147 c 0,14,15
 887.7 1147 887.7 1147 906.6 1145.5 c 128,-1,16
 925.5 1144 925.5 1144 961.5 1139 c 1,17,-1
 962.4 815 l 1,0,1
EndSplineSet
EndChar
StartChar: uni027D
Encoding: 637 637 637
Width: 967
Flags: W
Fore
962.3 815 m 1,0,1
 920 837 920 837 878.15 847.5 c 0,2,3
 836.3 858 836.3 858 794 858 c 0,4,5
 669.8 858 669.8 858 602.75 769.5 c 0,6,7
 535.7 681 535.7 681 535.7 516 c 2,8,-1
 535.7 20 l 2,9,10
 535.7 -115 535.7 -115 569.9 -161 c 0,11,12
 604.1 -207 604.1 -207 695.9 -207 c 2,13,-1
 845.3 -207 l 1,14,-1
 845.3 -442 l 1,15,-1
 592.4 -442 l 2,16,17
 407.9 -442 407.9 -442 310.7 -324 c 0,18,19
 211.7 -203 211.7 -203 211.7 20 c 2,20,-1
 211.7 1120 l 1,21,-1
 535.7 1120 l 1,22,-1
 535.7 936 l 1,23,24
 597.8 1046 597.8 1046 678.35 1096.5 c 0,25,26
 758.9 1147 758.9 1147 871.4 1147 c 0,27,28
 887.6 1147 887.6 1147 906.5 1145.5 c 0,29,30
 925.4 1144 925.4 1144 961.4 1139 c 1,31,-1
 962.3 815 l 1,0,1
EndSplineSet
EndChar
StartChar: uni027E
Encoding: 638 638 638
Width: 961
Flags: W
Fore
207.1 0 m 17,0,0
 206.2 658 l 2,2,3
 205.896 880.623 205.896 880.623 305.2 1002 c 128,-1,4
 402.4 1120 402.4 1120 586.9 1120 c 2,5,-1
 839.8 1120 l 1,6,-1
 839.8 885 l 1,7,-1
 690.4 885 l 2,8,9
 596.414 885 596.414 885 564.4 839 c 128,-1,10
 530.02 789.608 530.02 789.608 530.2 658 c 2,11,-1
 531.1 0 l 17,0,0
 207.1 0 l 17,0,0
EndSplineSet
EndChar
StartChar: uni027F
Encoding: 639 639 639
Width: 961
Flags: W
Fore
838.9 0 m 9,0,0
 514.9 0 l 9,0,0
 515.8 658 l 2,11,-1
 515.98 789.608 515.98 789.608 481.6 839 c 128,-1,10
 449.586 885 449.586 885 355.6 885 c 2,8,9
 206.2 885 l 1,7,-1
 206.2 1120 l 1,6,-1
 459.1 1120 l 2,5,-1
 643.6 1120 643.6 1120 740.8 1002 c 128,-1,4
 840.104 880.623 840.104 880.623 839.8 658 c 2,2,3
 838.9 0 l 9,0,0
EndSplineSet
EndChar
StartChar: uni0280
Encoding: 640 640 640
Width: 1242
Flags: W
Fore
491.45 630 m 2,0,-1
 573.35 630 573.35 630 608.45 662 c 0,9,10
 644.45 694 644.45 694 644.45 767 c 0,7,8
 644.45 839 644.45 839 608.45 871 c 0,5,6
 573.35 901 573.35 901 491.45 901 c 2,3,4
 420.35 901 l 1,2,-1
 420.35 630 l 1,1,-1
 491.45 630 l 2,0,-1
420.35 409 m 1,11,-1
 420.35 0 l 1,34,-1
 98.1504 0 l 1,33,-1
 98.1504 1120 l 1,32,-1
 543.65 1120 l 2,31,-1
 756.05 1120 756.05 1120 855.05 1046 c 0,29,30
 954.05 971 954.05 971 954.05 811 c 0,27,28
 954.05 700 954.05 700 902.75 628 c 0,25,26
 851.45 557 851.45 557 747.95 524 c 1,23,24
 804.65 510 804.65 510 849.65 462 c 0,21,22
 894.756 414.889 894.756 414.889 940.55 318 c 2,19,20
 1090.85 0 l 1,18,-1
 764.15 0 l 1,17,-1
 633.65 278 l 2,16,-1
 600.305 349.033 600.305 349.033 561.65 378 c 0,14,15
 521.15 409 521.15 409 453.65 409 c 2,12,13
 420.35 409 l 1,11,-1
EndSplineSet
EndChar
StartChar: uni0281
Encoding: 641 641 641
Width: 1242
Flags: W
Fore
491.45 490 m 2,0,-1
 420.35 490 l 1,1,-1
 420.35 219 l 1,2,-1
 491.45 219 l 2,3,4
 573.35 219 573.35 219 608.45 249 c 0,5,6
 644.45 281 644.45 281 644.45 353 c 0,7,8
 644.45 426 644.45 426 608.45 458 c 0,9,10
 573.35 490 573.35 490 491.45 490 c 2,0,-1
420.35 711 m 1,11,-1
 453.65 711 l 2,12,13
 521.15 711 521.15 711 561.65 742 c 0,14,15
 600.305 770.967 600.305 770.967 633.65 842 c 2,16,-1
 764.15 1120 l 1,17,-1
 1090.85 1120 l 1,18,-1
 940.55 802 l 2,19,20
 894.756 705.111 894.756 705.111 849.65 658 c 0,21,22
 804.65 610 804.65 610 747.95 596 c 1,23,24
 851.45 563 851.45 563 902.75 492 c 0,25,26
 954.05 420 954.05 420 954.05 309 c 0,27,28
 954.05 149 954.05 149 855.05 74 c 0,29,30
 756.05 0 756.05 0 543.65 0 c 2,31,-1
 98.1504 0 l 1,32,-1
 98.1504 1120 l 1,33,-1
 420.35 1120 l 1,34,-1
 420.35 711 l 1,11,-1
EndSplineSet
EndChar
StartChar: uni0282
Encoding: 642 642 642
Width: 1158
Flags: W
TeX: 0 0 0 0
Fore
1003.7 1085 m 1,0,-1
 1003.7 813 l 1,1,2
 900.2 861 900.2 861 803.9 885 c 0,3,4
 707.6 909 707.6 909 622.1 909 c 0,5,6
 530.3 909 530.3 909 485.75 883.5 c 0,7,8
 441.2 858 441.2 858 441.2 805 c 0,9,10
 441.2 762 441.2 762 474.95 739 c 0,11,12
 508.7 716 508.7 716 596 705 c 2,13,-1
 652.7 696 l 2,14,15
 900.2 661 900.2 661 985.7 581 c 0,16,17
 1071.2 501 1071.2 501 1071.2 330 c 0,18,19
 1071.2 151 1071.2 151 952.4 61 c 0,20,21
 833.6 -29 833.6 -29 597.8 -29 c 0,22,23
 548.307 -29 548.307 -29 497.156 -24.7051 c 1,24,25
 502.111 -123.085 502.111 -123.085 530.3 -161 c 0,26,27
 564.5 -207 564.5 -207 656.3 -207 c 2,28,-1
 805.7 -207 l 1,29,-1
 805.7 -442 l 1,30,-1
 552.8 -442 l 2,31,32
 368.3 -442 368.3 -442 271.1 -324 c 0,33,34
 172.1 -203 172.1 -203 172.1 20 c 2,35,-1
 172.1 41 l 1,36,-1
 172.1 240 l 1,37,-1
 172.1 313 l 1,38,39
 268.4 261 268.4 261 369.65 235 c 0,40,41
 470.9 209 470.9 209 575.3 209 c 0,42,43
 669.8 209 669.8 209 717.5 238 c 0,44,45
 765.2 267 765.2 267 765.2 324 c 0,46,47
 765.2 372 765.2 372 732.35 395.5 c 0,48,49
 699.5 419 699.5 419 601.4 432 c 2,50,-1
 544.7 440 l 2,51,52
 329.162 470.411 329.162 470.411 243.2 551 c 0,53,54
 156.8 632 156.8 632 156.8 797 c 0,55,56
 156.8 975 156.8 975 266.6 1061 c 0,57,58
 376.4 1147 376.4 1147 603.2 1147 c 0,59,60
 692.3 1147 692.3 1147 790.4 1132 c 0,61,62
 888.5 1117 888.5 1117 1003.7 1085 c 1,0,-1
EndSplineSet
EndChar
StartChar: uni0283
Encoding: 643 643 643
Width: 805
Flags: W
Fore
821.4 1556 m 1,0,-1
 821.4 1321 l 1,1,-1
 643.2 1321 l 2,2,3
 574.8 1321 574.8 1321 547.8 1294 c 0,4,5
 520.8 1266 520.8 1266 520.8 1198 c 2,6,-1
 520.8 0 l 2,7,8
 520.8 -205 520.8 -205 423.6 -324 c 0,9,10
 326.4 -442 326.4 -442 141.9 -442 c 2,11,-1
 -17.4004 -442 l 1,12,-1
 -17.4004 -207 l 1,13,-1
 38.4004 -207 l 2,14,15
 130.2 -207 130.2 -207 164.4 -161 c 0,16,17
 198.6 -115 198.6 -115 198.6 20 c 2,18,-1
 198.6 1198 l 2,19,20
 198.6 1381 198.6 1381 290.4 1468 c 0,21,22
 382.2 1556 382.2 1556 574.8 1556 c 2,23,-1
 821.4 1556 l 1,0,-1
EndSplineSet
EndChar
StartChar: uni0284
Encoding: 644 644 644
Width: 846
Flags: W
Fore
862.4 1556 m 1,0,-1
 862.4 1321 l 1,1,-1
 684.2 1321 l 2,2,3
 615.8 1321 615.8 1321 588.8 1293.5 c 0,4,5
 561.8 1266 561.8 1266 561.8 1198 c 0,6,7
 562.274 1117.4 562.274 1117.4 561.8 256 c 1,8,-1
 722 256 l 1,9,-1
 722 0 l 1,10,-1
 561.8 0 l 1,11,12
 557.434 -210.323 557.434 -210.323 464.6 -323.5 c 0,13,14
 367.4 -442 367.4 -442 182.9 -442 c 2,15,-1
 23.5996 -442 l 1,16,-1
 23.5996 -207 l 1,17,-1
 79.4004 -207 l 2,18,19
 171.2 -207 171.2 -207 205.4 -161 c 0,20,21
 237.002 -118.495 237.002 -118.495 239.403 -0 c 1,22,-1
 48.7998 0 l 1,23,-1
 48.7998 256 l 1,24,-1
 239.6 256 l 1,25,-1
 239.6 864 l 1,26,-1
 79.4004 864 l 1,27,-1
 79.4004 1120 l 1,28,-1
 239.6 1120 l 1,29,-1
 239.6 1198 l 2,30,31
 239.6 1381 239.6 1381 331.4 1468.5 c 0,32,33
 423.2 1556 423.2 1556 615.8 1556 c 2,34,-1
 862.4 1556 l 1,0,-1
EndSplineSet
EndChar
StartChar: uni0285
Encoding: 645 645 645
Width: 1178
Flags: W
Fore
218.6 1147 m 1,0,-1
 465.2 1147 l 2,1,2
 657.8 1147 657.8 1147 749.6 1059 c 0,3,4
 841.4 972 841.4 972 841.4 789 c 2,5,-1
 841.4 20 l 2,6,7
 841.4 -115 841.4 -115 875.6 -161 c 0,8,9
 909.8 -207 909.8 -207 1001.6 -207 c 2,10,-1
 1057.4 -207 l 1,11,-1
 1057.4 -442 l 1,12,-1
 898.1 -442 l 2,13,14
 713.6 -442 713.6 -442 616.4 -324 c 0,15,16
 519.2 -205 519.2 -205 519.2 0 c 2,17,-1
 519.2 789 l 2,18,19
 519.2 857 519.2 857 492.2 885 c 0,20,21
 465.2 912 465.2 912 396.8 912 c 2,22,-1
 218.6 912 l 1,23,-1
 218.6 1147 l 1,0,-1
EndSplineSet
EndChar
StartChar: uni0286
Encoding: 646 646 646
Width: 1071
Flags: W
TeX: 0 0 0 0
Fore
306.248 -444 m 1,0,1
 279.123 -444.18 279.123 -444.18 254.375 -442 c 2,2,-1
 248.648 -442 l 1,3,-1
 248.648 -441.461 l 1,4,5
 -6.78809 -415.836 -6.78809 -415.836 -3.35156 -133 c 0,6,7
 -0.00878906 142.154 -0.00878906 142.154 276.549 143 c 2,8,-1
 464.648 143.576 l 1,9,-1
 464.648 1198 l 2,10,11
 464.648 1381 464.648 1381 556.448 1468 c 0,12,13
 648.248 1556 648.248 1556 840.849 1556 c 2,14,-1
 1087.45 1556 l 1,15,-1
 1087.45 1321 l 1,16,-1
 909.248 1321 l 2,17,18
 840.849 1321 840.849 1321 813.849 1294 c 0,19,20
 786.849 1266 786.849 1266 786.849 1198 c 2,21,-1
 786.849 144 l 1,22,-1
 938.049 144 l 1,23,-1
 938.049 -67 l 1,24,25
 888.18 -67.3926 888.18 -67.3926 784.006 -67.5938 c 1,26,27
 770.229 -225.348 770.229 -225.348 689.648 -324 c 0,28,29
 592.448 -442 592.448 -442 407.948 -442 c 2,30,-1
 306.127 -442 l 1,31,32
 306.184 -443.004 306.184 -443.004 306.248 -444 c 1,0,1
459.975 -67.6426 m 1,33,34
 334.555 -67.4502 334.555 -67.4502 277.448 -67 c 0,35,36
 183.505 -67 183.505 -67 182.049 -142 c 0,37,38
 180.925 -199.881 180.925 -199.881 265.494 -207 c 2,39,-1
 304.448 -207 l 2,40,41
 396.248 -207 396.248 -207 430.448 -161 c 0,42,43
 452.007 -132.003 452.007 -132.003 459.975 -67.6426 c 1,33,34
EndSplineSet
EndChar
StartChar: uni0287
Encoding: 647 647 647
Width: 929
Flags: W
Fore
404.35 -318 m 1,0,-1
 404.35 0 l 1,1,-1
 72.25 0 l 1,2,-1
 72.25 256 l 1,3,-1
 404.35 256 l 1,4,-1
 404.35 731 l 2,5,6
 404.35 809 404.35 809 376.45 836.5 c 128,-1,7
 348.55 864 348.55 864 265.75 864 c 2,8,-1
 100.15 864 l 1,9,-1
 100.15 1120 l 1,10,-1
 376.45 1120 l 2,11,12
 567.25 1120 567.25 1120 646.9 1031.5 c 128,-1,13
 726.55 943 726.55 943 726.55 731 c 2,14,-1
 726.55 256 l 1,15,-1
 886.75 256 l 1,16,-1
 886.75 0 l 1,17,-1
 726.55 0 l 1,18,-1
 726.55 -318 l 1,19,-1
 404.35 -318 l 1,0,-1
EndSplineSet
EndChar
StartChar: uni0288
Encoding: 648 648 648
Width: 929
Flags: W
Fore
232.45 1120 m 1,0,-1
 232.45 1438 l 1,1,-1
 554.65 1438 l 1,2,-1
 554.65 1120 l 1,3,-1
 886.75 1120 l 1,4,-1
 886.75 864 l 1,5,-1
 554.65 864 l 1,6,-1
 554.65 20 l 2,7,8
 554.65 -115 554.65 -115 588.85 -161 c 0,9,10
 623.05 -207 623.05 -207 714.85 -207 c 2,11,-1
 863.35 -207 l 1,12,-1
 863.35 -442 l 1,13,-1
 611.35 -442 l 2,14,15
 426.85 -442 426.85 -442 329.65 -323.5 c 0,16,17
 232.45 -205 232.45 -205 232.45 20 c 2,18,-1
 232.45 864 l 1,19,-1
 72.25 864 l 1,20,-1
 72.25 1120 l 1,21,-1
 232.45 1120 l 1,0,-1
EndSplineSet
EndChar
StartChar: uni0289
Encoding: 649 649 649
Width: 1790
Flags: W
Fore
1635.95 632 m 1,0,-1
 1635.95 438 l 1,1,-1
 1455.05 438 l 1,2,-1
 1455.05 0 l 1,3,-1
 1132.85 0 l 1,4,-1
 1132.85 162 l 1,5,6
 1059.95 64 1059.95 64 978.5 17.5 c 0,7,8
 897.05 -29 897.05 -29 798.95 -29 c 0,9,10
 665.84 3.74121 665.84 3.74121 623.866 22.8057 c 0,11,12
 568.087 48.1416 568.087 48.1416 533 90 c 0,13,14
 441.65 209 441.65 209 441.65 436 c 2,15,-1
 441.65 438 l 1,16,-1
 249.05 438 l 1,17,-1
 249.05 632 l 1,18,-1
 441.65 632 l 1,19,-1
 441.65 1120 l 1,20,-1
 765.65 1120 l 1,21,-1
 765.65 1008 l 2,22,23
 765.65 917 765.65 917 764.75 779.5 c 0,24,25
 764.121 683.404 764.121 683.404 763.932 632 c 1,26,-1
 1132.85 632 l 1,27,-1
 1132.85 1120 l 1,28,-1
 1455.05 1120 l 1,29,-1
 1455.05 632 l 1,30,-1
 1635.95 632 l 1,0,-1
1120.13 438 m 1,31,-1
 767.272 438 l 1,32,33
 768.494 417.141 768.494 417.141 770.15 401.5 c 0,34,35
 776.447 342.028 776.447 342.028 791.75 315 c 0,36,37
 811.575 279.985 811.575 279.985 843.5 261 c 0,38,39
 875.45 242 875.45 242 916.85 242 c 0,40,41
 1017.65 242 1017.65 242 1075.25 328 c 0,42,43
 1105.78 373.587 1105.78 373.587 1120.13 438 c 1,31,-1
EndSplineSet
EndChar
StartChar: uni028A
Encoding: 650 650 650
Width: 1484
Flags: W
TeX: 0 0 0 0
Fore
598.48 837 m 1,3,4
 530 760.86 530 760.86 498.265 680 c 128,-1,14
 453.13 565 453.13 565 453.13 458 c 0,12,13
 453.13 316 453.13 316 513.565 228 c 128,-1,11
 574 141 574 141 673.45 141 c 24,9,10
 773.587 141 773.587 141 833.335 228 c 128,-1,11
 893.77 316 893.77 316 893.77 458 c 0,12,13
 893.77 565 893.77 565 847.87 680 c 128,-1,14
 814.975 764 814.975 764 747.655 836 c 1,15,-1
 747.655 1120 l 1,16,-1
 1231.45 1120 l 1,17,-1
 1231.45 923 l 1,18,-1
 1013.36 923 l 1,19,20
 1093.36 863.961 1093.36 863.961 1166.58 731 c 128,-1,21
 1226.05 623 1226.05 623 1226.05 465 c 0,22,23
 1226.05 211 1226.05 211 1071.83 54 c 128,-1,24
 916.594 -104 916.594 -104 671.65 -104 c 0,25,26
 426.706 -104 426.706 -104 272.482 53 c 128,-1,27
 117.25 210 117.25 210 117.25 457 c 0,28,29
 117.25 619 117.25 619 174.706 731 c 128,-1,30
 240.226 858 240.226 858 323.89 923 c 1,31,-1
 105.55 923 l 1,0,-1
 105.55 1120 l 1,1,-1
 598.48 1120 l 1,2,-1
 598.48 837 l 1,3,4
EndSplineSet
EndChar
StartChar: uni028B
Encoding: 651 651 651
Width: 1490
Flags: W
TeX: 0 0 0 0
Fore
1034.6 1027 m 24,0,0
 1106.02 967.961 1106.02 967.961 1171.4 835 c 128,-1,21
 1224.5 727 1224.5 727 1224.5 569 c 0,22,23
 1224.5 315 1224.5 315 1086.8 158 c 128,-1,24
 948.2 0 948.2 0 729.5 0 c 0,25,26
 606.2 -2 l 2,5,-1
 425.033 -4.93848 425.033 -4.93848 324.5 116 c 128,-1,4
 225.5 235.829 225.5 235.829 225.5 460 c 2,2,3
 225.5 1120 l 9,0,0
 549.5 1120 l 9,0,0
 549.5 460 l 2,11,-1
 549.5 291.23 549.5 291.23 558.14 279 c 128,-1,10
 595.169 226.574 595.169 226.574 636.8 231 c 2,8,9
 655.61 233 l 8,9,10
 761.562 233 761.562 233 836.015 330 c 128,-1,11
 903.56 418 903.56 418 903.56 560 c 0,12,13
 903.56 667 903.56 667 852.26 782 c 128,-1,14
 815.495 866 815.495 866 740.255 938 c 1,15,-1
 738.5 1120 l 0,0,0
 928.01 1115.1 928.01 1115.1 1034.6 1027 c 24,0,0
EndSplineSet
EndChar
StartChar: uni028C
Encoding: 652 652 652
Width: 1268
Flags: W
Fore
1241.3 0 m 1,0,-1
 919.1 0 l 1,1,-1
 668 774 l 1,2,-1
 417.8 0 l 1,3,-1
 94.7002 0 l 1,4,-1
 491.6 1120 l 1,5,-1
 845.3 1120 l 1,6,-1
 1241.3 0 l 1,0,-1
EndSplineSet
EndChar
StartChar: uni028D
Encoding: 653 653 653
Width: 1797
Flags: W
Fore
1733.55 0 m 1,0,-1
 1420.35 0 l 1,1,-1
 1251.15 772 l 1,2,-1
 1081.05 0 l 1,3,-1
 811.95 0 l 1,4,-1
 642.75 764 l 1,5,-1
 472.65 0 l 1,6,-1
 159.45 0 l 1,7,-1
 424.95 1120 l 1,8,-1
 776.85 1120 l 1,9,-1
 946.95 350 l 1,10,-1
 1116.15 1120 l 1,11,-1
 1468.05 1120 l 1,12,-1
 1733.55 0 l 1,0,-1
EndSplineSet
EndChar
StartChar: uni028E
Encoding: 654 654 654
Width: 1267
Flags: W
Fore
1234.35 0 m 1,0,-1
 912.15 0 l 1,1,-1
 641.25 760 l 1,2,-1
 410.85 0 l 1,3,-1
 88.6504 0 l 1,4,-1
 512.55 1226 l 1,5,6
 576.45 1413 576.45 1413 661.5 1487.5 c 128,-1,7
 746.55 1562 746.55 1562 886.05 1562 c 2,8,-1
 1072.35 1562 l 1,9,-1
 1072.35 1327 l 1,10,-1
 971.55 1327 l 2,11,12
 889.65 1327 889.65 1327 852.3 1298 c 128,-1,13
 814.95 1269 814.95 1269 794.25 1194 c 1,14,-1
 785.25 1163 l 1,15,-1
 1234.35 0 l 1,0,-1
EndSplineSet
EndChar
StartChar: uni028F
Encoding: 655 655 655
Width: 1395
Flags: W
TeX: 0 0 0 0
Fore
60.9199 1119.75 m 1,0,-1
 395.72 1120 l 1,1,-1
 608.84 775 l 1,2,-1
 820.52 1120 l 1,3,-1
 1157.48 1119.75 l 1,4,-1
 747.8 471.75 l 1,5,-1
 747.8 0 l 1,6,-1
 470.6 0 l 1,7,-1
 470.6 471.75 l 1,8,-1
 60.9199 1119.75 l 1,0,-1
EndSplineSet
EndChar
StartChar: uni0290
Encoding: 656 656 656
Width: 1355
Flags: W
TeX: 0 0 0 0
Fore
181.85 1120 m 1,0,-1
 1061.15 1120 l 1,1,-1
 1061.15 870 l 1,2,-1
 530.15 256 l 1,3,-1
 1062.05 256 l 1,4,-1
 1062.05 20 l 2,5,6
 1062.05 -105.858 1062.05 -105.858 1075.7 -138.182 c 0,7,8
 1083.34 -156.289 1083.34 -156.289 1096.25 -161 c 1,9,10
 1104.94 -207 1104.94 -207 1222.25 -207 c 2,11,-1
 1371.65 -207 l 1,12,-1
 1371.65 -442 l 1,13,-1
 1118.75 -442 l 2,14,15
 934.25 -442 934.25 -442 837.05 -324 c 0,16,17
 742.535 -208.483 742.535 -208.483 738.253 0 c 1,18,-1
 159.35 0 l 1,19,-1
 159.35 250 l 1,20,-1
 690.35 864 l 1,21,-1
 181.85 864 l 1,22,-1
 181.85 1120 l 1,0,-1
EndSplineSet
EndChar
StartChar: uni0291
Encoding: 657 657 657
Width: 1132
Flags: W
TeX: 0 0 0 0
Fore
164.6 1120 m 1,0,-1
 1043.9 1120 l 1,1,-1
 1043.9 870 l 1,2,-1
 512.9 256 l 1,3,-1
 1043.9 256 l 1,4,-1
 1043.9 0 l 1,5,-1
 142.1 0 l 1,6,-1
 142.1 250 l 1,7,-1
 673.1 864 l 1,8,-1
 164.6 864 l 1,9,-1
 164.6 1120 l 1,0,-1
EndSplineSet
EndChar
StartChar: uni0292
Encoding: 658 658 658
Width: 1245
Flags: W
TeX: 0 0 0 0
Fore
345.957 478.956 m 1,21,-1
 678.95 864 l 1,8,-1
 170.45 864 l 1,9,-1
 170.45 1120 l 1,0,-1
 1049.75 1120 l 1,1,-1
 1049.75 870 l 1,2,-1
 673.55 436 l 1,0,0
 819.302 426.522 819.302 426.522 896.75 404 c 0,0,1
 1009.81 371.123 1009.81 371.123 1087.1 258.5 c 128,-1,2
 1157.75 156.152 1157.75 156.152 1157.75 13 c 0,3,4
 1157.75 -209 1157.75 -209 1004.75 -324.5 c 128,-1,5
 851.75 -440 851.75 -440 558.35 -440 c 0,6,7
 454.85 -440 454.85 -440 350.9 -421.5 c 128,-1,8
 246.95 -403 246.95 -403 145.25 -366 c 1,9,-1
 145.25 -69 l 1,10,11
 242.45 -123 242.45 -123 338.3 -150.5 c 128,-1,12
 434.15 -178 434.15 -178 526.85 -178 c 0,13,14
 664.55 -178 664.55 -178 737.9 -125 c 128,-1,15
 811.25 -72 811.25 -72 811.25 27 c 0,16,17
 811.25 129 811.25 129 736.1 181.5 c 128,-1,18
 660.95 234 660.95 234 514.25 234 c 2,19,-1
 345.95 234 l 1,20,-1
 345.957 478.956 l 1,21,-1
EndSplineSet
EndChar
StartChar: uni0293
Encoding: 659 659 659
Width: 1247
Flags: W
TeX: 0 0 0 0
Fore
739.3 -125 m 1,0,1
 700.15 -60 700.15 -60 530.95 -51 c 0,2,3
 397.477 -45.2168 397.477 -45.2168 395.95 -130 c 0,4,5
 394.993 -187.127 394.993 -187.127 543.55 -183 c 0,6,7
 631.93 -180.545 631.93 -180.545 679.563 -161.743 c 0,8,9
 714.927 -147.785 714.927 -147.785 739.3 -125 c 1,0,1
809.593 66.1338 m 1,10,11
 797.492 139.59 797.492 139.59 737.5 181.5 c 0,12,13
 662.35 234 662.35 234 515.65 234 c 2,14,-1
 347.35 234 l 1,15,-1
 347.35 478.956 l 1,16,-1
 680.35 864 l 1,17,-1
 171.85 864 l 1,18,-1
 171.85 1120 l 1,19,-1
 1051.15 1120 l 1,20,-1
 1051.15 870 l 1,21,-1
 674.95 436 l 1,22,23
 820.701 426.522 820.701 426.522 898.15 404 c 0,24,25
 1010.93 371.205 1010.93 371.205 1088.5 258.5 c 0,26,27
 1159.15 155.854 1159.15 155.854 1159.15 13 c 0,28,29
 1159.15 -209 1159.15 -209 1006.15 -324.5 c 2,30,-1
 994.828 -332.753 l 1,31,32
 998.14 -369.97 998.14 -369.97 998.95 -410 c 1,33,-1
 845.95 -416 l 1,34,-1
 845.95 -403.5 l 1,35,-1
 840.149 -405.023 l 2,36,37
 721.208 -440 721.208 -440 559.75 -440 c 1,38,-1
 561.583 -437.604 l 1,39,-1
 559.75 -437.5 l 2,40,41
 189.774 -419.761 189.774 -419.761 192.55 -116 c 0,42,43
 195.887 159 195.887 159 530.05 159 c 0,44,45
 694.677 159 694.677 159 809.593 66.1338 c 1,10,11
EndSplineSet
EndChar
StartChar: uni0294
Encoding: 660 660 660
Width: 1113
Flags: W
Fore
302.25 736 m 9,0,0
 385.95 736 l 1,10,11
 581.25 736 581.25 736 658.65 850 c 128,-1,9
 709.95 926 709.95 926 709.95 997 c 0,7,8
 709.48 1092.81 709.48 1092.81 657.75 1159 c 128,-1,6
 568.65 1273 568.65 1273 407.55 1273 c 0,4,5
 335.55 1273 335.55 1273 264.45 1251 c 128,-1,3
 194.25 1230 194.25 1230 124.05 1187 c 1,1,2
 124.05 1485 l 1,0,-1
 192.45 1520 192.45 1520 265.35 1537 c 128,-1,25
 338.25 1555 338.25 1555 501.15 1555 c 0,23,24
 717.392 1556.01 717.392 1556.01 906.15 1345 c 128,-1,22
 1024.95 1212.19 1024.95 1212.19 1024.95 997 c 0,20,21
 1024.95 765.984 1024.95 765.984 885.45 621 c 128,-1,19
 793.749 526.643 793.749 526.643 624.45 496 c 1,0,0
 624.45 0 l 1,0,-1
 302.25 0 l 1,1,-1
 302.25 736 l 9,0,0
EndSplineSet
EndChar
StartChar: uni0295
Encoding: 661 661 661
Width: 1113
Flags: W
Fore
846.75 736 m 17,0,0
 846.75 0 l 1,1,-1
 524.55 0 l 1,0,-1
 524.55 496 l 1,0,0
 355.251 526.643 355.251 526.643 263.55 621 c 128,-1,19
 124.05 765.984 124.05 765.984 124.05 997 c 0,20,21
 124.05 1212.19 124.05 1212.19 242.85 1345 c 128,-1,22
 431.608 1556.01 431.608 1556.01 647.85 1555 c 0,23,24
 810.75 1555 810.75 1555 883.65 1537 c 128,-1,25
 956.55 1520 956.55 1520 1024.95 1485 c 1,0,-1
 1024.95 1187 l 1,1,2
 954.75 1230 954.75 1230 884.55 1251 c 128,-1,3
 813.45 1273 813.45 1273 741.45 1273 c 0,4,5
 580.35 1273 580.35 1273 491.25 1159 c 128,-1,6
 439.52 1092.81 439.52 1092.81 439.05 997 c 0,7,8
 439.05 926 439.05 926 490.35 850 c 128,-1,9
 567.75 736 567.75 736 763.05 736 c 1,10,11
 846.75 736 l 17,0,0
EndSplineSet
EndChar
StartChar: uni0296
Encoding: 662 662 662
Width: 1113
Flags: W
Fore
302.25 819 m 17,0,0
 302.25 1555 l 1,1,-1
 624.45 1555 l 1,0,-1
 624.45 1059 l 1,0,0
 793.749 1028.36 793.749 1028.36 885.45 934 c 128,-1,19
 1024.95 789.016 1024.95 789.016 1024.95 558 c 0,20,21
 1024.95 342.807 1024.95 342.807 906.15 210 c 128,-1,22
 717.392 -1.01367 717.392 -1.01367 501.15 0 c 0,23,24
 338.25 0 338.25 0 265.35 18 c 128,-1,25
 192.45 35 192.45 35 124.05 70 c 1,0,-1
 124.05 368 l 1,1,2
 194.25 325 194.25 325 264.45 304 c 128,-1,3
 335.55 282 335.55 282 407.55 282 c 0,4,5
 568.65 282 568.65 282 657.75 396 c 128,-1,6
 709.48 462.188 709.48 462.188 709.95 558 c 0,7,8
 709.95 629 709.95 629 658.65 705 c 128,-1,9
 581.25 819 581.25 819 385.95 819 c 1,10,11
 302.25 819 l 17,0,0
EndSplineSet
EndChar
StartChar: uni0297
Encoding: 663 663 663
Width: 1113
Flags: W
TeX: 0 0 0 0
Fore
439.05 132 m 18,0,0
 439.52 36.1865 439.52 36.1865 491.25 -30 c 128,-1,6
 580.35 -144 580.35 -144 741.45 -144 c 0,4,5
 813.45 -144 813.45 -144 884.55 -122 c 128,-1,3
 954.75 -101 954.75 -101 1024.95 -58 c 1,1,2
 1024.95 -356 l 1,0,-1
 956.55 -391 956.55 -391 883.65 -408 c 128,-1,25
 810.75 -426 810.75 -426 647.85 -426 c 0,23,24
 431.608 -427.014 431.608 -427.014 242.85 -216 c 128,-1,22
 124.05 -83.1934 124.05 -83.1934 124.05 132 c 10,0,0
 124.05 997 l 2,20,21
 124.05 1212.19 124.05 1212.19 242.85 1345 c 128,-1,22
 431.608 1556.01 431.608 1556.01 647.85 1555 c 0,23,24
 810.75 1555 810.75 1555 883.65 1537 c 128,-1,25
 956.55 1520 956.55 1520 1024.95 1485 c 1,0,-1
 1024.95 1187 l 1,1,2
 954.75 1230 954.75 1230 884.55 1251 c 128,-1,3
 813.45 1273 813.45 1273 741.45 1273 c 0,4,5
 580.35 1273 580.35 1273 491.25 1159 c 128,-1,6
 438.923 1092.06 438.923 1092.06 439.05 997 c 2,7,8
 439.05 132 l 18,0,0
EndSplineSet
EndChar
StartChar: uni0298
Encoding: 664 664 664
Width: 1290
Flags: W
Fore
350.372 566.075 m 0,0,1
 350.372 432.125 350.372 432.125 436.728 338.075 c 128,-1,11
 522.228 244.025 522.228 244.025 642.782 244.025 c 0,9,10
 763.338 244.025 763.338 244.025 847.982 338.075 c 128,-1,8
 932.627 432.125 932.627 432.125 932.628 566.075 c 0,6,7
 932.627 697.175 932.627 697.175 847.128 794.075 c 128,-1,5
 760.772 890.975 760.772 890.975 642.782 890.975 c 0,3,4
 522.228 890.975 522.228 890.975 436.728 794.075 c 128,-1,2
 350.372 697.175 350.372 697.175 350.372 566.075 c 0,0,1
79.6748 564.75 m 0,0,1
 79.6748 817.75 79.6748 817.75 245.995 1004.75 c 128,-1,2
 411.325 1191.75 411.325 1191.75 643.975 1191.75 c 0,3,4
 871.675 1191.75 871.675 1191.75 1038 1004.75 c 128,-1,5
 1203.33 817.75 1203.33 817.75 1203.33 564.75 c 0,6,7
 1203.33 306.25 1203.33 306.25 1039.97 124.75 c 128,-1,8
 876.625 -56.75 876.625 -56.75 643.975 -56.75 c 0,9,10
 411.325 -56.75 411.325 -56.75 245.995 124.75 c 128,-1,11
 79.6748 306.25 79.6748 306.25 79.6748 564.75 c 0,0,1
524.027 566.925 m 0,0,1
 524.027 619.825 524.027 619.825 559.218 658.925 c 128,-1,2
 593.372 698.025 593.372 698.025 642.018 698.025 c 0,3,4
 689.628 698.025 689.628 698.025 724.817 658.925 c 128,-1,5
 758.973 619.825 758.973 619.825 758.973 566.925 c 0,6,7
 758.973 512.875 758.973 512.875 724.817 474.925 c 128,-1,8
 690.662 436.975 690.662 436.975 642.018 436.975 c 0,9,10
 593.372 436.975 593.372 436.975 559.218 474.925 c 128,-1,11
 524.027 512.875 524.027 512.875 524.027 566.925 c 0,0,1
EndSplineSet
EndChar
StartChar: uni0299
Encoding: 665 665 665
Width: 1245
Flags: W
Fore
582.685 697.5 m 2,0,1
 654.102 697.5 654.102 697.5 694.465 722.5 c 128,-1,2
 732.535 746.079 732.535 746.079 732.535 796.25 c 0,3,4
 732.535 844.375 732.535 844.375 694.465 869.688 c 128,-1,5
 656.395 895 656.395 895 582.685 895 c 2,6,-1
 426.805 895 l 1,7,-1
 426.805 697.5 l 1,8,-1
 582.685 697.5 l 2,0,1
593.215 262 m 2,9,10
 687.175 262 687.175 262 734.56 287.479 c 128,-1,11
 781.945 312.96 781.945 312.96 781.945 364.439 c 0,12,13
 781.945 414.88 781.945 414.88 734.965 440.1 c 128,-1,14
 687.985 465.32 687.985 465.32 593.215 465.32 c 2,15,-1
 426.805 465.32 l 1,16,-1
 426.805 262 l 1,17,-1
 593.215 262 l 2,9,10
883.195 599.25 m 1,18,19
 983.635 572.25 983.635 572.25 1038.71 499.5 c 128,-1,20
 1093.79 426.75 1093.79 426.75 1093.79 321 c 0,21,22
 1093.79 159 1093.79 159 975.535 79.5 c 128,-1,23
 857.275 0 857.275 0 615.895 0 c 2,24,-1
 98.3047 0 l 1,25,-1
 98.3047 1119.75 l 1,26,-1
 566.485 1119.75 l 2,27,28
 818.395 1119.75 818.395 1119.75 931.39 1049.25 c 128,-1,29
 1044.38 978.75 1044.38 978.75 1044.38 823.5 c 0,30,31
 1044.38 741.75 1044.38 741.75 1003.08 684.375 c 128,-1,32
 961.765 627 961.765 627 883.195 599.25 c 1,18,19
EndSplineSet
EndChar
StartChar: uni029A
Encoding: 666 666 666
Width: 1351
Flags: W
TeX: 0 0 0 0
Fore
654.786 914.8 m 0,28,29
 565.922 915.527 565.922 915.527 502.687 882 c 128,-1,27
 436.087 846.688 436.087 846.688 436.087 792 c 0,25,26
 436.087 717.987 436.087 717.987 506.286 684 c 128,-1,24
 554.133 661.4 554.133 661.4 625.986 661.4 c 2,22,23
 775.387 661.4 l 1,21,-1
 775.387 441.6 l 17,0,0
 626.887 441.6 l 2,22,23
 544.215 441.6 544.215 441.6 500.887 420 c 128,-1,24
 436.087 387.697 436.087 387.697 436.087 316 c 0,25,26
 436.087 252.671 436.087 252.671 495.486 216 c 128,-1,27
 540.517 188.2 540.517 188.2 618.786 188.2 c 0,28,29
 954.486 188.2 954.486 188.2 954.486 552 c 1,0,0
 953.706 914.8 953.706 914.8 654.786 914.8 c 0,28,29
925.687 1099 m 0,32,33
 1264.09 947.932 1264.09 947.932 1264.09 552 c 0,0,0
 1264.09 220.312 1264.09 220.312 925.687 18 c 0,0,0
 824.861 -42.9268 824.861 -42.9268 602.587 -42 c 0,35,36
 366.259 -40.7676 366.259 -40.7676 243.802 45 c 128,-1,37
 119.584 131 119.584 131 119.584 279 c 0,38,39
 119.584 382 119.584 382 185.4 453 c 128,-1,40
 252.941 525.859 252.941 525.859 400.087 552 c 1,0,1
 247.776 578.158 247.776 578.158 185.4 650 c 128,-1,40
 119.584 725.807 119.584 725.807 119.584 824 c 0,38,39
 119.584 972 119.584 972 243.802 1059 c 128,-1,37
 368.02 1145 368.02 1145 602.587 1145 c 0,35,36
 825.385 1144 825.385 1144 925.687 1099 c 0,32,33
EndSplineSet
EndChar
StartChar: uni029B
Encoding: 667 667 667
Width: 1337
Flags: W
TeX: 0 0 0 0
Fore
1079.97 101.15 m 1,0,1
 986.657 50.5752 986.657 50.5752 886.217 25.2871 c 0,2,3
 785.776 0 785.776 0 678.856 0 c 0,4,5
 437.154 0 437.154 0 295.889 150.642 c 0,6,7
 154.625 301.283 154.625 301.283 154.625 559.215 c 0,8,9
 154.625 820.037 154.625 820.037 298.481 969.595 c 0,10,11
 442.337 1119.15 442.337 1119.15 692.465 1119.15 c 0,12,13
 706.613 1119.15 706.613 1119.15 720.587 1118.72 c 1,14,15
 725.832 1323.79 725.832 1323.79 819.275 1438 c 0,16,17
 916.475 1556 916.475 1556 1100.97 1556 c 2,18,-1
 1353.88 1556 l 1,19,-1
 1353.88 1321 l 1,20,-1
 1204.47 1321 l 2,21,22
 1112.67 1321 1112.67 1321 1078.47 1275 c 0,23,24
 1044.28 1229 1044.28 1229 1044.28 1094 c 2,25,-1
 1044.28 1038.99 l 1,26,-1
 1044.33 1038.96 l 1,27,-1
 1044.33 802.878 l 1,28,29
 963.33 851.61 963.33 851.61 883.301 875.634 c 0,30,31
 803.273 899.657 803.273 899.657 722.92 899.657 c 0,32,33
 573.881 899.657 573.881 899.657 493.205 811.457 c 0,34,35
 412.53 723.259 412.53 723.259 412.53 559.215 c 0,36,37
 412.53 396.544 412.53 396.544 490.289 308.002 c 0,38,39
 568.049 219.459 568.049 219.459 711.256 219.459 c 0,40,41
 750.137 219.459 750.137 219.459 783.509 224.607 c 0,42,43
 816.881 229.755 816.881 229.755 843.449 240.736 c 1,44,-1
 842.225 409 l 1,45,-1
 593.825 409 l 1,46,-1
 593.825 630 l 1,47,-1
 1079.83 630 l 1,48,-1
 1079.97 101.15 l 1,0,1
EndSplineSet
EndChar
StartChar: uni029C
Encoding: 668 668 668
Width: 1242
Flags: W
Fore
98.1504 1120 m 1,0,-1
 423.95 1120 l 1,1,-1
 423.95 715 l 1,2,-1
 765.05 715 l 1,3,-1
 765.05 1120 l 1,4,-1
 1090.85 1120 l 1,5,-1
 1090.85 0 l 1,6,-1
 765.05 0 l 1,7,-1
 765.05 463 l 1,8,-1
 420.35 463 l 1,9,-1
 423.95 0 l 1,10,-1
 98.1504 0 l 1,11,-1
 98.1504 1120 l 1,0,-1
EndSplineSet
EndChar
StartChar: uni029D
Encoding: 669 669 669
Width: 649
Flags: W
TeX: 0 0 0 0
Fore
172.298 1556 m 1,0,-1
 494.497 1556 l 1,1,-1
 494.497 1264 l 1,2,-1
 172.298 1264 l 1,3,-1
 172.298 1556 l 1,0,-1
172.298 1120 m 1,4,-1
 494.497 1120 l 1,5,-1
 494.497 144.5 l 1,6,-1
 645.697 144.5 l 1,7,-1
 645.697 -66.5 l 1,8,9
 595.746 -66.8936 595.746 -66.8936 491.655 -67.0938 c 1,10,11
 477.877 -224.849 477.877 -224.849 397.298 -323.5 c 0,12,13
 300.098 -442 300.098 -442 115.598 -442 c 2,14,-1
 13.8047 -442 l 1,15,16
 13.8486 -442.752 13.8486 -442.752 13.8975 -443.5 c 1,17,18
 -9.89551 -443.658 -9.89551 -443.658 -31.8584 -442 c 2,19,-1
 -43.7021 -442 l 1,20,-1
 -43.7021 -440.961 l 1,21,22
 -299.139 -415.336 -299.139 -415.336 -295.702 -132.5 c 0,23,24
 -292.359 142.653 -292.359 142.653 -15.8027 143.5 c 2,25,-1
 172.298 144.076 l 1,26,-1
 172.298 1120 l 1,4,-1
167.625 -67.1426 m 1,27,28
 42.3574 -66.9512 42.3574 -66.9512 -14.9023 -66.5 c 0,29,30
 -108.847 -66.5 -108.847 -66.5 -110.303 -141.5 c 0,31,32
 -111.426 -199.38 -111.426 -199.38 -26.8564 -206.5 c 2,33,-1
 12.0977 -206.5 l 2,34,35
 103.897 -206.5 103.897 -206.5 138.098 -160.5 c 0,36,37
 159.656 -131.503 159.656 -131.503 167.625 -67.1426 c 1,27,28
EndSplineSet
EndChar
StartChar: uni029E
Encoding: 670 670 670
Width: 1427
Flags: W
Fore
1339.55 -436 m 1,0,-1
 1017.35 -436 l 1,1,-1
 1017.35 411 l 1,2,-1
 646.55 0 l 1,3,-1
 272.15 0 l 1,4,-1
 764.45 514 l 1,5,-1
 233.45 1120 l 1,6,-1
 624.05 1120 l 1,7,-1
 1017.35 653 l 1,8,-1
 1017.35 1120 l 1,9,-1
 1339.55 1120 l 1,10,-1
 1339.55 -436 l 1,0,-1
EndSplineSet
EndChar
StartChar: uni029F
Encoding: 671 671 671
Width: 957
Flags: W
Fore
44.2402 1120 m 1,0,-1
 368.24 1120 l 1,1,-1
 366.44 291 l 1,2,-1
 806.36 291 l 1,3,-1
 806.36 0 l 1,4,-1
 42.4404 0 l 1,5,-1
 44.2402 1120 l 1,0,-1
EndSplineSet
EndChar
StartChar: uni02A0
Encoding: 672 672 672
Width: 1546
Flags: W
TeX: 0 0 0 0
Fore
927.2 162 m 1,0,1
 860.6 63 860.6 63 780.5 17 c 0,2,3
 700.4 -29 700.4 -29 595.1 -29 c 0,4,5
 408.8 -29 408.8 -29 289.1 135.5 c 0,6,7
 169.4 300 169.4 300 169.4 559 c 0,8,9
 169.4 818 169.4 818 289.1 981.5 c 0,10,11
 408.8 1145 408.8 1145 595.1 1145 c 0,12,13
 700.4 1145 700.4 1145 780.5 1099 c 0,14,15
 860.6 1053 860.6 1053 927.2 954 c 1,16,-1
 927.2 1120 l 1,17,-1
 929.346 1120 l 1,18,19
 934.85 1324.15 934.85 1324.15 1028 1438 c 0,20,21
 1125.2 1556 1125.2 1556 1309.7 1556 c 2,22,-1
 1562.6 1556 l 1,23,-1
 1562.6 1321 l 1,24,-1
 1413.2 1321 l 2,25,26
 1321.4 1321 1321.4 1321 1287.2 1275 c 0,27,28
 1253 1229 1253 1229 1253 1094 c 2,29,-1
 1251.2 -426 l 1,30,-1
 927.2 -426 l 1,31,-1
 927.2 162 l 1,0,1
714.8 887 m 0,32,33
 612.2 887 612.2 887 557.75 803 c 0,34,35
 503.3 719 503.3 719 503.3 559 c 0,36,37
 503.3 399 503.3 399 557.75 315 c 0,38,39
 612.2 231 612.2 231 714.8 231 c 0,40,41
 818.3 231 818.3 231 872.75 315 c 0,42,43
 927.2 399 927.2 399 927.2 559 c 0,44,45
 927.2 719 927.2 719 872.75 803 c 0,46,47
 818.3 887 818.3 887 714.8 887 c 0,32,33
EndSplineSet
EndChar
StartChar: uni02A1
Encoding: 673 673 673
Width: 1113
Flags: W
Fore
302.25 736 m 1,0,-1
 385.95 736 l 2,1,2
 581.25 736 581.25 736 658.65 850 c 0,3,4
 709.95 926 709.95 926 709.95 997 c 0,5,6
 709.48 1092.81 709.48 1092.81 657.75 1159 c 0,7,8
 568.65 1273 568.65 1273 407.55 1273 c 0,9,10
 335.55 1273 335.55 1273 264.45 1251 c 0,11,12
 194.25 1230 194.25 1230 124.05 1187 c 1,13,-1
 124.05 1485 l 1,14,15
 192.45 1520 192.45 1520 265.35 1537 c 0,16,17
 338.25 1555 338.25 1555 501.15 1555 c 0,18,19
 718.295 1555 718.295 1555 906.15 1345 c 0,20,21
 1024.95 1212.19 1024.95 1212.19 1024.95 997 c 0,22,23
 1024.95 765.984 1024.95 765.984 885.45 621 c 0,24,25
 793.749 526.643 793.749 526.643 624.45 496 c 1,26,-1
 624.45 342 l 1,27,-1
 856.65 342 l 1,28,-1
 856.65 148 l 1,29,-1
 624.45 148 l 1,30,-1
 624.45 0 l 1,31,-1
 302.25 0 l 1,32,-1
 302.25 148 l 1,33,-1
 160.95 148 l 1,34,-1
 160.95 342 l 1,35,-1
 302.25 342 l 1,36,-1
 302.25 736 l 1,0,-1
EndSplineSet
EndChar
StartChar: uni02A2
Encoding: 674 674 674
Width: 1113
Flags: W
Fore
846.75 736 m 1,0,-1
 763.05 736 l 2,1,2
 567.75 736 567.75 736 490.35 850 c 0,3,4
 439.05 926 439.05 926 439.05 997 c 0,5,6
 439.519 1092.81 439.519 1092.81 491.25 1159 c 0,7,8
 580.35 1273 580.35 1273 741.45 1273 c 0,9,10
 813.45 1273 813.45 1273 884.55 1251 c 0,11,12
 954.75 1230 954.75 1230 1024.95 1187 c 1,13,-1
 1024.95 1485 l 1,14,15
 956.55 1520 956.55 1520 883.65 1537 c 0,16,17
 810.75 1555 810.75 1555 647.85 1555 c 0,18,19
 430.705 1555 430.705 1555 242.85 1345 c 0,20,21
 124.05 1212.19 124.05 1212.19 124.05 997 c 0,22,23
 124.05 765.984 124.05 765.984 263.55 621 c 0,24,25
 355.251 526.643 355.251 526.643 524.55 496 c 1,26,-1
 524.55 342 l 1,27,-1
 292.35 342 l 1,28,-1
 292.35 148 l 1,29,-1
 524.55 148 l 1,30,-1
 524.55 0 l 1,31,-1
 846.75 0 l 1,32,-1
 846.75 148 l 1,33,-1
 988.05 148 l 1,34,-1
 988.05 342 l 1,35,-1
 846.75 342 l 1,36,-1
 846.75 736 l 1,0,-1
EndSplineSet
EndChar
StartChar: uni02A3
Encoding: 675 675 675
Width: 2248
Flags: W
TeX: 0 0 0 0
Fore
746.25 231 m 0,0,1
 849.75 231 849.75 231 904.2 315 c 0,2,3
 958.65 399 958.65 399 958.65 559 c 0,4,5
 958.65 719 958.65 719 904.2 803 c 0,6,7
 849.75 887 849.75 887 746.25 887 c 0,8,9
 643.65 887 643.65 887 589.2 803 c 0,10,11
 534.75 719 534.75 719 534.75 559 c 0,12,13
 534.75 399 534.75 399 589.2 315 c 0,14,15
 643.65 231 643.65 231 746.25 231 c 0,0,1
958.65 956 m 1,16,-1
 958.65 1556 l 1,17,-1
 1282.65 1556 l 1,18,-1
 1282.65 1120 l 1,19,-1
 2160.15 1120 l 1,20,-1
 2160.15 870 l 1,21,-1
 1629.15 256 l 1,22,-1
 2160.15 256 l 1,23,-1
 2160.15 0 l 1,24,-1
 1282.65 0 l 1,25,-1
 1258.35 0 l 1,26,-1
 958.65 0 l 1,27,-1
 958.65 162 l 1,28,29
 892.05 63 892.05 63 811.95 17 c 0,30,31
 731.85 -29 731.85 -29 626.55 -29 c 0,32,33
 440.25 -29 440.25 -29 320.55 135.5 c 0,34,35
 200.85 300 200.85 300 200.85 559 c 0,36,37
 200.85 818 200.85 818 320.55 982.5 c 0,38,39
 440.25 1147 440.25 1147 626.55 1147 c 0,40,41
 730.95 1147 730.95 1147 811.5 1100.5 c 0,42,43
 892.05 1054 892.05 1054 958.65 956 c 1,16,-1
1282.65 864 m 1,44,-1
 1282.65 278.098 l 1,45,-1
 1789.35 864 l 1,46,-1
 1282.65 864 l 1,44,-1
EndSplineSet
EndChar
StartChar: uni02A4
Encoding: 676 676 676
Width: 2362
Flags: W
TeX: 0 0 0 0
Fore
752.25 231 m 0,0,1
 855.75 231 855.75 231 910.2 315 c 0,2,3
 964.65 399 964.65 399 964.65 559 c 0,4,5
 964.65 719 964.65 719 910.2 803 c 0,6,7
 855.75 887 855.75 887 752.25 887 c 0,8,9
 649.65 887 649.65 887 595.2 803 c 0,10,11
 540.75 719 540.75 719 540.75 559 c 0,12,13
 540.75 399 540.75 399 595.2 315 c 0,14,15
 649.65 231 649.65 231 752.25 231 c 0,0,1
964.65 956 m 1,16,-1
 964.65 1556 l 1,17,-1
 1288.65 1556 l 1,18,-1
 1288.65 1120 l 1,19,-1
 2166.15 1120 l 1,20,-1
 2166.15 870 l 1,21,-1
 1789.95 436 l 1,22,23
 1935.71 426.522 1935.71 426.522 2013.15 404 c 0,24,25
 2125.93 371.204 2125.93 371.204 2203.5 258.5 c 0,26,27
 2274.15 155.854 2274.15 155.854 2274.15 13 c 0,28,29
 2274.15 -209 2274.15 -209 2121.15 -324.5 c 0,30,31
 1968.15 -440 1968.15 -440 1674.75 -440 c 0,32,33
 1571.25 -440 1571.25 -440 1467.3 -421.5 c 0,34,35
 1363.35 -403 1363.35 -403 1261.65 -366 c 1,36,-1
 1261.65 -69 l 1,37,38
 1358.85 -123 1358.85 -123 1454.7 -150.5 c 0,39,40
 1550.55 -178 1550.55 -178 1643.25 -178 c 0,41,42
 1780.95 -178 1780.95 -178 1854.3 -125 c 0,43,44
 1927.65 -72 1927.65 -72 1927.65 27 c 0,45,46
 1927.65 129 1927.65 129 1852.5 181.5 c 0,47,48
 1777.35 234 1777.35 234 1630.65 234 c 2,49,-1
 1462.35 234 l 1,50,-1
 1462.35 478.956 l 1,51,-1
 1795.35 864 l 1,52,-1
 1288.65 864 l 1,53,-1
 1288.65 0 l 1,54,-1
 964.65 0 l 1,55,-1
 964.65 162 l 1,56,57
 898.05 63 898.05 63 817.95 17 c 0,58,59
 737.85 -29 737.85 -29 632.55 -29 c 0,60,61
 446.25 -29 446.25 -29 326.55 135.5 c 0,62,63
 206.85 300 206.85 300 206.85 559 c 0,64,65
 206.85 818 206.85 818 326.55 982.5 c 0,66,67
 446.25 1147 446.25 1147 632.55 1147 c 0,68,69
 736.95 1147 736.95 1147 817.5 1100.5 c 0,70,71
 898.05 1054 898.05 1054 964.65 956 c 1,16,-1
EndSplineSet
EndChar
